#N canvas 153 89 1022 675 10;
#X msg 833 64 bang;
#X msg 787 63 stop;
#X obj 824 114 f 0;
#X obj 824 134 + 1;
#X floatatom 721 52 5 0 0 0 - - -;
#X obj 780 652 dac~;
#X obj 95 561 int;
#X obj 70 602 sel -1 1;
#X obj 69 503 key;
#X obj 70 581 * -1;
#X msg 69 542 bang;
#X obj 68 561 -1;
#X msg 70 619 \; pd dsp 0;
#X msg 137 619 \; pd dsp 1;
#X floatatom 25 602 5 0 0 0 - - -;
#X obj 26 166 bng 15 250 50 0 empty empty empty 17 7 0 10 -262144 -1
-1;
#X obj 134 170 bng 15 250 50 0 empty empty empty 17 7 0 10 -262144
-1 -1;
#X text 377 482 Noise;
#X obj 869 380 phasor~;
#X text 951 335 Saw;
#X obj 381 497 noise~;
#X obj 434 534 *~ 3;
#X obj 869 404 *~ 0.02;
#X msg 89 187 0;
#X msg 180 193 0;
#X obj 930 389 dbtorms 50;
#X obj 432 495 dbtorms 78;
#X obj 466 539 * 2.5;
#N canvas 72 83 919 639 mix 1;
#X floatatom 55 11 5 0 0 0 - mod0 -;
#X obj 603 303 vsl 54 216 2 120 0 0 modulo empty empty 0 -9 0 10 -258835
-1 -1 6200 0;
#X text 605 259 Tempo;
#X floatatom 49 184 5 0 0 0 - mod1 -;
#X obj 603 30 vsl 54 216 2 1024 1 0 tempo empty empty 0 -9 0 10 -258835
-1 -1 14100 0;
#X floatatom 610 553 5 0 0 0 - modulo -;
#X obj 55 28 hsl 512 54 1 60 0 0 mod0 empty empty -2 -8 0 10 -261234
-1 -1 3000 0;
#X obj 54 127 hsl 512 54 1 60 0 0 mod1 empty empty -2 -8 0 10 -261682
-1 -1 5600 0;
#X obj 51 507 hsl 512 54 1 60 0 0 mod3 empty empty -2 -8 0 10 -262130
-1 -1 17400 0;
#X obj 53 398 hsl 512 54 1 60 0 0 mod2 empty empty -2 -8 0 10 -204786
-1 -1 7100 0;
#X floatatom 48 563 5 0 0 0 - mod3 -;
#X floatatom 52 380 5 0 0 0 - mod2 -;
#X text 49 488 Synth;
#X text 53 109 pop;
#X text 51 456 pop;
#X obj 51 229 vsl 60 128 0 127 0 1 vol0 empty empty 0 -9 0 10 -261234
-1 -1 10900 0;
#X obj 505 232 vsl 60 128 0 127 0 1 vol3 empty empty 0 -9 0 10 -262130
-1 -1 9600 0;
#X obj 197 232 vsl 60 128 0 127 0 1 vol1 empty empty 0 -9 0 10 -261682
-1 -1 11000 0;
#X obj 355 232 vsl 60 128 0 127 0 1 vol2 empty empty 0 -9 0 10 -204786
-1 -1 10400 0;
#X text 49 86 kickz beet;
#X text 607 530 Modulo;
#X text 684 78 "Y" button to start;
#X text 685 99 use sliders and keep;
#X text 689 119 numbers divisible;
#X text 657 406 -60;
#X text 657 416 -54;
#X text 657 448 -36;
#X text 658 481 -18;
#X text 658 492 -12;
#X text 658 389 -70;
#X text 658 297 -121;
#X text 657 437 -42;
#X restore 149 22 pd mix that shit;
#X floatatom 34 521 5 0 0 0 - - -;
#X obj 69 522 sel 121;
#X text 127 522 <- 'y' button;
#X obj 823 177 s rem;
#X obj 720 30 r rem;
#X obj 201 44 r rem;
#X obj 882 65 r tempo;
#X obj 865 133 r modulo;
#X obj 354 160 bng 15 250 50 0 empty empty empty 17 7 0 10 -262144
-1 -1;
#X msg 417 181 0;
#X obj 245 164 bng 15 250 50 0 empty empty empty 17 7 0 10 -262144
-1 -1;
#X msg 308 185 0;
#X obj 25 214 s north;
#X obj 133 216 s east;
#X obj 244 212 s west;
#X obj 25 98 mod 2;
#X obj 244 96 mod 5;
#X obj 353 92 mod 6;
#X obj 56 76 r mod0;
#X obj 189 77 r mod1;
#X obj 275 74 r mod2;
#X obj 384 70 r mod3;
#X text 694 425 Noise;
#X obj 698 440 noise~;
#X obj 751 477 *~ 3;
#X obj 749 438 dbtorms 78;
#X obj 783 482 * 2.5;
#X obj 753 502 bp~ 40 2;
#X obj 783 457 r west;
#X obj 868 359 r south;
#X floatatom 64 122 5 0 0 0 - - -;
#X floatatom 174 129 5 0 0 0 - - -;
#X floatatom 272 122 5 0 0 0 - - -;
#X floatatom 373 119 5 0 0 0 - - -;
#X obj 823 30 loadbang;
#X msg 133 192 53;
#X msg 244 187 70;
#X obj 823 154 mod 30;
#X obj 823 91 metro 200;
#X obj 756 413 r vol2;
#X obj 935 361 r vol3;
#X text 531 467 Noise;
#X obj 535 482 noise~;
#X obj 588 519 *~ 3;
#X obj 586 480 dbtorms 78;
#X obj 620 524 * 2.5;
#X obj 590 544 bp~ 40 2;
#X obj 620 499 r east;
#X obj 592 454 r vol1;
#X obj 438 469 r vol0;
#X obj 466 514 r north;
#X obj 436 559 bp~ 40 3;
#X msg 25 189 30;
#X obj 353 208 s south;
#X msg 353 183 40;
#X obj 149 96 mod 3;
#X obj 25 144 sel 0 1;
#X obj 244 142 sel 0 2;
#X obj 353 138 sel 0 2;
#X obj 135 147 sel 0 2;
#X connect 0 0 67 0;
#X connect 1 0 67 0;
#X connect 2 0 3 0;
#X connect 3 0 66 0;
#X connect 6 0 9 1;
#X connect 7 0 12 0;
#X connect 7 1 13 0;
#X connect 8 0 29 0;
#X connect 8 0 30 0;
#X connect 9 0 6 0;
#X connect 9 0 7 0;
#X connect 9 0 14 0;
#X connect 10 0 11 0;
#X connect 11 0 9 0;
#X connect 15 0 81 0;
#X connect 16 0 64 0;
#X connect 18 0 22 0;
#X connect 20 0 21 0;
#X connect 21 0 80 0;
#X connect 22 0 5 1;
#X connect 22 0 5 0;
#X connect 23 0 41 0;
#X connect 24 0 42 0;
#X connect 25 0 22 1;
#X connect 26 0 21 1;
#X connect 27 0 80 1;
#X connect 30 0 10 0;
#X connect 33 0 4 0;
#X connect 34 0 44 0;
#X connect 34 0 45 0;
#X connect 34 0 46 0;
#X connect 34 0 84 0;
#X connect 35 0 67 1;
#X connect 36 0 66 1;
#X connect 37 0 83 0;
#X connect 38 0 82 0;
#X connect 39 0 65 0;
#X connect 40 0 43 0;
#X connect 44 0 59 0;
#X connect 44 0 85 0;
#X connect 45 0 61 0;
#X connect 45 0 86 0;
#X connect 46 0 62 0;
#X connect 46 0 87 0;
#X connect 47 0 44 1;
#X connect 48 0 84 1;
#X connect 49 0 45 1;
#X connect 50 0 46 1;
#X connect 52 0 53 0;
#X connect 53 0 56 0;
#X connect 54 0 53 1;
#X connect 55 0 56 1;
#X connect 56 0 5 1;
#X connect 57 0 55 0;
#X connect 58 0 18 0;
#X connect 63 0 67 0;
#X connect 64 0 42 0;
#X connect 65 0 43 0;
#X connect 66 0 2 1;
#X connect 66 0 32 0;
#X connect 67 0 2 0;
#X connect 68 0 54 0;
#X connect 69 0 25 0;
#X connect 71 0 72 0;
#X connect 72 0 75 0;
#X connect 73 0 72 1;
#X connect 74 0 75 1;
#X connect 75 0 5 0;
#X connect 76 0 74 0;
#X connect 77 0 73 0;
#X connect 78 0 26 0;
#X connect 79 0 27 0;
#X connect 80 0 5 0;
#X connect 80 0 5 1;
#X connect 81 0 41 0;
#X connect 83 0 82 0;
#X connect 84 0 60 0;
#X connect 84 0 88 0;
#X connect 85 0 15 0;
#X connect 85 1 23 0;
#X connect 86 0 39 0;
#X connect 86 1 40 0;
#X connect 87 0 37 0;
#X connect 87 1 38 0;
#X connect 88 0 16 0;
#X connect 88 1 24 0;
