#N canvas 758 122 1022 675 10;
#X msg 833 64 bang;
#X msg 787 63 stop;
#X obj 824 114 f 0;
#X obj 824 134 + 1;
#X floatatom 721 52 5 0 0 0 - - -;
#X obj 642 599 dac~;
#X obj 106 418 int;
#X obj 81 459 sel -1 1;
#X obj 80 360 key;
#X obj 81 438 * -1;
#X msg 80 399 bang;
#X obj 79 418 -1;
#X msg 81 476 \; pd dsp 0;
#X msg 148 476 \; pd dsp 1;
#X floatatom 36 459 5 0 0 0 - - -;
#X obj 29 151 bng 15 250 50 0 empty empty empty 17 7 0 10 -262144 -1
-1;
#X obj 137 155 bng 15 250 50 0 empty empty empty 17 7 0 10 -262144
-1 -1;
#X text 305 406 Noise;
#X obj 797 304 phasor~;
#X text 879 259 Saw;
#X obj 309 421 noise~;
#X obj 362 458 *~ 3;
#X obj 797 328 *~ 0.02;
#X msg 92 172 0;
#X msg 183 178 0;
#X obj 858 313 dbtorms 50;
#X obj 360 419 dbtorms 78;
#X obj 394 463 * 2.5;
#N canvas 72 83 919 639 mix 1;
#X floatatom 55 11 5 0 0 0 - mod0 -;
#X obj 603 303 vsl 54 216 2 120 0 0 modulo empty empty 0 -9 0 10 -258835
-1 -1 0 0;
#X text 605 259 Tempo;
#X floatatom 49 184 5 0 0 0 - mod1 -;
#X obj 603 30 vsl 54 216 2 1024 1 0 tempo empty empty 0 -9 0 10 -258835
-1 -1 0 0;
#X floatatom 610 553 5 0 0 0 - modulo -;
#X obj 55 28 hsl 512 54 1 60 0 0 mod0 empty empty -2 -8 0 10 -261234
-1 -1 0 0;
#X obj 54 127 hsl 512 54 1 60 0 0 mod1 empty empty -2 -8 0 10 -261682
-1 -1 0 0;
#X obj 51 507 hsl 512 54 1 60 0 0 mod3 empty empty -2 -8 0 10 -262130
-1 -1 0 0;
#X obj 53 398 hsl 512 54 1 60 0 0 mod2 empty empty -2 -8 0 10 -204786
-1 -1 0 0;
#X floatatom 48 563 5 0 0 0 - mod3 -;
#X floatatom 52 380 5 0 0 0 - mod2 -;
#X text 49 488 Synth;
#X text 53 109 pop;
#X text 51 456 pop;
#X obj 51 229 vsl 60 128 0 127 0 1 vol0 empty empty 0 -9 0 10 -261234
-1 -1 8600 0;
#X obj 505 232 vsl 60 128 0 127 0 1 vol3 empty empty 0 -9 0 10 -262130
-1 -1 9600 0;
#X obj 197 232 vsl 60 128 0 127 0 1 vol1 empty empty 0 -9 0 10 -261682
-1 -1 8600 0;
#X obj 355 232 vsl 60 128 0 127 0 1 vol2 empty empty 0 -9 0 10 -204786
-1 -1 8200 0;
#X text 49 86 kickz beet;
#X text 607 530 Modulo;
#X text 684 78 "Y" button to start;
#X text 685 99 use sliders and keep;
#X text 689 119 numbers divisible;
#X text 657 406 -60;
#X text 657 416 -54;
#X text 657 448 -36;
#X text 658 481 -18;
#X text 658 492 -12;
#X text 658 389 -70;
#X text 658 297 -121;
#X text 657 437 -42;
#X restore 149 22 pd mix that shit;
#X floatatom 45 378 5 0 0 0 - - -;
#X obj 80 379 sel 121;
#X text 138 379 <- 'y' button;
#X obj 823 177 s rem;
#X obj 720 30 r rem;
#X obj 201 44 r rem;
#X obj 882 65 r tempo;
#X obj 865 133 r modulo;
#X obj 357 145 bng 15 250 50 0 empty empty empty 17 7 0 10 -262144
-1 -1;
#X msg 420 166 0;
#X obj 248 149 bng 15 250 50 0 empty empty empty 17 7 0 10 -262144
-1 -1;
#X msg 311 170 0;
#X obj 28 199 s north;
#X obj 136 201 s east;
#X obj 247 197 s west;
#X obj 25 98 mod 2;
#X obj 244 96 mod 5;
#X obj 353 92 mod 6;
#X obj 56 76 r mod0;
#X obj 189 77 r mod1;
#X obj 275 74 r mod2;
#X obj 384 70 r mod3;
#X text 622 349 Noise;
#X obj 626 364 noise~;
#X obj 679 401 *~ 3;
#X obj 796 283 r south;
#X obj 823 30 loadbang;
#X obj 823 154 mod 30;
#X obj 863 285 r vol3;
#X obj 451 331 noise~;
#X obj 535 386 dbtorms 78;
#X obj 566 407 r east;
#X obj 535 363 r vol1;
#X obj 366 393 r vol0;
#X obj 394 438 r north;
#X obj 356 193 s south;
#X obj 149 96 mod 3;
#X obj 28 129 sel 0 1;
#X obj 247 127 sel 0 2;
#X obj 356 123 sel 0 2;
#X obj 138 132 sel 0 2;
#X text 44 226 KICK;
#X text 136 231 POP;
#X text 239 231 POP2;
#X text 356 227 SYNTH;
#X obj 516 443 *~ 3;
#X obj 681 426 bp~ 100 2;
#X obj 518 468 bp~ 100 1;
#X obj 566 430 * 1;
#X obj 453 356 osc~ 100;
#X obj 560 291 osc~ 130;
#X obj 687 325 dbtorms 78;
#X obj 718 369 * 1;
#X obj 687 302 r vol2;
#X obj 718 346 r west;
#X obj 364 483 bp~ 40 2;
#X msg 136 177 86;
#X msg 247 172 82;
#X msg 356 168 65;
#X msg 28 174 80;
#X obj 823 90 metro 116;
#X connect 0 0 89 0;
#X connect 1 0 89 0;
#X connect 2 0 3 0;
#X connect 3 0 56 0;
#X connect 6 0 9 1;
#X connect 7 0 12 0;
#X connect 7 1 13 0;
#X connect 8 0 29 0;
#X connect 8 0 30 0;
#X connect 9 0 6 0;
#X connect 9 0 7 0;
#X connect 9 0 14 0;
#X connect 10 0 11 0;
#X connect 11 0 9 0;
#X connect 15 0 88 0;
#X connect 16 0 85 0;
#X connect 18 0 22 0;
#X connect 20 0 21 0;
#X connect 21 0 84 0;
#X connect 22 0 5 1;
#X connect 23 0 41 0;
#X connect 24 0 42 0;
#X connect 25 0 22 1;
#X connect 26 0 21 1;
#X connect 27 0 84 1;
#X connect 30 0 10 0;
#X connect 33 0 4 0;
#X connect 34 0 44 0;
#X connect 34 0 45 0;
#X connect 34 0 46 0;
#X connect 34 0 65 0;
#X connect 35 0 89 1;
#X connect 36 0 56 1;
#X connect 37 0 87 0;
#X connect 38 0 64 0;
#X connect 39 0 86 0;
#X connect 40 0 43 0;
#X connect 44 0 66 0;
#X connect 45 0 67 0;
#X connect 46 0 68 0;
#X connect 47 0 44 1;
#X connect 48 0 65 1;
#X connect 49 0 45 1;
#X connect 50 0 46 1;
#X connect 53 0 75 0;
#X connect 54 0 18 0;
#X connect 55 0 89 0;
#X connect 56 0 2 1;
#X connect 56 0 32 0;
#X connect 57 0 25 0;
#X connect 59 0 77 1;
#X connect 60 0 77 0;
#X connect 61 0 59 0;
#X connect 62 0 26 0;
#X connect 63 0 27 0;
#X connect 65 0 69 0;
#X connect 66 0 15 0;
#X connect 66 1 23 0;
#X connect 67 0 39 0;
#X connect 67 1 40 0;
#X connect 68 0 37 0;
#X connect 68 1 38 0;
#X connect 69 0 16 0;
#X connect 69 1 24 0;
#X connect 74 0 76 0;
#X connect 75 0 5 1;
#X connect 76 0 5 0;
#X connect 77 0 74 1;
#X connect 78 0 74 0;
#X connect 79 0 53 0;
#X connect 80 0 81 1;
#X connect 81 0 53 1;
#X connect 82 0 80 0;
#X connect 83 0 81 0;
#X connect 84 0 5 0;
#X connect 84 0 5 1;
#X connect 85 0 42 0;
#X connect 86 0 43 0;
#X connect 87 0 64 0;
#X connect 88 0 41 0;
#X connect 89 0 2 0;
