#N canvas 528 73 404 346 12;
#N canvas 670 30 390 730 blinky 0;
#X obj 116 184 t l l;
#X obj 148 219 list split 1;
#X obj 140 315 list;
#X obj 116 280 list;
#X obj 140 341 list prepend 1;
#X obj 140 441 spigot;
#X obj 171 392 list length;
#X obj 255 359 list length;
#X obj 254 426 ==;
#X obj 139 371 t l l;
#X obj 255 404 t b f;
#X obj 140 463 t l l;
#X obj 115 159 list 0;
#X obj 256 380 + 1;
#X obj 147 593 s iter;
#X obj 84 112 r iter;
#X obj 147 574 list;
#X msg 90 535 stop;
#X obj 141 551 delay 1000;
#X obj 196 497 list split 60;
#X obj 135 113 r blink;
#X obj 90 514 r stop;
#X obj 226 462 r printables;
#X obj 227 535 r tempo;
#X obj 140 500 t b l l;
#X obj 204 593 outlet;
#N canvas 249 76 351 376 wireless 0;
#X obj 22 92 f 1;
#X obj 22 112 * -1;
#X obj 21 28 key;
#X obj 21 49 sel 113;
#X obj 27 71 r start/stop;
#X text 18 173 start stop;
#X obj 206 108 spigot;
#X obj 143 108 spigot;
#X text 53 29 Type Q;
#X obj 22 133 t b;
#X obj 21 154 s q;
#X obj 143 71 r q;
#X obj 31 328 tgl 15 0 empty empty empty 17 7 0 10 -262144 -1 -1 0
1;
#X obj 245 85 == 1;
#X obj 208 84 == 0;
#X obj 221 42 r seed;
#X text 243 174 seeding;
#N canvas 539 76 354 272 rand 0;
#X obj 114 190 outlet;
#X obj 101 33 inlet;
#N canvas 136 56 529 593 2binary 0;
#X obj 363 27 inlet;
#X obj 159 445 outlet;
#N canvas 81 35 155 171 divmod2 0;
#X obj 27 23 inlet;
#X obj 27 99 outlet;
#X obj 82 80 outlet;
#X obj 96 22 inlet;
#X obj 82 52 mod 2;
#X obj 28 51 div 2;
#X connect 0 0 4 0;
#X connect 0 0 5 0;
#X connect 3 0 4 1;
#X connect 3 0 5 1;
#X connect 4 0 2 0;
#X connect 5 0 1 0;
#X restore 60 402 pd divmod2;
#N canvas 81 35 155 171 divmod2 0;
#X obj 27 23 inlet;
#X obj 27 99 outlet;
#X obj 82 80 outlet;
#X obj 96 22 inlet;
#X obj 82 52 mod 2;
#X obj 28 51 div 2;
#X connect 0 0 4 0;
#X connect 0 0 5 0;
#X connect 3 0 4 1;
#X connect 3 0 5 1;
#X connect 4 0 2 0;
#X connect 5 0 1 0;
#X restore 137 327 pd divmod2;
#N canvas 81 35 155 171 divmod2 0;
#X obj 27 23 inlet;
#X obj 27 99 outlet;
#X obj 82 80 outlet;
#X obj 96 22 inlet;
#X obj 82 52 mod 2;
#X obj 28 51 div 2;
#X connect 0 0 4 0;
#X connect 0 0 5 0;
#X connect 3 0 4 1;
#X connect 3 0 5 1;
#X connect 4 0 2 0;
#X connect 5 0 1 0;
#X restore 122 350 pd divmod2;
#N canvas 81 35 155 171 divmod2 0;
#X obj 27 23 inlet;
#X obj 27 99 outlet;
#X obj 82 80 outlet;
#X obj 96 22 inlet;
#X obj 82 52 mod 2;
#X obj 28 51 div 2;
#X connect 0 0 4 0;
#X connect 0 0 5 0;
#X connect 3 0 4 1;
#X connect 3 0 5 1;
#X connect 4 0 2 0;
#X connect 5 0 1 0;
#X restore 110 372 pd divmod2;
#X obj 206 369 list;
#X obj 180 393 list;
#N canvas 81 35 155 171 divmod2 0;
#X obj 27 23 inlet;
#X obj 27 99 outlet;
#X obj 82 80 outlet;
#X obj 96 22 inlet;
#X obj 82 52 mod 2;
#X obj 28 51 div 2;
#X connect 0 0 4 0;
#X connect 0 0 5 0;
#X connect 3 0 4 1;
#X connect 3 0 5 1;
#X connect 4 0 2 0;
#X connect 5 0 1 0;
#X restore 207 244 pd divmod2;
#N canvas 81 35 155 171 divmod2 0;
#X obj 27 23 inlet;
#X obj 27 99 outlet;
#X obj 82 80 outlet;
#X obj 96 22 inlet;
#X obj 82 52 mod 2;
#X obj 28 51 div 2;
#X connect 0 0 4 0;
#X connect 0 0 5 0;
#X connect 3 0 4 1;
#X connect 3 0 5 1;
#X connect 4 0 2 0;
#X connect 5 0 1 0;
#X restore 185 278 pd divmod2;
#N canvas 81 35 155 171 divmod2 0;
#X obj 27 23 inlet;
#X obj 27 99 outlet;
#X obj 82 80 outlet;
#X obj 96 22 inlet;
#X obj 82 52 mod 2;
#X obj 28 51 div 2;
#X connect 0 0 4 0;
#X connect 0 0 5 0;
#X connect 3 0 4 1;
#X connect 3 0 5 1;
#X connect 4 0 2 0;
#X connect 5 0 1 0;
#X restore 173 300 pd divmod2;
#X obj 269 297 list;
#X obj 243 321 list;
#X obj 222 345 list;
#X obj 158 417 list;
#N canvas 81 35 155 171 divmod2 0;
#X obj 27 23 inlet;
#X obj 27 99 outlet;
#X obj 82 80 outlet;
#X obj 96 22 inlet;
#X obj 82 52 mod 2;
#X obj 28 51 div 2;
#X connect 0 0 4 0;
#X connect 0 0 5 0;
#X connect 3 0 4 1;
#X connect 3 0 5 1;
#X connect 4 0 2 0;
#X connect 5 0 1 0;
#X restore 224 205 pd divmod2;
#N canvas 81 35 155 171 divmod2 0;
#X obj 27 23 inlet;
#X obj 27 99 outlet;
#X obj 82 80 outlet;
#X obj 96 22 inlet;
#X obj 82 52 mod 2;
#X obj 28 51 div 2;
#X connect 0 0 4 0;
#X connect 0 0 5 0;
#X connect 3 0 4 1;
#X connect 3 0 5 1;
#X connect 4 0 2 0;
#X connect 5 0 1 0;
#X restore 301 130 pd divmod2;
#N canvas 81 35 155 171 divmod2 0;
#X obj 27 23 inlet;
#X obj 27 99 outlet;
#X obj 82 80 outlet;
#X obj 96 22 inlet;
#X obj 82 52 mod 2;
#X obj 28 51 div 2;
#X connect 0 0 4 0;
#X connect 0 0 5 0;
#X connect 3 0 4 1;
#X connect 3 0 5 1;
#X connect 4 0 2 0;
#X connect 5 0 1 0;
#X restore 286 153 pd divmod2;
#N canvas 81 35 155 171 divmod2 0;
#X obj 27 23 inlet;
#X obj 27 99 outlet;
#X obj 82 80 outlet;
#X obj 96 22 inlet;
#X obj 82 52 mod 2;
#X obj 28 51 div 2;
#X connect 0 0 4 0;
#X connect 0 0 5 0;
#X connect 3 0 4 1;
#X connect 3 0 5 1;
#X connect 4 0 2 0;
#X connect 5 0 1 0;
#X restore 274 175 pd divmod2;
#X obj 370 172 list;
#X obj 344 196 list;
#N canvas 81 35 155 171 divmod2 0;
#X obj 27 23 inlet;
#X obj 27 99 outlet;
#X obj 82 80 outlet;
#X obj 96 22 inlet;
#X obj 82 52 mod 2;
#X obj 28 51 div 2;
#X connect 0 0 4 0;
#X connect 0 0 5 0;
#X connect 3 0 4 1;
#X connect 3 0 5 1;
#X connect 4 0 2 0;
#X connect 5 0 1 0;
#X restore 364 58 pd divmod2;
#N canvas 81 35 155 171 divmod2 0;
#X obj 27 23 inlet;
#X obj 27 99 outlet;
#X obj 82 80 outlet;
#X obj 96 22 inlet;
#X obj 82 52 mod 2;
#X obj 28 51 div 2;
#X connect 0 0 4 0;
#X connect 0 0 5 0;
#X connect 3 0 4 1;
#X connect 3 0 5 1;
#X connect 4 0 2 0;
#X connect 5 0 1 0;
#X restore 349 81 pd divmod2;
#N canvas 81 35 155 171 divmod2 0;
#X obj 27 23 inlet;
#X obj 27 99 outlet;
#X obj 82 80 outlet;
#X obj 96 22 inlet;
#X obj 82 52 mod 2;
#X obj 28 51 div 2;
#X connect 0 0 4 0;
#X connect 0 0 5 0;
#X connect 3 0 4 1;
#X connect 3 0 5 1;
#X connect 4 0 2 0;
#X connect 5 0 1 0;
#X restore 337 103 pd divmod2;
#X obj 433 100 list;
#X obj 407 124 list;
#X obj 386 148 list;
#X obj 322 220 list;
#X obj 297 265 list;
#X obj 51 444 outlet;
#X obj 431 28 inlet;
#X obj 455 65 list;
#X text 111 74 This one fool;
#X connect 0 0 21 0;
#X connect 2 0 29 0;
#X connect 2 1 14 0;
#X connect 3 0 4 0;
#X connect 3 1 13 0;
#X connect 4 0 5 0;
#X connect 4 1 6 0;
#X connect 5 0 2 0;
#X connect 5 1 7 0;
#X connect 6 0 7 1;
#X connect 7 0 14 1;
#X connect 8 0 9 0;
#X connect 8 1 28 0;
#X connect 9 0 10 0;
#X connect 9 1 11 0;
#X connect 10 0 3 0;
#X connect 10 1 12 0;
#X connect 11 0 12 1;
#X connect 12 0 13 1;
#X connect 13 0 6 1;
#X connect 14 0 1 0;
#X connect 15 0 8 0;
#X connect 15 1 27 0;
#X connect 16 0 17 0;
#X connect 16 1 26 0;
#X connect 17 0 18 0;
#X connect 17 1 19 0;
#X connect 18 0 15 0;
#X connect 18 1 20 0;
#X connect 19 0 20 1;
#X connect 20 0 27 1;
#X connect 21 0 22 0;
#X connect 21 1 31 0;
#X connect 22 0 23 0;
#X connect 22 1 24 0;
#X connect 23 0 16 0;
#X connect 23 1 25 0;
#X connect 24 0 25 1;
#X connect 25 0 26 1;
#X connect 26 0 19 1;
#X connect 27 0 28 1;
#X connect 28 0 11 1;
#X connect 30 0 31 1;
#X connect 31 0 24 1;
#X restore 181 109 pd 2binary;
#N canvas 136 56 529 593 2binary 0;
#X obj 363 27 inlet;
#X obj 159 445 outlet;
#N canvas 81 35 155 171 divmod2 0;
#X obj 27 23 inlet;
#X obj 27 99 outlet;
#X obj 82 80 outlet;
#X obj 96 22 inlet;
#X obj 82 52 mod 2;
#X obj 28 51 div 2;
#X connect 0 0 4 0;
#X connect 0 0 5 0;
#X connect 3 0 4 1;
#X connect 3 0 5 1;
#X connect 4 0 2 0;
#X connect 5 0 1 0;
#X restore 60 402 pd divmod2;
#N canvas 81 35 155 171 divmod2 0;
#X obj 27 23 inlet;
#X obj 27 99 outlet;
#X obj 82 80 outlet;
#X obj 96 22 inlet;
#X obj 82 52 mod 2;
#X obj 28 51 div 2;
#X connect 0 0 4 0;
#X connect 0 0 5 0;
#X connect 3 0 4 1;
#X connect 3 0 5 1;
#X connect 4 0 2 0;
#X connect 5 0 1 0;
#X restore 137 327 pd divmod2;
#N canvas 81 35 155 171 divmod2 0;
#X obj 27 23 inlet;
#X obj 27 99 outlet;
#X obj 82 80 outlet;
#X obj 96 22 inlet;
#X obj 82 52 mod 2;
#X obj 28 51 div 2;
#X connect 0 0 4 0;
#X connect 0 0 5 0;
#X connect 3 0 4 1;
#X connect 3 0 5 1;
#X connect 4 0 2 0;
#X connect 5 0 1 0;
#X restore 122 350 pd divmod2;
#N canvas 81 35 155 171 divmod2 0;
#X obj 27 23 inlet;
#X obj 27 99 outlet;
#X obj 82 80 outlet;
#X obj 96 22 inlet;
#X obj 82 52 mod 2;
#X obj 28 51 div 2;
#X connect 0 0 4 0;
#X connect 0 0 5 0;
#X connect 3 0 4 1;
#X connect 3 0 5 1;
#X connect 4 0 2 0;
#X connect 5 0 1 0;
#X restore 110 372 pd divmod2;
#X obj 206 369 list;
#X obj 180 393 list;
#N canvas 81 35 155 171 divmod2 0;
#X obj 27 23 inlet;
#X obj 27 99 outlet;
#X obj 82 80 outlet;
#X obj 96 22 inlet;
#X obj 82 52 mod 2;
#X obj 28 51 div 2;
#X connect 0 0 4 0;
#X connect 0 0 5 0;
#X connect 3 0 4 1;
#X connect 3 0 5 1;
#X connect 4 0 2 0;
#X connect 5 0 1 0;
#X restore 207 244 pd divmod2;
#N canvas 81 35 155 171 divmod2 0;
#X obj 27 23 inlet;
#X obj 27 99 outlet;
#X obj 82 80 outlet;
#X obj 96 22 inlet;
#X obj 82 52 mod 2;
#X obj 28 51 div 2;
#X connect 0 0 4 0;
#X connect 0 0 5 0;
#X connect 3 0 4 1;
#X connect 3 0 5 1;
#X connect 4 0 2 0;
#X connect 5 0 1 0;
#X restore 185 278 pd divmod2;
#N canvas 81 35 155 171 divmod2 0;
#X obj 27 23 inlet;
#X obj 27 99 outlet;
#X obj 82 80 outlet;
#X obj 96 22 inlet;
#X obj 82 52 mod 2;
#X obj 28 51 div 2;
#X connect 0 0 4 0;
#X connect 0 0 5 0;
#X connect 3 0 4 1;
#X connect 3 0 5 1;
#X connect 4 0 2 0;
#X connect 5 0 1 0;
#X restore 173 300 pd divmod2;
#X obj 269 297 list;
#X obj 243 321 list;
#X obj 222 345 list;
#X obj 158 417 list;
#N canvas 81 35 155 171 divmod2 0;
#X obj 27 23 inlet;
#X obj 27 99 outlet;
#X obj 82 80 outlet;
#X obj 96 22 inlet;
#X obj 82 52 mod 2;
#X obj 28 51 div 2;
#X connect 0 0 4 0;
#X connect 0 0 5 0;
#X connect 3 0 4 1;
#X connect 3 0 5 1;
#X connect 4 0 2 0;
#X connect 5 0 1 0;
#X restore 224 205 pd divmod2;
#N canvas 81 35 155 171 divmod2 0;
#X obj 27 23 inlet;
#X obj 27 99 outlet;
#X obj 82 80 outlet;
#X obj 96 22 inlet;
#X obj 82 52 mod 2;
#X obj 28 51 div 2;
#X connect 0 0 4 0;
#X connect 0 0 5 0;
#X connect 3 0 4 1;
#X connect 3 0 5 1;
#X connect 4 0 2 0;
#X connect 5 0 1 0;
#X restore 301 130 pd divmod2;
#N canvas 81 35 155 171 divmod2 0;
#X obj 27 23 inlet;
#X obj 27 99 outlet;
#X obj 82 80 outlet;
#X obj 96 22 inlet;
#X obj 82 52 mod 2;
#X obj 28 51 div 2;
#X connect 0 0 4 0;
#X connect 0 0 5 0;
#X connect 3 0 4 1;
#X connect 3 0 5 1;
#X connect 4 0 2 0;
#X connect 5 0 1 0;
#X restore 286 153 pd divmod2;
#N canvas 81 35 155 171 divmod2 0;
#X obj 27 23 inlet;
#X obj 27 99 outlet;
#X obj 82 80 outlet;
#X obj 96 22 inlet;
#X obj 82 52 mod 2;
#X obj 28 51 div 2;
#X connect 0 0 4 0;
#X connect 0 0 5 0;
#X connect 3 0 4 1;
#X connect 3 0 5 1;
#X connect 4 0 2 0;
#X connect 5 0 1 0;
#X restore 274 175 pd divmod2;
#X obj 370 172 list;
#X obj 344 196 list;
#N canvas 81 35 155 171 divmod2 0;
#X obj 27 23 inlet;
#X obj 27 99 outlet;
#X obj 82 80 outlet;
#X obj 96 22 inlet;
#X obj 82 52 mod 2;
#X obj 28 51 div 2;
#X connect 0 0 4 0;
#X connect 0 0 5 0;
#X connect 3 0 4 1;
#X connect 3 0 5 1;
#X connect 4 0 2 0;
#X connect 5 0 1 0;
#X restore 364 58 pd divmod2;
#N canvas 81 35 155 171 divmod2 0;
#X obj 27 23 inlet;
#X obj 27 99 outlet;
#X obj 82 80 outlet;
#X obj 96 22 inlet;
#X obj 82 52 mod 2;
#X obj 28 51 div 2;
#X connect 0 0 4 0;
#X connect 0 0 5 0;
#X connect 3 0 4 1;
#X connect 3 0 5 1;
#X connect 4 0 2 0;
#X connect 5 0 1 0;
#X restore 349 81 pd divmod2;
#N canvas 81 35 155 171 divmod2 0;
#X obj 27 23 inlet;
#X obj 27 99 outlet;
#X obj 82 80 outlet;
#X obj 96 22 inlet;
#X obj 82 52 mod 2;
#X obj 28 51 div 2;
#X connect 0 0 4 0;
#X connect 0 0 5 0;
#X connect 3 0 4 1;
#X connect 3 0 5 1;
#X connect 4 0 2 0;
#X connect 5 0 1 0;
#X restore 337 103 pd divmod2;
#X obj 433 100 list;
#X obj 407 124 list;
#X obj 386 148 list;
#X obj 322 220 list;
#X obj 297 265 list;
#X obj 51 444 outlet;
#X obj 431 28 inlet;
#X obj 455 65 list;
#X text 111 74 This one fool;
#X connect 0 0 21 0;
#X connect 2 0 29 0;
#X connect 2 1 14 0;
#X connect 3 0 4 0;
#X connect 3 1 13 0;
#X connect 4 0 5 0;
#X connect 4 1 6 0;
#X connect 5 0 2 0;
#X connect 5 1 7 0;
#X connect 6 0 7 1;
#X connect 7 0 14 1;
#X connect 8 0 9 0;
#X connect 8 1 28 0;
#X connect 9 0 10 0;
#X connect 9 1 11 0;
#X connect 10 0 3 0;
#X connect 10 1 12 0;
#X connect 11 0 12 1;
#X connect 12 0 13 1;
#X connect 13 0 6 1;
#X connect 14 0 1 0;
#X connect 15 0 8 0;
#X connect 15 1 27 0;
#X connect 16 0 17 0;
#X connect 16 1 26 0;
#X connect 17 0 18 0;
#X connect 17 1 19 0;
#X connect 18 0 15 0;
#X connect 18 1 20 0;
#X connect 19 0 20 1;
#X connect 20 0 27 1;
#X connect 21 0 22 0;
#X connect 21 1 31 0;
#X connect 22 0 23 0;
#X connect 22 1 24 0;
#X connect 23 0 16 0;
#X connect 23 1 25 0;
#X connect 24 0 25 1;
#X connect 25 0 26 1;
#X connect 26 0 19 1;
#X connect 27 0 28 1;
#X connect 28 0 11 1;
#X connect 30 0 31 1;
#X connect 31 0 24 1;
#X restore 180 134 pd 2binary;
#X obj 181 86 random 2.14748e+09;
#N canvas 136 56 529 593 2binary 0;
#X obj 363 27 inlet;
#X obj 159 445 outlet;
#N canvas 81 35 155 171 divmod2 0;
#X obj 27 23 inlet;
#X obj 27 99 outlet;
#X obj 82 80 outlet;
#X obj 96 22 inlet;
#X obj 82 52 mod 2;
#X obj 28 51 div 2;
#X connect 0 0 4 0;
#X connect 0 0 5 0;
#X connect 3 0 4 1;
#X connect 3 0 5 1;
#X connect 4 0 2 0;
#X connect 5 0 1 0;
#X restore 60 402 pd divmod2;
#N canvas 81 35 155 171 divmod2 0;
#X obj 27 23 inlet;
#X obj 27 99 outlet;
#X obj 82 80 outlet;
#X obj 96 22 inlet;
#X obj 82 52 mod 2;
#X obj 28 51 div 2;
#X connect 0 0 4 0;
#X connect 0 0 5 0;
#X connect 3 0 4 1;
#X connect 3 0 5 1;
#X connect 4 0 2 0;
#X connect 5 0 1 0;
#X restore 137 327 pd divmod2;
#N canvas 81 35 155 171 divmod2 0;
#X obj 27 23 inlet;
#X obj 27 99 outlet;
#X obj 82 80 outlet;
#X obj 96 22 inlet;
#X obj 82 52 mod 2;
#X obj 28 51 div 2;
#X connect 0 0 4 0;
#X connect 0 0 5 0;
#X connect 3 0 4 1;
#X connect 3 0 5 1;
#X connect 4 0 2 0;
#X connect 5 0 1 0;
#X restore 122 350 pd divmod2;
#N canvas 81 35 155 171 divmod2 0;
#X obj 27 23 inlet;
#X obj 27 99 outlet;
#X obj 82 80 outlet;
#X obj 96 22 inlet;
#X obj 82 52 mod 2;
#X obj 28 51 div 2;
#X connect 0 0 4 0;
#X connect 0 0 5 0;
#X connect 3 0 4 1;
#X connect 3 0 5 1;
#X connect 4 0 2 0;
#X connect 5 0 1 0;
#X restore 110 372 pd divmod2;
#X obj 206 369 list;
#X obj 180 393 list;
#N canvas 81 35 155 171 divmod2 0;
#X obj 27 23 inlet;
#X obj 27 99 outlet;
#X obj 82 80 outlet;
#X obj 96 22 inlet;
#X obj 82 52 mod 2;
#X obj 28 51 div 2;
#X connect 0 0 4 0;
#X connect 0 0 5 0;
#X connect 3 0 4 1;
#X connect 3 0 5 1;
#X connect 4 0 2 0;
#X connect 5 0 1 0;
#X restore 207 244 pd divmod2;
#N canvas 81 35 155 171 divmod2 0;
#X obj 27 23 inlet;
#X obj 27 99 outlet;
#X obj 82 80 outlet;
#X obj 96 22 inlet;
#X obj 82 52 mod 2;
#X obj 28 51 div 2;
#X connect 0 0 4 0;
#X connect 0 0 5 0;
#X connect 3 0 4 1;
#X connect 3 0 5 1;
#X connect 4 0 2 0;
#X connect 5 0 1 0;
#X restore 185 278 pd divmod2;
#N canvas 81 35 155 171 divmod2 0;
#X obj 27 23 inlet;
#X obj 27 99 outlet;
#X obj 82 80 outlet;
#X obj 96 22 inlet;
#X obj 82 52 mod 2;
#X obj 28 51 div 2;
#X connect 0 0 4 0;
#X connect 0 0 5 0;
#X connect 3 0 4 1;
#X connect 3 0 5 1;
#X connect 4 0 2 0;
#X connect 5 0 1 0;
#X restore 173 300 pd divmod2;
#X obj 269 297 list;
#X obj 243 321 list;
#X obj 222 345 list;
#X obj 158 417 list;
#N canvas 81 35 155 171 divmod2 0;
#X obj 27 23 inlet;
#X obj 27 99 outlet;
#X obj 82 80 outlet;
#X obj 96 22 inlet;
#X obj 82 52 mod 2;
#X obj 28 51 div 2;
#X connect 0 0 4 0;
#X connect 0 0 5 0;
#X connect 3 0 4 1;
#X connect 3 0 5 1;
#X connect 4 0 2 0;
#X connect 5 0 1 0;
#X restore 224 205 pd divmod2;
#N canvas 81 35 155 171 divmod2 0;
#X obj 27 23 inlet;
#X obj 27 99 outlet;
#X obj 82 80 outlet;
#X obj 96 22 inlet;
#X obj 82 52 mod 2;
#X obj 28 51 div 2;
#X connect 0 0 4 0;
#X connect 0 0 5 0;
#X connect 3 0 4 1;
#X connect 3 0 5 1;
#X connect 4 0 2 0;
#X connect 5 0 1 0;
#X restore 301 130 pd divmod2;
#N canvas 81 35 155 171 divmod2 0;
#X obj 27 23 inlet;
#X obj 27 99 outlet;
#X obj 82 80 outlet;
#X obj 96 22 inlet;
#X obj 82 52 mod 2;
#X obj 28 51 div 2;
#X connect 0 0 4 0;
#X connect 0 0 5 0;
#X connect 3 0 4 1;
#X connect 3 0 5 1;
#X connect 4 0 2 0;
#X connect 5 0 1 0;
#X restore 286 153 pd divmod2;
#N canvas 81 35 155 171 divmod2 0;
#X obj 27 23 inlet;
#X obj 27 99 outlet;
#X obj 82 80 outlet;
#X obj 96 22 inlet;
#X obj 82 52 mod 2;
#X obj 28 51 div 2;
#X connect 0 0 4 0;
#X connect 0 0 5 0;
#X connect 3 0 4 1;
#X connect 3 0 5 1;
#X connect 4 0 2 0;
#X connect 5 0 1 0;
#X restore 274 175 pd divmod2;
#X obj 370 172 list;
#X obj 344 196 list;
#N canvas 81 35 155 171 divmod2 0;
#X obj 27 23 inlet;
#X obj 27 99 outlet;
#X obj 82 80 outlet;
#X obj 96 22 inlet;
#X obj 82 52 mod 2;
#X obj 28 51 div 2;
#X connect 0 0 4 0;
#X connect 0 0 5 0;
#X connect 3 0 4 1;
#X connect 3 0 5 1;
#X connect 4 0 2 0;
#X connect 5 0 1 0;
#X restore 364 58 pd divmod2;
#N canvas 81 35 155 171 divmod2 0;
#X obj 27 23 inlet;
#X obj 27 99 outlet;
#X obj 82 80 outlet;
#X obj 96 22 inlet;
#X obj 82 52 mod 2;
#X obj 28 51 div 2;
#X connect 0 0 4 0;
#X connect 0 0 5 0;
#X connect 3 0 4 1;
#X connect 3 0 5 1;
#X connect 4 0 2 0;
#X connect 5 0 1 0;
#X restore 349 81 pd divmod2;
#N canvas 81 35 155 171 divmod2 0;
#X obj 27 23 inlet;
#X obj 27 99 outlet;
#X obj 82 80 outlet;
#X obj 96 22 inlet;
#X obj 82 52 mod 2;
#X obj 28 51 div 2;
#X connect 0 0 4 0;
#X connect 0 0 5 0;
#X connect 3 0 4 1;
#X connect 3 0 5 1;
#X connect 4 0 2 0;
#X connect 5 0 1 0;
#X restore 337 103 pd divmod2;
#X obj 433 100 list;
#X obj 407 124 list;
#X obj 386 148 list;
#X obj 322 220 list;
#X obj 297 265 list;
#X obj 51 444 outlet;
#X obj 431 28 inlet;
#X obj 455 65 list;
#X text 111 74 This one fool;
#X connect 0 0 21 0;
#X connect 2 0 29 0;
#X connect 2 1 14 0;
#X connect 3 0 4 0;
#X connect 3 1 13 0;
#X connect 4 0 5 0;
#X connect 4 1 6 0;
#X connect 5 0 2 0;
#X connect 5 1 7 0;
#X connect 6 0 7 1;
#X connect 7 0 14 1;
#X connect 8 0 9 0;
#X connect 8 1 28 0;
#X connect 9 0 10 0;
#X connect 9 1 11 0;
#X connect 10 0 3 0;
#X connect 10 1 12 0;
#X connect 11 0 12 1;
#X connect 12 0 13 1;
#X connect 13 0 6 1;
#X connect 14 0 1 0;
#X connect 15 0 8 0;
#X connect 15 1 27 0;
#X connect 16 0 17 0;
#X connect 16 1 26 0;
#X connect 17 0 18 0;
#X connect 17 1 19 0;
#X connect 18 0 15 0;
#X connect 18 1 20 0;
#X connect 19 0 20 1;
#X connect 20 0 27 1;
#X connect 21 0 22 0;
#X connect 21 1 31 0;
#X connect 22 0 23 0;
#X connect 22 1 24 0;
#X connect 23 0 16 0;
#X connect 23 1 25 0;
#X connect 24 0 25 1;
#X connect 25 0 26 1;
#X connect 26 0 19 1;
#X connect 27 0 28 1;
#X connect 28 0 11 1;
#X connect 30 0 31 1;
#X connect 31 0 24 1;
#X restore 27 109 pd 2binary;
#N canvas 136 56 529 593 2binary 0;
#X obj 363 27 inlet;
#X obj 159 445 outlet;
#N canvas 81 35 155 171 divmod2 0;
#X obj 27 23 inlet;
#X obj 27 99 outlet;
#X obj 82 80 outlet;
#X obj 96 22 inlet;
#X obj 82 52 mod 2;
#X obj 28 51 div 2;
#X connect 0 0 4 0;
#X connect 0 0 5 0;
#X connect 3 0 4 1;
#X connect 3 0 5 1;
#X connect 4 0 2 0;
#X connect 5 0 1 0;
#X restore 60 402 pd divmod2;
#N canvas 81 35 155 171 divmod2 0;
#X obj 27 23 inlet;
#X obj 27 99 outlet;
#X obj 82 80 outlet;
#X obj 96 22 inlet;
#X obj 82 52 mod 2;
#X obj 28 51 div 2;
#X connect 0 0 4 0;
#X connect 0 0 5 0;
#X connect 3 0 4 1;
#X connect 3 0 5 1;
#X connect 4 0 2 0;
#X connect 5 0 1 0;
#X restore 137 327 pd divmod2;
#N canvas 81 35 155 171 divmod2 0;
#X obj 27 23 inlet;
#X obj 27 99 outlet;
#X obj 82 80 outlet;
#X obj 96 22 inlet;
#X obj 82 52 mod 2;
#X obj 28 51 div 2;
#X connect 0 0 4 0;
#X connect 0 0 5 0;
#X connect 3 0 4 1;
#X connect 3 0 5 1;
#X connect 4 0 2 0;
#X connect 5 0 1 0;
#X restore 122 350 pd divmod2;
#N canvas 81 35 155 171 divmod2 0;
#X obj 27 23 inlet;
#X obj 27 99 outlet;
#X obj 82 80 outlet;
#X obj 96 22 inlet;
#X obj 82 52 mod 2;
#X obj 28 51 div 2;
#X connect 0 0 4 0;
#X connect 0 0 5 0;
#X connect 3 0 4 1;
#X connect 3 0 5 1;
#X connect 4 0 2 0;
#X connect 5 0 1 0;
#X restore 110 372 pd divmod2;
#X obj 206 369 list;
#X obj 180 393 list;
#N canvas 81 35 155 171 divmod2 0;
#X obj 27 23 inlet;
#X obj 27 99 outlet;
#X obj 82 80 outlet;
#X obj 96 22 inlet;
#X obj 82 52 mod 2;
#X obj 28 51 div 2;
#X connect 0 0 4 0;
#X connect 0 0 5 0;
#X connect 3 0 4 1;
#X connect 3 0 5 1;
#X connect 4 0 2 0;
#X connect 5 0 1 0;
#X restore 207 244 pd divmod2;
#N canvas 81 35 155 171 divmod2 0;
#X obj 27 23 inlet;
#X obj 27 99 outlet;
#X obj 82 80 outlet;
#X obj 96 22 inlet;
#X obj 82 52 mod 2;
#X obj 28 51 div 2;
#X connect 0 0 4 0;
#X connect 0 0 5 0;
#X connect 3 0 4 1;
#X connect 3 0 5 1;
#X connect 4 0 2 0;
#X connect 5 0 1 0;
#X restore 185 278 pd divmod2;
#N canvas 81 35 155 171 divmod2 0;
#X obj 27 23 inlet;
#X obj 27 99 outlet;
#X obj 82 80 outlet;
#X obj 96 22 inlet;
#X obj 82 52 mod 2;
#X obj 28 51 div 2;
#X connect 0 0 4 0;
#X connect 0 0 5 0;
#X connect 3 0 4 1;
#X connect 3 0 5 1;
#X connect 4 0 2 0;
#X connect 5 0 1 0;
#X restore 173 300 pd divmod2;
#X obj 269 297 list;
#X obj 243 321 list;
#X obj 222 345 list;
#X obj 158 417 list;
#N canvas 81 35 155 171 divmod2 0;
#X obj 27 23 inlet;
#X obj 27 99 outlet;
#X obj 82 80 outlet;
#X obj 96 22 inlet;
#X obj 82 52 mod 2;
#X obj 28 51 div 2;
#X connect 0 0 4 0;
#X connect 0 0 5 0;
#X connect 3 0 4 1;
#X connect 3 0 5 1;
#X connect 4 0 2 0;
#X connect 5 0 1 0;
#X restore 224 205 pd divmod2;
#N canvas 81 35 155 171 divmod2 0;
#X obj 27 23 inlet;
#X obj 27 99 outlet;
#X obj 82 80 outlet;
#X obj 96 22 inlet;
#X obj 82 52 mod 2;
#X obj 28 51 div 2;
#X connect 0 0 4 0;
#X connect 0 0 5 0;
#X connect 3 0 4 1;
#X connect 3 0 5 1;
#X connect 4 0 2 0;
#X connect 5 0 1 0;
#X restore 301 130 pd divmod2;
#N canvas 81 35 155 171 divmod2 0;
#X obj 27 23 inlet;
#X obj 27 99 outlet;
#X obj 82 80 outlet;
#X obj 96 22 inlet;
#X obj 82 52 mod 2;
#X obj 28 51 div 2;
#X connect 0 0 4 0;
#X connect 0 0 5 0;
#X connect 3 0 4 1;
#X connect 3 0 5 1;
#X connect 4 0 2 0;
#X connect 5 0 1 0;
#X restore 286 153 pd divmod2;
#N canvas 81 35 155 171 divmod2 0;
#X obj 27 23 inlet;
#X obj 27 99 outlet;
#X obj 82 80 outlet;
#X obj 96 22 inlet;
#X obj 82 52 mod 2;
#X obj 28 51 div 2;
#X connect 0 0 4 0;
#X connect 0 0 5 0;
#X connect 3 0 4 1;
#X connect 3 0 5 1;
#X connect 4 0 2 0;
#X connect 5 0 1 0;
#X restore 274 175 pd divmod2;
#X obj 370 172 list;
#X obj 344 196 list;
#N canvas 81 35 155 171 divmod2 0;
#X obj 27 23 inlet;
#X obj 27 99 outlet;
#X obj 82 80 outlet;
#X obj 96 22 inlet;
#X obj 82 52 mod 2;
#X obj 28 51 div 2;
#X connect 0 0 4 0;
#X connect 0 0 5 0;
#X connect 3 0 4 1;
#X connect 3 0 5 1;
#X connect 4 0 2 0;
#X connect 5 0 1 0;
#X restore 364 58 pd divmod2;
#N canvas 81 35 155 171 divmod2 0;
#X obj 27 23 inlet;
#X obj 27 99 outlet;
#X obj 82 80 outlet;
#X obj 96 22 inlet;
#X obj 82 52 mod 2;
#X obj 28 51 div 2;
#X connect 0 0 4 0;
#X connect 0 0 5 0;
#X connect 3 0 4 1;
#X connect 3 0 5 1;
#X connect 4 0 2 0;
#X connect 5 0 1 0;
#X restore 349 81 pd divmod2;
#N canvas 81 35 155 171 divmod2 0;
#X obj 27 23 inlet;
#X obj 27 99 outlet;
#X obj 82 80 outlet;
#X obj 96 22 inlet;
#X obj 82 52 mod 2;
#X obj 28 51 div 2;
#X connect 0 0 4 0;
#X connect 0 0 5 0;
#X connect 3 0 4 1;
#X connect 3 0 5 1;
#X connect 4 0 2 0;
#X connect 5 0 1 0;
#X restore 337 103 pd divmod2;
#X obj 433 100 list;
#X obj 407 124 list;
#X obj 386 148 list;
#X obj 322 220 list;
#X obj 297 265 list;
#X obj 51 444 outlet;
#X obj 431 28 inlet;
#X obj 455 65 list;
#X text 111 74 This one fool;
#X connect 0 0 21 0;
#X connect 2 0 29 0;
#X connect 2 1 14 0;
#X connect 3 0 4 0;
#X connect 3 1 13 0;
#X connect 4 0 5 0;
#X connect 4 1 6 0;
#X connect 5 0 2 0;
#X connect 5 1 7 0;
#X connect 6 0 7 1;
#X connect 7 0 14 1;
#X connect 8 0 9 0;
#X connect 8 1 28 0;
#X connect 9 0 10 0;
#X connect 9 1 11 0;
#X connect 10 0 3 0;
#X connect 10 1 12 0;
#X connect 11 0 12 1;
#X connect 12 0 13 1;
#X connect 13 0 6 1;
#X connect 14 0 1 0;
#X connect 15 0 8 0;
#X connect 15 1 27 0;
#X connect 16 0 17 0;
#X connect 16 1 26 0;
#X connect 17 0 18 0;
#X connect 17 1 19 0;
#X connect 18 0 15 0;
#X connect 18 1 20 0;
#X connect 19 0 20 1;
#X connect 20 0 27 1;
#X connect 21 0 22 0;
#X connect 21 1 31 0;
#X connect 22 0 23 0;
#X connect 22 1 24 0;
#X connect 23 0 16 0;
#X connect 23 1 25 0;
#X connect 24 0 25 1;
#X connect 25 0 26 1;
#X connect 26 0 19 1;
#X connect 27 0 28 1;
#X connect 28 0 11 1;
#X connect 30 0 31 1;
#X connect 31 0 24 1;
#X restore 26 134 pd 2binary;
#X obj 27 86 random 2.14748e+09;
#X obj 100 57 t b b;
#X obj 114 168 list;
#X connect 1 0 8 0;
#X connect 2 0 3 0;
#X connect 2 1 3 1;
#X connect 3 1 9 1;
#X connect 4 0 2 0;
#X connect 5 0 6 0;
#X connect 5 1 6 1;
#X connect 6 1 9 0;
#X connect 7 0 5 0;
#X connect 8 0 7 0;
#X connect 8 1 4 0;
#X connect 9 0 0 0;
#X restore 205 146 pd rand 2^64;
#X obj 143 163 s blink;
#X msg 142 135 0 0;
#X obj 143 92 t b b b;
#X obj 221 65 t f f f;
#X obj 283 84 == 2;
#X obj 257 108 spigot;
#X obj 257 128 s stop;
#X connect 0 0 1 0;
#X connect 1 0 0 1;
#X connect 1 0 9 0;
#X connect 2 0 3 0;
#X connect 3 0 0 0;
#X connect 4 0 0 0;
#X connect 6 0 17 0;
#X connect 7 0 19 0;
#X connect 9 0 10 0;
#X connect 11 0 20 0;
#X connect 13 0 6 1;
#X connect 14 0 7 1;
#X connect 15 0 21 0;
#X connect 17 0 18 0;
#X connect 19 0 18 0;
#X connect 20 0 7 0;
#X connect 20 1 6 0;
#X connect 20 2 23 0;
#X connect 21 0 14 0;
#X connect 21 1 13 0;
#X connect 21 2 22 0;
#X connect 22 0 23 1;
#X connect 23 0 24 0;
#X restore 84 90 pd wireless;
#N canvas 269 438 343 277 safety 0;
#X obj 144 114 list length;
#X floatatom 97 130 5 0 0 0 - - -;
#X obj 145 91 inlet;
#X text 111 54 Overflow Safety;
#X obj 144 181 s start/stop;
#X obj 144 158 sel 1;
#X obj 145 138 >= 489;
#X connect 0 0 1 0;
#X connect 0 0 6 0;
#X connect 2 0 0 0;
#X connect 5 0 4 0;
#X connect 6 0 5 0;
#X restore 24 155 pd safety;
#X obj 114 138 t l l b l;
#N canvas 413 219 257 323 rulez 0;
#X obj 45 47 inlet;
#X obj 56 256 outlet;
#N canvas 0 22 725 202 all 0;
#X obj 30 99 f;
#X obj 47 77 r rule000;
#X obj 29 57 inlet;
#X obj 114 99 f;
#X obj 113 57 inlet;
#X obj 201 97 f;
#X obj 200 55 inlet;
#X obj 285 97 f;
#X obj 284 55 inlet;
#X obj 373 98 f;
#X obj 328 177 outlet;
#X obj 372 56 inlet;
#X obj 457 98 f;
#X obj 456 56 inlet;
#X obj 544 96 f;
#X obj 543 54 inlet;
#X obj 628 96 f;
#X obj 627 54 inlet;
#X obj 131 77 r rule001;
#X obj 218 75 r rule010;
#X obj 302 75 r rule011;
#X obj 390 76 r rule100;
#X obj 474 76 r rule101;
#X obj 561 74 r rule110;
#X obj 645 74 r rule111;
#X floatatom 668 135 5 0 0 0 - - -;
#X connect 0 0 10 0;
#X connect 1 0 0 1;
#X connect 1 0 0 0;
#X connect 2 0 0 0;
#X connect 3 0 10 0;
#X connect 4 0 3 0;
#X connect 5 0 10 0;
#X connect 6 0 5 0;
#X connect 7 0 10 0;
#X connect 8 0 7 0;
#X connect 9 0 10 0;
#X connect 11 0 9 0;
#X connect 12 0 10 0;
#X connect 13 0 12 0;
#X connect 14 0 10 0;
#X connect 15 0 14 0;
#X connect 16 0 10 0;
#X connect 16 0 25 0;
#X connect 17 0 16 0;
#X connect 18 0 3 1;
#X connect 18 0 3 0;
#X connect 19 0 5 1;
#X connect 19 0 5 0;
#X connect 20 0 7 1;
#X connect 20 0 7 0;
#X connect 21 0 9 1;
#X connect 21 0 9 0;
#X connect 22 0 12 1;
#X connect 22 0 12 0;
#X connect 23 0 14 1;
#X connect 23 0 14 0;
#X connect 24 0 16 1;
#X connect 24 0 16 0;
#X restore 55 228 pd all together now;
#X obj 46 73 list split 3;
#X obj 45 96 unpack 0 0 0;
#X obj 46 121 * 4;
#X obj 46 191 sel 0 1 2 3 4 5 6 7;
#X obj 86 120 * 2;
#X obj 127 120 * 1;
#X obj 46 144 +;
#X obj 47 168 +;
#X connect 0 0 3 0;
#X connect 2 0 1 0;
#X connect 3 0 4 0;
#X connect 4 0 5 0;
#X connect 4 1 7 0;
#X connect 4 2 8 0;
#X connect 5 0 9 0;
#X connect 6 0 2 0;
#X connect 6 1 2 1;
#X connect 6 2 2 2;
#X connect 6 3 2 3;
#X connect 6 4 2 4;
#X connect 6 5 2 5;
#X connect 6 6 2 6;
#X connect 6 7 2 7;
#X connect 7 0 9 1;
#X connect 8 0 10 1;
#X connect 9 0 10 0;
#X connect 10 0 6 0;
#X restore 117 249 pd rulez;
#N canvas 899 97 224 322 oldrules 0;
#X obj 40 70 list split 3;
#X text 96 20 rules;
#N canvas 214 219 258 264 !!1 0;
#X obj 79 90 inlet;
#N canvas 166 169 154 143 head 0;
#X obj 21 21 inlet;
#X obj 21 42 list split 1;
#X obj 21 66 outlet;
#X connect 0 0 1 0;
#X connect 1 0 2 0;
#X restore 119 144 pd head;
#X obj 120 168 outlet;
#X obj 79 116 list split 1;
#X connect 0 0 3 0;
#X connect 1 0 2 0;
#X connect 3 1 1 0;
#X restore 39 116 pd !!1;
#X obj 104 182 == 2;
#X obj 40 92 t l l;
#N canvas 299 358 450 300 Lsum 0;
#X obj 154 31 inlet;
#X obj 153 59 list split 2;
#X obj 154 85 +;
#X obj 168 108 list;
#X obj 206 150 list length;
#X obj 206 172 == 1;
#X obj 168 195 spigot;
#X obj 168 131 t l l;
#X obj 168 219 outlet;
#X connect 0 0 1 0;
#X connect 1 0 2 0;
#X connect 1 1 3 1;
#X connect 2 0 3 0;
#X connect 3 0 1 0;
#X connect 3 0 7 0;
#X connect 4 0 5 0;
#X connect 5 0 6 1;
#X connect 6 0 8 0;
#X connect 7 0 6 0;
#X connect 7 1 4 0;
#X restore 93 108 pd Lsum;
#X obj 31 142 moses 1;
#X obj 48 179 > 0;
#X obj 94 140 t f f;
#X obj 46 228 outlet;
#X obj 40 45 inlet;
#X obj 30 198 ||;
#X obj 78 198 &&;
#X connect 0 0 4 0;
#X connect 2 0 6 0;
#X connect 3 0 12 1;
#X connect 4 0 2 0;
#X connect 4 1 5 0;
#X connect 5 0 8 0;
#X connect 6 0 11 0;
#X connect 6 1 12 0;
#X connect 7 0 11 1;
#X connect 8 0 7 0;
#X connect 8 1 3 0;
#X connect 10 0 0 0;
#X connect 11 0 9 0;
#X connect 12 0 9 0;
#X restore 25 678 pd oldrules;
#N canvas 776 121 620 567 typography 0;
#X obj 227 96 spigot;
#X obj 197 149 spigot;
#X obj 237 127 == 1;
#X obj 239 50 t f f;
#X obj 239 28 r typography;
#X obj 189 26 inlet;
#X obj 61 267 hradio 40 1 1 2 typography empty empty 0 -8 0 10 -261234
-1 -1 0;
#X text 68 248 typography;
#X obj 195 45 t l l;
#X obj 238 401 print .;
#N canvas 1189 159 450 300 bin2* 0;
#X obj 41 27 inlet;
#X obj 41 48 moses 1;
#X obj 61 104 outlet;
#X msg 87 75 -;
#X msg 42 75 o;
#X connect 0 0 1 0;
#X connect 1 0 4 0;
#X connect 1 1 3 0;
#X connect 3 0 2 0;
#X connect 4 0 2 0;
#X restore 337 176 pd bin2*;
#X obj 337 129 list split 1;
#X obj 375 153 t l l;
#X obj 338 233 list;
#X obj 338 210 list;
#X obj 471 110 list length;
#X obj 394 275 list length;
#X obj 393 300 ==;
#X obj 341 326 spigot;
#X obj 335 259 t l l;
#X obj 356 82 t l b l;
#X obj 445 218 + 1;
#X obj 311 296 route list;
#X obj 267 74 == 0;
#X msg 382 195 o;
#X text 275 175 signs->;
#X connect 0 0 20 0;
#X connect 1 0 9 0;
#X connect 2 0 1 1;
#X connect 3 0 2 0;
#X connect 3 1 23 0;
#X connect 4 0 3 0;
#X connect 5 0 8 0;
#X connect 8 0 1 0;
#X connect 8 1 0 0;
#X connect 10 0 14 0;
#X connect 11 0 10 0;
#X connect 11 1 12 0;
#X connect 12 0 11 0;
#X connect 13 0 14 1;
#X connect 13 0 19 0;
#X connect 14 0 13 0;
#X connect 15 0 21 0;
#X connect 16 0 17 0;
#X connect 17 0 18 1;
#X connect 18 0 9 0;
#X connect 19 0 22 0;
#X connect 19 1 16 0;
#X connect 20 0 11 0;
#X connect 20 1 24 0;
#X connect 20 2 15 0;
#X connect 21 0 17 1;
#X connect 22 0 18 0;
#X connect 23 0 0 1;
#X connect 24 0 14 1;
#X restore 269 513 pd typography;
#X msg 153 280 0;
#X connect 0 0 29 0;
#X connect 0 1 1 0;
#X connect 1 1 0 0;
#X connect 2 0 3 1;
#X connect 2 0 4 0;
#X connect 3 0 2 0;
#X connect 4 0 9 0;
#X connect 5 0 11 0;
#X connect 6 0 8 0;
#X connect 7 0 13 0;
#X connect 8 0 5 1;
#X connect 9 0 5 0;
#X connect 9 1 6 0;
#X connect 10 0 8 0;
#X connect 10 1 8 1;
#X connect 11 0 24 0;
#X connect 11 1 19 0;
#X connect 12 0 0 0;
#X connect 13 0 10 0;
#X connect 15 0 28 0;
#X connect 16 0 14 0;
#X connect 17 0 18 0;
#X connect 18 0 16 0;
#X connect 19 0 31 0;
#X connect 19 2 31 0;
#X connect 20 0 28 0;
#X connect 21 0 17 0;
#X connect 22 0 19 1;
#X connect 23 0 18 1;
#X connect 24 0 18 0;
#X connect 24 1 16 1;
#X connect 24 2 25 0;
#X connect 28 0 27 0;
#X connect 28 1 12 0;
#X connect 28 2 32 0;
#X connect 28 3 7 0;
#X connect 29 0 3 0;
#X connect 32 0 2 0;
#X restore 26 40 pd blinky;
#X text 97 41 outlet :: List->a;
#N canvas 54 537 233 231 Listsum 0;
#X obj 37 29 inlet;
#N canvas 299 358 450 300 Lsum 0;
#X obj 154 15 inlet;
#X obj 153 78 list split 2;
#X obj 154 104 +;
#X obj 168 127 list;
#X obj 206 169 list length;
#X obj 206 191 == 1;
#X obj 168 214 spigot;
#X obj 168 150 t l l;
#X obj 168 238 outlet;
#X obj 153 37 list split 300;
#X text 269 40 <- for overflow;
#X connect 0 0 9 0;
#X connect 1 0 2 0;
#X connect 1 1 3 1;
#X connect 2 0 3 0;
#X connect 3 0 1 0;
#X connect 3 0 7 0;
#X connect 4 0 5 0;
#X connect 5 0 6 1;
#X connect 6 0 8 0;
#X connect 7 0 6 0;
#X connect 7 1 4 0;
#X connect 9 0 1 0;
#X connect 9 2 1 0;
#X restore 36 54 pd Lsum;
#X obj 93 64 inlet;
#X obj 92 118 osc~;
#X obj 92 176 outlet~;
#X floatatom 35 101 5 0 0 0 - - -;
#X obj 35 80 * 10000;
#X obj 93 146 *~ 0.02;
#X obj 175 55 vsl 30 128 0.01 1 1 1 empty empty empty 0 -9 0 10 -260097
-1 -1 5500 1;
#X connect 0 0 1 0;
#X connect 1 0 6 0;
#X connect 2 0 6 1;
#X connect 3 0 7 0;
#X connect 6 0 3 0;
#X connect 6 0 5 0;
#X connect 7 0 4 0;
#X connect 8 0 7 1;
#X restore 93 95 pd Listsum soundz;
#X text 24 142 Blinky Voicings;
#N canvas 1064 48 450 300 OutPut 0;
#X obj 253 157 *~;
#X obj 277 129 line~;
#X msg 296 98 0 100;
#X text 348 68 on;
#X text 345 97 off;
#X text 334 126 envelope;
#X text 334 139 generator;
#X text 113 219 audio output;
#X obj 216 71 inlet~;
#X obj 277 48 r q;
#X obj 308 48 r stop;
#X obj 115 195 dac~;
#X obj 82 158 *~;
#X obj 106 130 line~;
#X msg 125 99 0 100;
#X text 177 69 on;
#X text 174 98 off;
#X text 163 127 envelope;
#X text 163 140 generator;
#X obj 45 72 inlet~;
#X obj 106 49 r q;
#X obj 137 49 r stop;
#X msg 331 234 \; pd dsp 1;
#X obj 331 211 loadbang;
#X msg 331 234 \; pd dsp 1;
#X obj 331 211 loadbang;
#X msg 106 74 0.5 100;
#X msg 277 73 0.5 100;
#X connect 0 0 11 1;
#X connect 1 0 0 1;
#X connect 2 0 1 0;
#X connect 8 0 0 0;
#X connect 9 0 27 0;
#X connect 10 0 2 0;
#X connect 12 0 11 0;
#X connect 13 0 12 1;
#X connect 14 0 13 0;
#X connect 19 0 12 0;
#X connect 20 0 26 0;
#X connect 21 0 14 0;
#X connect 23 0 22 0;
#X connect 25 0 24 0;
#X connect 26 0 13 0;
#X connect 27 0 1 0;
#X restore 49 197 pd OutPut;
#N canvas 466 71 558 583 12tone 0;
#X text 199 29 C C# D D# E F F# G G# A A# B C;
#X obj 256 177 s note;
#X obj 255 197 r note;
#X msg 88 91 0;
#X msg 118 92 1;
#X msg 147 95 2;
#X msg 174 92 3;
#X msg 198 125 4;
#X msg 227 127 5;
#X msg 256 127 6;
#X msg 287 126 7;
#X msg 307 103 8;
#X msg 337 104 9;
#X msg 367 104 10;
#X msg 400 103 11;
#X msg 447 107 12;
#X obj 276 262 log;
#X obj 257 281 *;
#X obj 257 302 exp;
#X obj 259 414 phasor~;
#X obj 172 46 sel 0 1 2 3 4 5 6 7 8 9 10 11 12;
#X obj 89 50 mod 13;
#X obj 259 501 outlet~;
#X floatatom 318 318 5 0 0 0 - - -;
#X obj 90 26 r mod;
#X obj 357 340 inlet;
#N canvas 299 358 450 300 Lsum 0;
#X obj 153 10 inlet;
#X obj 152 84 list split 2;
#X obj 153 110 +;
#X obj 167 133 list;
#X obj 205 175 list length;
#X obj 205 221 == 1;
#X obj 167 244 spigot;
#X obj 167 156 t l l;
#X obj 167 268 outlet;
#X obj 152 33 list split 300;
#X text 270 34 <- for overflow;
#X connect 0 0 9 0;
#X connect 1 0 2 0;
#X connect 1 1 3 1;
#X connect 2 0 3 0;
#X connect 3 0 1 0;
#X connect 3 0 7 0;
#X connect 4 0 5 0;
#X connect 5 0 6 1;
#X connect 6 0 8 0;
#X connect 7 0 6 0;
#X connect 7 1 4 0;
#X connect 9 0 1 0;
#X connect 9 2 1 0;
#X restore 357 363 pd Lsum;
#X obj 355 468 hradio 40 1 0 2 melodyout melodyin empty 0 -8 0 10 -262144
-1 -1 0;
#X text 412 513 melody;
#X text 340 513 steady;
#X obj 258 380 line 55 300;
#X text 305 221 12;
#X text 310 243 2;
#N canvas 0 22 465 659 melody 0;
#X obj 165 306 spigot;
#X obj 172 187 bng 20 250 50 0 empty empty empty 0 -6 0 8 -262144 -1
-1;
#X obj 226 216 bng 20 250 50 0 empty empty empty 0 -6 0 8 -262144 -1
-1;
#X obj 294 216 bng 20 250 50 0 empty empty empty 0 -6 0 8 -262144 -1
-1;
#X msg 260 260 1;
#X msg 224 260 0;
#X obj 194 452 s mod;
#X msg 172 241 0;
#X text 296 238 65%;
#X text 170 212 15%;
#X text 233 240 20%;
#X obj 194 343 r melodyout;
#X obj 195 362 t f f;
#X obj 194 412 spigot;
#X obj 142 412 spigot;
#X obj 195 381 == 0;
#X obj 232 382 == 1;
#X obj 279 418 spigot;
#X obj 287 397 t f f;
#X obj 144 87 t f f b f;
#X obj 121 436 t f f;
#X floatatom 282 159 5 0 0 0 - - -;
#X obj 173 134 random 300;
#X obj 173 162 moses 13;
#X obj 227 189 moses 35;
#X obj 279 474 outlet;
#X obj 145 56 inlet;
#X msg 260 283 0.12;
#X msg 121 458 0.4;
#X connect 0 0 13 0;
#X connect 1 0 7 0;
#X connect 2 0 5 0;
#X connect 3 0 4 0;
#X connect 4 0 0 1;
#X connect 4 0 27 0;
#X connect 5 0 0 1;
#X connect 5 0 27 0;
#X connect 7 0 17 0;
#X connect 11 0 12 0;
#X connect 12 0 15 0;
#X connect 12 1 16 0;
#X connect 13 0 6 0;
#X connect 14 0 20 0;
#X connect 15 0 14 1;
#X connect 16 0 18 0;
#X connect 17 0 25 0;
#X connect 18 0 13 1;
#X connect 18 1 17 1;
#X connect 19 0 14 0;
#X connect 19 1 0 0;
#X connect 19 2 22 0;
#X connect 19 3 22 1;
#X connect 20 0 28 0;
#X connect 20 1 6 0;
#X connect 22 0 21 0;
#X connect 22 0 23 0;
#X connect 23 0 1 0;
#X connect 23 1 24 0;
#X connect 24 0 2 0;
#X connect 24 1 3 0;
#X connect 26 0 19 0;
#X connect 27 0 17 0;
#X connect 28 0 25 0;
#X restore 358 388 pd melody;
#X obj 257 353 pack 55 300;
#X obj 259 459 *~ 0;
#X obj 358 442 line 0.01 100;
#X obj 357 415 pack 0 100;
#X obj 45 261 hradio 15 1 0 13 empty empty empty 0 -8 0 10 -262144
-1 -1 11;
#X obj 256 219 / 12;
#X msg 275 242 2;
#X msg 275 242 2;
#X obj 372 207 r note;
#X obj 372 228 t f f;
#X obj 372 267 /;
#X obj 405 251 + 1;
#X obj 257 330 * 260;
#X obj 38 50 div 13;
#X obj 38 75 * 32.5;
#X obj 38 100 t b f;
#X obj 82 356 list;
#X obj 83 317 r mod;
#X floatatom 95 407 5 0 0 0 - - -;
#X msg 138 338 bang;
#X obj 85 431 print;
#X msg 35 333 bang;
#X floatatom 31 152 5 0 0 0 - - -;
#X obj 84 377 list;
#X obj 469 272 vsl 30 128 0.01 1 1 1 empty empty empty 0 -9 0 10 -261234
-1 -1 4300 1;
#X connect 2 0 39 0;
#X connect 3 0 1 0;
#X connect 4 0 1 0;
#X connect 5 0 1 0;
#X connect 6 0 1 0;
#X connect 7 0 1 0;
#X connect 8 0 1 0;
#X connect 9 0 1 0;
#X connect 10 0 1 0;
#X connect 11 0 1 0;
#X connect 12 0 1 0;
#X connect 13 0 1 0;
#X connect 14 0 1 0;
#X connect 15 0 1 0;
#X connect 16 0 17 1;
#X connect 17 0 18 0;
#X connect 18 0 23 0;
#X connect 18 0 46 0;
#X connect 19 0 35 0;
#X connect 20 0 3 0;
#X connect 20 1 4 0;
#X connect 20 2 5 0;
#X connect 20 3 6 0;
#X connect 20 4 7 0;
#X connect 20 5 8 0;
#X connect 20 6 9 0;
#X connect 20 7 10 0;
#X connect 20 8 11 0;
#X connect 20 9 12 0;
#X connect 20 10 13 0;
#X connect 20 11 14 0;
#X connect 20 12 15 0;
#X connect 21 0 20 0;
#X connect 21 0 38 0;
#X connect 24 0 21 0;
#X connect 24 0 47 0;
#X connect 25 0 26 0;
#X connect 26 0 33 0;
#X connect 30 0 19 0;
#X connect 34 0 30 0;
#X connect 35 0 22 0;
#X connect 36 0 35 1;
#X connect 37 0 36 0;
#X connect 39 0 17 0;
#X connect 39 0 41 0;
#X connect 39 0 41 0;
#X connect 41 0 16 0;
#X connect 41 0 16 0;
#X connect 42 0 43 0;
#X connect 43 0 44 0;
#X connect 43 1 45 0;
#X connect 45 0 44 1;
#X connect 46 0 34 0;
#X connect 47 0 48 0;
#X connect 47 0 56 0;
#X connect 48 0 49 0;
#X connect 49 0 46 0;
#X connect 49 1 46 1;
#X connect 50 0 57 0;
#X connect 53 0 50 1;
#X connect 55 0 50 0;
#X connect 57 0 50 1;
#X connect 57 0 52 0;
#X connect 57 0 54 0;
#X connect 58 0 37 0;
#X restore 162 142 pd 12tone;
#N canvas 76 455 382 466 GUI-BOT 1;
#X obj 19 362 hsl 200 45 200 10000 1 1 tempo temp empty -2 -8 0 10
-261234 -1 -1 8084 1;
#X text 17 314 printables;
#X obj 20 263 hsl 200 45 1 60 0 1 printables print empty -2 -8 0 10
-261234 -1 -1 12142 1;
#X text 21 414 tempo;
#X obj 19 13 bng 100 80 40 1 start/stop empty empty 63 2 0 12 -23481
-261234 -143491;
#X text 170 4 rules;
#X obj 19 172 hradio 35 1 1 3 seed seedy empty 0 -8 0 10 -199589 -1
-1 0;
#X text 20 157 seeding;
#X text 91 209 stop;
#X text 19 209 germ;
#X text 55 209 rand;
#X text 28 118 A C T I O N;
#X text 136 314 |;
#X text 96 314 |;
#X obj 149 29 tgl 40 1 rule000 r000 empty 17 7 0 10 -33289 -228856
-1 0 1;
#X obj 202 29 tgl 40 1 rule100 r100 empty 17 7 0 10 -33289 -228856
-1 1 1;
#X obj 149 87 tgl 40 1 rule001 r001 empty 17 7 0 10 -33289 -228856
-1 1 1;
#X obj 202 87 tgl 40 1 rule101 r101 empty 17 7 0 10 -33289 -228856
-1 1 1;
#X obj 149 144 tgl 40 1 rule010 r010 empty 17 7 0 10 -33289 -228856
-1 1 1;
#X obj 202 145 tgl 40 1 rule110 r110 empty 17 7 0 10 -33289 -228856
-1 0 1;
#X obj 202 202 tgl 40 1 rule111 r111 empty 17 7 0 10 -33289 -228856
-1 0 1;
#X obj 149 202 tgl 40 1 rule011 r011 empty 17 7 0 10 -33289 -228856
-1 0 1;
#X text 218 14 100;
#X text 220 73 101;
#X text 220 131 110;
#X text 221 188 111;
#X text 148 13 ooo;
#X text 147 129 o1o;
#X text 148 72 oo1;
#X text 147 187 o11;
#X text 309 136 101;
#X text 310 165 105;
#X text 314 197 54;
#X obj 272 9 vradio 30 1 0 12 rulz empty empty 0 -8 0 10 -204786 -1
-1 6;
#X obj 272 385 hradio 40 1 0 2 typography empty empty 0 -8 0 10 -261234
-1 -1 0;
#X text 269 431 typography;
#X text 309 46 73;
#X text 307 75 150;
#X text 309 106 169;
#X text 310 259 18;
#X text 310 287 30;
#X text 311 317 45;
#X text 313 350 60;
#X text 311 227 164;
#X text 306 16 122;
#X restore 24 20 pd GUI-BOT;
#N canvas 350 32 674 660 blinkyharmonics 0;
#N canvas 145 76 729 520 firstset 0;
#X obj 287 457 outlet~;
#X obj 61 35 inlet;
#N canvas 500 107 450 300 sinsum 0;
#X obj 96 92 +~;
#X obj 75 70 +~;
#X obj 182 91 +~;
#X obj 135 143 +~;
#X obj 113 116 +~;
#X obj 158 117 +~;
#X obj 203 67 +~;
#X obj 134 166 outlet~;
#X obj 64 17 inlet~;
#X obj 71 37 inlet~;
#X obj 117 16 inlet~;
#X obj 124 36 inlet~;
#X obj 207 12 inlet~;
#X obj 214 32 inlet~;
#X obj 255 12 inlet~;
#X obj 262 32 inlet~;
#X connect 0 0 4 0;
#X connect 1 0 0 0;
#X connect 2 0 5 1;
#X connect 3 0 7 0;
#X connect 4 0 3 0;
#X connect 5 0 3 1;
#X connect 6 0 2 1;
#X connect 8 0 1 0;
#X connect 9 0 1 1;
#X connect 10 0 0 1;
#X connect 11 0 4 1;
#X connect 12 0 5 0;
#X connect 13 0 2 0;
#X connect 14 0 6 0;
#X connect 15 0 6 1;
#X restore 285 398 pd sinsum;
#X text 213 84 Harmonics Blinkychime;
#X obj 601 288 osc~ 261;
#X obj 525 320 osc~ 233;
#X obj 444 302 osc~ 196;
#X obj 349 312 osc~ 164.8;
#X obj 269 286 osc~ 130;
#X obj 216 321 osc~ 98;
#X obj 139 283 osc~ 65.4;
#X obj 105 121 unpack 0 0 0 0 0 0 0 0;
#X obj 89 354 *~ 2;
#X obj 167 353 *~ 2;
#X obj 229 354 *~ 2;
#X obj 298 354 *~ 2;
#X obj 381 355 *~ 2;
#X obj 458 356 *~ 2;
#X obj 534 358 *~ 2;
#X obj 643 359 *~ 2;
#X obj 80 238 line;
#X obj 442 243 line;
#X obj 163 216 line;
#X obj 442 222 pack 0 500;
#X obj 216 261 line;
#X obj 217 236 pack 0 500;
#X obj 80 217 pack 0 500;
#X obj 163 194 pack 0 500;
#X obj 306 242 line;
#X obj 306 221 pack 0 500;
#X obj 365 283 line;
#X obj 365 262 pack 0 500;
#X obj 531 241 line;
#X obj 531 220 pack 0 500;
#X obj 610 246 line;
#X obj 610 225 pack 0 500;
#X obj 405 94 inlet;
#X obj 403 144 unpack 32.7 65.4 98 130 164.8 196 233 261;
#X obj 60 153 outlet;
#X obj 60 56 t l l;
#X obj 404 119 list split 8;
#X obj 91 85 list split 8;
#X obj 70 319 osc~ 32.7;
#X connect 1 0 39 0;
#X connect 2 0 0 0;
#X connect 4 0 19 0;
#X connect 5 0 18 0;
#X connect 6 0 17 0;
#X connect 7 0 16 0;
#X connect 8 0 15 0;
#X connect 9 0 14 0;
#X connect 10 0 13 0;
#X connect 11 0 26 0;
#X connect 11 1 27 0;
#X connect 11 2 25 0;
#X connect 11 3 29 0;
#X connect 11 4 31 0;
#X connect 11 5 23 0;
#X connect 11 6 33 0;
#X connect 11 7 35 0;
#X connect 12 0 2 0;
#X connect 13 0 2 1;
#X connect 14 0 2 2;
#X connect 15 0 2 3;
#X connect 16 0 2 4;
#X connect 17 0 2 5;
#X connect 18 0 2 6;
#X connect 19 0 2 7;
#X connect 20 0 12 1;
#X connect 21 0 17 1;
#X connect 22 0 13 1;
#X connect 23 0 21 0;
#X connect 24 0 14 1;
#X connect 25 0 24 0;
#X connect 26 0 20 0;
#X connect 27 0 22 0;
#X connect 28 0 15 1;
#X connect 29 0 28 0;
#X connect 30 0 16 1;
#X connect 31 0 30 0;
#X connect 32 0 18 1;
#X connect 33 0 32 0;
#X connect 34 0 19 1;
#X connect 35 0 34 0;
#X connect 36 0 40 0;
#X connect 37 0 42 0;
#X connect 37 1 10 0;
#X connect 37 2 9 0;
#X connect 37 3 8 0;
#X connect 37 4 7 0;
#X connect 37 5 6 0;
#X connect 37 6 5 0;
#X connect 37 7 4 0;
#X connect 39 0 38 0;
#X connect 39 1 41 0;
#X connect 40 0 37 0;
#X connect 41 1 11 0;
#X connect 41 2 11 0;
#X connect 42 0 12 0;
#X restore 310 138 pd firstset;
#X obj 260 58 inlet;
#X obj 45 117 outlet~;
#X obj 310 58 r q;
#N canvas 0 22 450 300 clrharmonics 0;
#X obj 151 39 inlet;
#X obj 75 141 outlet;
#X msg 25 79 0 0 0 0 0 0 0 0 0 0 0 0 0 0 0 0 0 0 0 0 0 0 0 0 0 0 0
0 0 0 0 0 0 0 0 0 0 0 0 0 0 0 0 0 0 0 0 0 0 0 0 0 0 0 0 0 0 0 0 0 0
0 0 0 0 0 0 0 0 0 0 0 0;
#X connect 0 0 2 0;
#X connect 2 0 1 0;
#X restore 310 81 pd clrharmonics;
#N canvas 138 86 881 606 thirdset 0;
#X obj 368 543 outlet~;
#X obj 111 139 inlet;
#N canvas 500 107 450 300 sinsum 0;
#X obj 96 92 +~;
#X obj 75 70 +~;
#X obj 182 91 +~;
#X obj 135 143 +~;
#X obj 113 116 +~;
#X obj 158 117 +~;
#X obj 203 67 +~;
#X obj 134 166 outlet~;
#X obj 64 17 inlet~;
#X obj 71 37 inlet~;
#X obj 117 16 inlet~;
#X obj 124 36 inlet~;
#X obj 207 12 inlet~;
#X obj 214 32 inlet~;
#X obj 255 12 inlet~;
#X obj 262 32 inlet~;
#X connect 0 0 4 0;
#X connect 1 0 0 0;
#X connect 2 0 5 1;
#X connect 3 0 7 0;
#X connect 4 0 3 0;
#X connect 5 0 3 1;
#X connect 6 0 2 1;
#X connect 8 0 1 0;
#X connect 9 0 1 1;
#X connect 10 0 0 1;
#X connect 11 0 4 1;
#X connect 12 0 5 0;
#X connect 13 0 2 0;
#X connect 14 0 6 0;
#X connect 15 0 6 1;
#X restore 366 484 pd sinsum;
#X obj 186 207 unpack 0 0 0 0 0 0 0 0;
#X obj 161 324 line;
#X obj 523 329 line;
#X obj 244 302 line;
#X obj 523 308 pack 0 500;
#X obj 297 347 line;
#X obj 298 322 pack 0 500;
#X obj 161 303 pack 0 500;
#X obj 244 280 pack 0 500;
#X obj 387 328 line;
#X obj 387 307 pack 0 500;
#X obj 446 369 line;
#X obj 446 348 pack 0 500;
#X obj 612 327 line;
#X obj 612 306 pack 0 500;
#X obj 691 332 line;
#X obj 691 311 pack 0 500;
#X obj 151 405 osc~ 512;
#X obj 220 369 osc~ 1040;
#X obj 297 407 osc~ 1568;
#X obj 350 372 osc~ 2080;
#X obj 430 398 osc~ 2640;
#X obj 525 388 osc~ 3136;
#X obj 606 406 osc~ 3728;
#X obj 682 374 osc~ 4176;
#X obj 724 445 *~ 1;
#X obj 615 444 *~ 1;
#X obj 539 442 *~ 1;
#X obj 462 441 *~ 1;
#X obj 379 440 *~ 1;
#X obj 310 440 *~ 1;
#X obj 248 439 *~ 1;
#X obj 170 440 *~ 1;
#X obj 441 160 r q;
#X obj 391 160 inlet;
#X text 200 124 Harmonics Blinkychime3;
#X text 576 186 Dm Pentaonic;
#X obj 435 210 unpack 73.4 87.3 110 130.8 146.8 220 277 293.6;
#X obj 392 186 list split 16;
#X obj 111 160 t l l;
#X obj 93 184 outlet;
#X obj 142 183 list split 24;
#X connect 1 0 42 0;
#X connect 2 0 0 0;
#X connect 3 0 10 0;
#X connect 3 1 11 0;
#X connect 3 2 9 0;
#X connect 3 3 13 0;
#X connect 3 4 15 0;
#X connect 3 5 7 0;
#X connect 3 6 17 0;
#X connect 3 7 19 0;
#X connect 4 0 35 1;
#X connect 5 0 30 1;
#X connect 6 0 34 1;
#X connect 7 0 5 0;
#X connect 8 0 33 1;
#X connect 9 0 8 0;
#X connect 10 0 4 0;
#X connect 11 0 6 0;
#X connect 12 0 32 1;
#X connect 13 0 12 0;
#X connect 14 0 31 1;
#X connect 15 0 14 0;
#X connect 16 0 29 1;
#X connect 17 0 16 0;
#X connect 18 0 28 1;
#X connect 19 0 18 0;
#X connect 20 0 35 0;
#X connect 21 0 34 0;
#X connect 22 0 33 0;
#X connect 23 0 32 0;
#X connect 24 0 31 0;
#X connect 25 0 30 0;
#X connect 26 0 29 0;
#X connect 27 0 28 0;
#X connect 28 0 2 7;
#X connect 29 0 2 6;
#X connect 30 0 2 5;
#X connect 31 0 2 4;
#X connect 32 0 2 3;
#X connect 33 0 2 2;
#X connect 34 0 2 1;
#X connect 35 0 2 0;
#X connect 36 0 41 0;
#X connect 37 0 41 0;
#X connect 40 0 20 0;
#X connect 40 1 21 0;
#X connect 40 2 22 0;
#X connect 40 3 23 0;
#X connect 40 4 24 0;
#X connect 40 5 25 0;
#X connect 40 6 26 0;
#X connect 40 7 27 0;
#X connect 41 1 40 0;
#X connect 42 0 43 0;
#X connect 42 1 44 0;
#X connect 44 1 3 0;
#X restore 135 233 pd thirdset;
#N canvas 172 56 752 571 fourthset 0;
#X obj 262 476 outlet~;
#X obj 65 34 inlet;
#N canvas 500 107 450 300 sinsum 0;
#X obj 96 92 +~;
#X obj 75 70 +~;
#X obj 182 91 +~;
#X obj 135 143 +~;
#X obj 113 116 +~;
#X obj 158 117 +~;
#X obj 203 67 +~;
#X obj 134 166 outlet~;
#X obj 64 17 inlet~;
#X obj 71 37 inlet~;
#X obj 117 16 inlet~;
#X obj 124 36 inlet~;
#X obj 207 12 inlet~;
#X obj 214 32 inlet~;
#X obj 255 12 inlet~;
#X obj 262 32 inlet~;
#X connect 0 0 4 0;
#X connect 1 0 0 0;
#X connect 2 0 5 1;
#X connect 3 0 7 0;
#X connect 4 0 3 0;
#X connect 5 0 3 1;
#X connect 6 0 2 1;
#X connect 8 0 1 0;
#X connect 9 0 1 1;
#X connect 10 0 0 1;
#X connect 11 0 4 1;
#X connect 12 0 5 0;
#X connect 13 0 2 0;
#X connect 14 0 6 0;
#X connect 15 0 6 1;
#X restore 260 417 pd sinsum;
#X obj 80 140 unpack 0 0 0 0 0 0 0 0;
#X obj 55 257 line;
#X obj 417 262 line;
#X obj 138 235 line;
#X obj 417 241 pack 0 500;
#X obj 191 280 line;
#X obj 192 255 pack 0 500;
#X obj 55 236 pack 0 500;
#X obj 138 213 pack 0 500;
#X obj 281 261 line;
#X obj 281 240 pack 0 500;
#X obj 340 302 line;
#X obj 340 281 pack 0 500;
#X obj 506 260 line;
#X obj 506 239 pack 0 500;
#X obj 585 265 line;
#X obj 585 244 pack 0 500;
#X obj 45 338 osc~ 512;
#X obj 114 302 osc~ 1040;
#X obj 191 340 osc~ 1568;
#X obj 244 305 osc~ 2080;
#X obj 324 331 osc~ 2640;
#X obj 419 321 osc~ 3136;
#X obj 500 339 osc~ 3728;
#X obj 576 307 osc~ 4176;
#X obj 618 378 *~ 1;
#X obj 509 377 *~ 1;
#X obj 433 375 *~ 1;
#X obj 356 374 *~ 1;
#X obj 273 373 *~ 1;
#X obj 204 373 *~ 1;
#X obj 142 372 *~ 1;
#X obj 64 373 *~ 1;
#X obj 325 90 r q;
#X obj 281 89 inlet;
#X text 111 82 Harmonics Blinkychime4;
#X text 479 123 A MINOR PENTATONIC;
#X obj 329 143 unpack 55 65.4 73.4 82.4 98 110 164 220;
#X obj 65 55 t l l;
#X obj 65 76 outlet;
#X obj 286 121 list split 24;
#X obj 66 104 list split 32;
#X connect 1 0 41 0;
#X connect 2 0 0 0;
#X connect 3 0 10 0;
#X connect 3 1 11 0;
#X connect 3 2 9 0;
#X connect 3 3 13 0;
#X connect 3 4 15 0;
#X connect 3 5 7 0;
#X connect 3 6 17 0;
#X connect 3 7 19 0;
#X connect 4 0 35 1;
#X connect 5 0 30 1;
#X connect 6 0 34 1;
#X connect 7 0 5 0;
#X connect 8 0 33 1;
#X connect 9 0 8 0;
#X connect 10 0 4 0;
#X connect 11 0 6 0;
#X connect 12 0 32 1;
#X connect 13 0 12 0;
#X connect 14 0 31 1;
#X connect 15 0 14 0;
#X connect 16 0 29 1;
#X connect 17 0 16 0;
#X connect 18 0 28 1;
#X connect 19 0 18 0;
#X connect 20 0 35 0;
#X connect 21 0 34 0;
#X connect 22 0 33 0;
#X connect 23 0 32 0;
#X connect 24 0 31 0;
#X connect 25 0 30 0;
#X connect 26 0 29 0;
#X connect 27 0 28 0;
#X connect 28 0 2 7;
#X connect 29 0 2 6;
#X connect 30 0 2 5;
#X connect 31 0 2 4;
#X connect 32 0 2 3;
#X connect 33 0 2 2;
#X connect 34 0 2 1;
#X connect 35 0 2 0;
#X connect 36 0 43 0;
#X connect 37 0 43 0;
#X connect 40 0 20 0;
#X connect 40 1 21 0;
#X connect 40 2 22 0;
#X connect 40 3 23 0;
#X connect 40 4 24 0;
#X connect 40 5 25 0;
#X connect 40 6 26 0;
#X connect 40 7 27 0;
#X connect 41 0 42 0;
#X connect 41 1 44 0;
#X connect 43 1 40 0;
#X connect 44 1 3 0;
#X restore 132 281 pd fourthset;
#N canvas 210 22 783 626 secondset 0;
#X obj 333 532 outlet~;
#X obj 105 113 inlet;
#N canvas 500 107 450 300 sinsum 0;
#X obj 96 92 +~;
#X obj 75 70 +~;
#X obj 182 91 +~;
#X obj 135 143 +~;
#X obj 113 116 +~;
#X obj 158 117 +~;
#X obj 203 67 +~;
#X obj 134 166 outlet~;
#X obj 64 17 inlet~;
#X obj 71 37 inlet~;
#X obj 117 16 inlet~;
#X obj 124 36 inlet~;
#X obj 207 12 inlet~;
#X obj 214 32 inlet~;
#X obj 255 12 inlet~;
#X obj 262 32 inlet~;
#X connect 0 0 4 0;
#X connect 1 0 0 0;
#X connect 2 0 5 1;
#X connect 3 0 7 0;
#X connect 4 0 3 0;
#X connect 5 0 3 1;
#X connect 6 0 2 1;
#X connect 8 0 1 0;
#X connect 9 0 1 1;
#X connect 10 0 0 1;
#X connect 11 0 4 1;
#X connect 12 0 5 0;
#X connect 13 0 2 0;
#X connect 14 0 6 0;
#X connect 15 0 6 1;
#X restore 331 473 pd sinsum;
#X obj 151 196 unpack 0 0 0 0 0 0 0 0;
#X obj 126 313 line;
#X obj 488 318 line;
#X obj 209 291 line;
#X obj 488 297 pack 0 500;
#X obj 262 336 line;
#X obj 263 311 pack 0 500;
#X obj 126 292 pack 0 500;
#X obj 209 269 pack 0 500;
#X obj 352 317 line;
#X obj 352 296 pack 0 500;
#X obj 411 358 line;
#X obj 411 337 pack 0 500;
#X obj 577 316 line;
#X obj 577 295 pack 0 500;
#X obj 656 321 line;
#X obj 656 300 pack 0 500;
#X obj 116 394 osc~ 512;
#X obj 185 358 osc~ 1040;
#X obj 262 396 osc~ 1568;
#X obj 359 153 inlet;
#X obj 315 361 osc~ 2080;
#X obj 395 387 osc~ 2640;
#X obj 490 377 osc~ 3136;
#X obj 571 395 osc~ 3728;
#X obj 647 363 osc~ 4176;
#X obj 400 199 unpack 512 1040 1568 2080 2640 3136 3728 4176;
#X text 541 175 Harmonics Blinkychime2;
#X obj 689 434 *~ 1;
#X obj 580 433 *~ 1;
#X obj 504 431 *~ 1;
#X obj 427 430 *~ 1;
#X obj 344 429 *~ 1;
#X obj 275 429 *~ 1;
#X obj 213 428 *~ 1;
#X obj 135 429 *~ 1;
#X obj 407 154 r q;
#X obj 106 135 t l l;
#X obj 76 159 outlet;
#X obj 137 160 list split 16;
#X obj 360 177 list split 8;
#X connect 1 0 40 0;
#X connect 2 0 0 0;
#X connect 3 0 10 0;
#X connect 3 1 11 0;
#X connect 3 2 9 0;
#X connect 3 3 13 0;
#X connect 3 4 15 0;
#X connect 3 5 7 0;
#X connect 3 6 17 0;
#X connect 3 7 19 0;
#X connect 4 0 38 1;
#X connect 5 0 33 1;
#X connect 6 0 37 1;
#X connect 7 0 5 0;
#X connect 8 0 36 1;
#X connect 9 0 8 0;
#X connect 10 0 4 0;
#X connect 11 0 6 0;
#X connect 12 0 35 1;
#X connect 13 0 12 0;
#X connect 14 0 34 1;
#X connect 15 0 14 0;
#X connect 16 0 32 1;
#X connect 17 0 16 0;
#X connect 18 0 31 1;
#X connect 19 0 18 0;
#X connect 20 0 38 0;
#X connect 21 0 37 0;
#X connect 22 0 36 0;
#X connect 23 0 43 0;
#X connect 24 0 35 0;
#X connect 25 0 34 0;
#X connect 26 0 33 0;
#X connect 27 0 32 0;
#X connect 28 0 31 0;
#X connect 29 0 20 0;
#X connect 29 1 21 0;
#X connect 29 2 22 0;
#X connect 29 3 24 0;
#X connect 29 4 25 0;
#X connect 29 5 26 0;
#X connect 29 6 27 0;
#X connect 29 7 28 0;
#X connect 31 0 2 7;
#X connect 32 0 2 6;
#X connect 33 0 2 5;
#X connect 34 0 2 4;
#X connect 35 0 2 3;
#X connect 36 0 2 2;
#X connect 37 0 2 1;
#X connect 38 0 2 0;
#X connect 39 0 43 0;
#X connect 40 0 41 0;
#X connect 40 1 42 0;
#X connect 42 1 3 0;
#X connect 43 1 29 0;
#X restore 202 177 pd secondset;
#X text 312 117 c Harmonics;
#X text 126 262 Am penta;
#X text 133 215 Dm penta;
#X text 195 161 c hi harmonics;
#N canvas 95 68 844 632 conditions 0;
#X obj 234 36 outlet;
#X obj 63 239 r harmon;
#X obj 63 288 s cond1;
#X obj 127 289 s cond2;
#X obj 245 289 s cond4;
#X obj 183 288 s cond3;
#X obj 380 147 r cond5;
#X obj 62 263 sel 0 1 2 3 4;
#X obj 202 249 s cond5;
#N canvas 0 22 603 487 yo 0;
#X obj 157 54 inlet;
#X msg 157 80 55 58.2705 61.7354 65.4064 69.2957 73.4162 77.7817 82.4069
87.3071 92.4986 97.9989 103.826 110 116.541 123.471 130.813 138.591
146.832 155.563 164.814 174.614 184.997 195.998 207.652 220 233.082
246.942 261.626 277.183 293.665 311.127 329.628 349.228 369.994 391.995
415.305 440 466.164 493.883 523.251 554.365 587.33 622.254 659.255
698.456 739.989 783.991 830.609 880 932.328 987.767 1046.5 1108.73
1174.66 1244.51 1318.51 1396.91 1479.98 1567.98 1661.22 1760 1864.66
1975.53 2093;
#X obj 159 213 s soundz;
#X connect 0 0 1 0;
#X connect 1 0 2 0;
#X restore 379 193 pd yo no se;
#X msg 380 168 bang;
#X msg 272 169 bang;
#X msg 171 164 bang;
#X msg 63 165 bang;
#X msg 66 18 bang;
#X msg 272 79 bang;
#X msg 171 74 bang;
#X msg 63 75 bang;
#N canvas 0 22 603 487 3-tone 0;
#X obj 157 54 inlet;
#X obj 159 213 s soundz;
#X msg 157 80 55 69.2957 87.3071 110 138.591 174.614 220 277.183 349.228
440 554.365 698.456 880 1108.73 1396.91 1760 2217.46 2793.83 3520 4434.92
5587.65 7040 8869.84 11175.3 14080 17739.7 22350.6 28160 35479.4 44701.2
56320 70958.8 89402.4 112640 141918 178805 225280 283835 357610 450560
567670 715220 901120 1.13534e+06 1.43044e+06 1.80224e+06 2.27068e+06
2.86088e+06 3.60448e+06 4.54136e+06 5.72176e+06 7.20896e+06 9.08272e+06
1.14435e+07 1.44179e+07 1.81654e+07 2.2887e+07 2.88358e+07 3.63309e+07
4.5774e+07 5.76717e+07 7.26618e+07 9.15481e+07 1.15343e+08 1.45324e+08
;
#X connect 0 0 2 0;
#X connect 2 0 1 0;
#X restore 271 194 pd 3-tone;
#X obj 272 148 r cond4;
#N canvas 0 22 603 487 (subpatch) 0;
#X obj 157 54 inlet;
#X obj 159 213 s soundz;
#X msg 157 80 55 61 69 77 87 97 110 123 138 155 174 195 220 246 277
311 349 391 440 493 554 622 698 783 880 987 1108 1244 1396 1567 1760
1975 2217 0 0 0 0 0 0 0 0 0 0 0 0 0 0 0 0 0 0 0 0 0 0 0 0 0 0 0 0 0
0 0 0 0 0 0 0 0 0 0 0;
#X connect 0 0 2 0;
#X connect 2 0 1 0;
#X restore 170 189 pd 6 tone;
#X obj 171 143 r cond3;
#N canvas 0 22 603 487 Very 0;
#X obj 157 54 inlet;
#X obj 159 213 s soundz;
#X msg 157 80 73.4 87.3 110 130.8 146.8 220 277 293.6 55 65.4 73.4
82.4 98 110 164 220 8192 16640 25088 33280 42240 50176 59648 66816
0 0 0 0 0 0 0 0 0 0 0 0 0 0 0 0 0 0 0 0 0 0 0 0 0 0 0 0 0 0 0 0 0 0
0 0 0 0 0 0 0 0 0 0 0 0 0 0;
#X connect 0 0 2 0;
#X connect 2 0 1 0;
#X restore 62 190 pd Very High;
#X obj 63 144 r cond2;
#N canvas 0 22 603 487 INITS 0;
#X obj 157 54 inlet;
#X obj 159 213 s soundz;
#X msg 155 128 32.7 65.4 98 130 164.8 196 233 261 0 0 0 0 0 0 0 0 0
0 0 0 0 0 0 0 512 1040 1568 2080 2640 3136 3728 4176 0 0 0 0 0 0 0
0 0 0 0 0 0 0 0 0 0 0 0 0 0 0 0 0 0 0 0 0 0 0 0 0 0 0 0 0 0 0 0 0;
#X connect 0 0 2 0;
#X connect 2 0 1 0;
#X restore 65 43 pd INITS;
#N canvas 25 65 603 487 phi3 0;
#X obj 157 54 inlet;
#X obj 159 213 s soundz;
#X msg 157 80 114.501 119.186 124.062 129.138 134.422 139.922 145.647
151.606 157.81 164.267 170.988 177.984 185.266 192.846 200.737 208.95
217.5 226.399 235.662 245.304 255.341 265.789 276.664 287.984 299.767
312.032 324.799 338.089 351.922 366.321 381.309 396.911 413.151 430.055
447.651 465.967;
#X text 239 203 fillList $take 36 (xentonic 110);
#X connect 0 0 2 0;
#X connect 2 0 1 0;
#X restore 271 104 pd phi3;
#N canvas 624 238 603 487 phi2 0;
#X obj 157 54 inlet;
#X msg 157 80 55 58.2705 61.7354 65.4064 69.2957 73.4162 77.7817 82.4069
87.3071 92.4986 97.9989 103.826 110 116.541 123.471 130.813 138.591
146.832 155.563 164.814 174.614 184.997 195.998 207.652 220 233.082
246.942 261.626 277.183 293.665 311.127 329.628 349.228 369.994 391.995
415.305 440 466.164 493.883 523.251 554.365 587.33 622.254 659.255
698.456 739.989 783.991 830.609 880 932.328 987.767 1046.5 1108.73
1174.66 1244.51 1318.51 1396.91 1479.98 1567.98 1661.22 1760 1864.66
1975.53 2093;
#X obj 159 213 s soundz;
#X connect 0 0 1 0;
#X connect 1 0 2 0;
#X restore 170 99 pd phi2;
#N canvas 621 155 603 487 phi1 0;
#X obj 157 54 inlet;
#X obj 159 213 s soundz;
#X msg 157 80 67.2111 75.8032 82.1333 92.633 108.75 122.652 132.894
149.883 175.961 198.455 215.028 242.516 284.711 321.108 347.922 392.4
460.672 519.563 562.95 634.916 745.382 840.671 910.872 1027.32 1206.05
1360.23 1473.82 1662.23 1951.44 2200.9 2384.69 2689.55 3157.49 3561.14
3858.51 4351.78;
#X text 115 301 fillList $take 36 $pentaskips (xentonic 55);
#X connect 0 0 2 0;
#X connect 2 0 1 0;
#X restore 62 100 pd phi1;
#X obj 233 16 r soundz;
#X msg 575 136 bang;
#N canvas 599 22 609 393 aherem 0;
#X obj 157 54 inlet;
#X obj 157 140 s soundz;
#X msg 157 80 15 35 57.5 81.5 106.5 132.214 158.464 185.131 212.131
239.404 266.904 294.596 322.453 350.453 378.578 406.813 435.147 463.568
492.068 520.639 549.276 577.971 606.721 635.521 664.367 693.256 722.185
751.15 780.15 809.183 838.245 867.336 896.454 925.597 954.763 983.952
;
#X text 193 267 fillList $take 36 (aheremtonic 30);
#X connect 0 0 2 0;
#X connect 2 0 1 0;
#X restore 575 162 pd aherem;
#X msg 589 79 bang;
#N canvas 599 22 609 393 herem 0;
#X obj 157 54 inlet;
#X obj 157 140 s soundz;
#X msg 157 80 300 450 550 625 685 735 777.857 815.357 848.69 878.69
905.963 930.963 954.04 975.469 995.469 1014.22 1031.87 1048.53 1064.32
1079.32 1093.61 1107.24 1120.29 1132.79 1144.79 1156.33 1167.44 1178.15
1188.5 1198.5 1208.17 1217.55 1226.64 1235.46 1244.03 1252.37;
#X text 193 267 fillList $take 36 (heremtonic 300);
#X connect 0 0 2 0;
#X connect 2 0 1 0;
#X restore 585 104 pd herem;
#X msg 381 77 bang;
#N canvas 599 22 609 393 phi 0;
#X obj 157 54 inlet;
#X obj 156 243 s soundz;
#X msg 157 80 361.803 461.803 640.689 1064.3 4274.26 2479.84 -1589.32
-786.823 -531.612 -402.927 -324.824 -272.24 -234.376 -205.792 -183.44
-165.478 -150.726 -138.393 -127.929 -118.937 -111.128 -104.282 -98.2308
-92.8441 -88.0178 -83.6688 -79.7296 -76.1448 -72.8686 -69.8628 -67.0953
-64.5388 -62.1699 -59.9689 -57.9185 -56.0036;
#X text 193 267 fillList $take 36$ map (*100 ) $hSum(hOut phi 2 );
#X connect 0 0 2 0;
#X connect 2 0 1 0;
#X restore 377 102 pd phi 4;
#X msg 575 208 bang;
#N canvas 599 22 609 393 pi 0;
#X obj 157 54 inlet;
#X obj 156 233 s soundz;
#X text 193 267 fillList $take 36 (aheremtonic 30);
#X msg 157 80 414.159 159.464 101.776 75.1522 59.6729 49.5167 42.3295
36.9713 32.8209 29.5104 26.8078 24.5595 22.6596 21.0329 19.6243 18.3928
17.3068 16.342 15.4792 14.7029 14.0009 13.3628 12.7804 12.2467 11.7558
11.3027 10.8833 10.4939 10.1314 9.79313 9.47672 9.18012 8.90152 8.63934
8.39217 8.15875;
#X connect 0 0 3 0;
#X connect 3 0 1 0;
#X restore 575 234 pd pi Out;
#X connect 1 0 7 0;
#X connect 6 0 10 0;
#X connect 7 0 2 0;
#X connect 7 1 3 0;
#X connect 7 2 5 0;
#X connect 7 4 4 0;
#X connect 7 5 8 0;
#X connect 10 0 9 0;
#X connect 11 0 18 0;
#X connect 12 0 20 0;
#X connect 13 0 22 0;
#X connect 14 0 24 0;
#X connect 15 0 25 0;
#X connect 16 0 26 0;
#X connect 17 0 27 0;
#X connect 19 0 11 0;
#X connect 21 0 12 0;
#X connect 23 0 13 0;
#X connect 28 0 0 0;
#X connect 29 0 30 0;
#X connect 31 0 32 0;
#X connect 33 0 34 0;
#X connect 35 0 36 0;
#X restore 457 550 pd conditions;
#X obj 213 259 r c;
#X obj 430 550 s c;
#X obj 210 208 r c;
#X obj 281 134 r c;
#X obj 401 122 r c;
#X obj 365 599 hradio 50 1 0 5 harmon empty empty 0 -8 0 10 -262144
-1 -1 0;
#X text 55 535 Am penta;
#X obj 148 531 r c;
#X text 50 444 Am penta;
#X obj 143 440 r c;
#X text 50 363 Am penta;
#X obj 143 359 r c;
#N canvas 172 56 752 571 sixthset 0;
#X obj 262 476 outlet~;
#X obj 65 34 inlet;
#N canvas 500 107 450 300 sinsum 0;
#X obj 96 92 +~;
#X obj 75 70 +~;
#X obj 182 91 +~;
#X obj 135 143 +~;
#X obj 113 116 +~;
#X obj 158 117 +~;
#X obj 203 67 +~;
#X obj 134 166 outlet~;
#X obj 64 17 inlet~;
#X obj 71 37 inlet~;
#X obj 117 16 inlet~;
#X obj 124 36 inlet~;
#X obj 207 12 inlet~;
#X obj 214 32 inlet~;
#X obj 255 12 inlet~;
#X obj 262 32 inlet~;
#X connect 0 0 4 0;
#X connect 1 0 0 0;
#X connect 2 0 5 1;
#X connect 3 0 7 0;
#X connect 4 0 3 0;
#X connect 5 0 3 1;
#X connect 6 0 2 1;
#X connect 8 0 1 0;
#X connect 9 0 1 1;
#X connect 10 0 0 1;
#X connect 11 0 4 1;
#X connect 12 0 5 0;
#X connect 13 0 2 0;
#X connect 14 0 6 0;
#X connect 15 0 6 1;
#X restore 260 417 pd sinsum;
#X obj 80 140 unpack 0 0 0 0 0 0 0 0;
#X obj 55 257 line;
#X obj 417 262 line;
#X obj 138 235 line;
#X obj 417 241 pack 0 500;
#X obj 191 280 line;
#X obj 192 255 pack 0 500;
#X obj 55 236 pack 0 500;
#X obj 138 213 pack 0 500;
#X obj 281 261 line;
#X obj 281 240 pack 0 500;
#X obj 340 302 line;
#X obj 340 281 pack 0 500;
#X obj 506 260 line;
#X obj 506 239 pack 0 500;
#X obj 585 265 line;
#X obj 585 244 pack 0 500;
#X obj 45 338 osc~ 512;
#X obj 114 302 osc~ 1040;
#X obj 191 340 osc~ 1568;
#X obj 244 305 osc~ 2080;
#X obj 324 331 osc~ 2640;
#X obj 419 321 osc~ 3136;
#X obj 500 339 osc~ 3728;
#X obj 576 307 osc~ 4176;
#X obj 618 378 *~ 1;
#X obj 509 377 *~ 1;
#X obj 433 375 *~ 1;
#X obj 356 374 *~ 1;
#X obj 273 373 *~ 1;
#X obj 204 373 *~ 1;
#X obj 142 372 *~ 1;
#X obj 64 373 *~ 1;
#X obj 325 90 r q;
#X obj 281 89 inlet;
#X text 111 82 Harmonics Blinkychime4;
#X obj 66 104 list split 48;
#X text 479 123 A MINOR PENTATONIC;
#X obj 329 143 unpack 55 65.4 73.4 82.4 98 110 164 220;
#X obj 65 55 t l l;
#X obj 65 76 outlet;
#X obj 286 121 list split 40;
#X connect 1 0 42 0;
#X connect 2 0 0 0;
#X connect 3 0 10 0;
#X connect 3 1 11 0;
#X connect 3 2 9 0;
#X connect 3 3 13 0;
#X connect 3 4 15 0;
#X connect 3 5 7 0;
#X connect 3 6 17 0;
#X connect 3 7 19 0;
#X connect 4 0 35 1;
#X connect 5 0 30 1;
#X connect 6 0 34 1;
#X connect 7 0 5 0;
#X connect 8 0 33 1;
#X connect 9 0 8 0;
#X connect 10 0 4 0;
#X connect 11 0 6 0;
#X connect 12 0 32 1;
#X connect 13 0 12 0;
#X connect 14 0 31 1;
#X connect 15 0 14 0;
#X connect 16 0 29 1;
#X connect 17 0 16 0;
#X connect 18 0 28 1;
#X connect 19 0 18 0;
#X connect 20 0 35 0;
#X connect 21 0 34 0;
#X connect 22 0 33 0;
#X connect 23 0 32 0;
#X connect 24 0 31 0;
#X connect 25 0 30 0;
#X connect 26 0 29 0;
#X connect 27 0 28 0;
#X connect 28 0 2 7;
#X connect 29 0 2 6;
#X connect 30 0 2 5;
#X connect 31 0 2 4;
#X connect 32 0 2 3;
#X connect 33 0 2 2;
#X connect 34 0 2 1;
#X connect 35 0 2 0;
#X connect 36 0 44 0;
#X connect 37 0 44 0;
#X connect 39 1 3 0;
#X connect 41 0 20 0;
#X connect 41 1 21 0;
#X connect 41 2 22 0;
#X connect 41 3 23 0;
#X connect 41 4 24 0;
#X connect 41 5 25 0;
#X connect 41 6 26 0;
#X connect 41 7 27 0;
#X connect 42 0 43 0;
#X connect 42 1 39 0;
#X connect 44 1 41 0;
#X restore 62 381 pd sixthset;
#X text 79 315 Am penta;
#X obj 172 311 r c;
#N canvas 172 56 752 571 fifthset 0;
#X obj 262 476 outlet~;
#X obj 65 34 inlet;
#N canvas 500 107 450 300 sinsum 0;
#X obj 96 92 +~;
#X obj 75 70 +~;
#X obj 182 91 +~;
#X obj 135 143 +~;
#X obj 113 116 +~;
#X obj 158 117 +~;
#X obj 203 67 +~;
#X obj 134 166 outlet~;
#X obj 64 17 inlet~;
#X obj 71 37 inlet~;
#X obj 117 16 inlet~;
#X obj 124 36 inlet~;
#X obj 207 12 inlet~;
#X obj 214 32 inlet~;
#X obj 255 12 inlet~;
#X obj 262 32 inlet~;
#X connect 0 0 4 0;
#X connect 1 0 0 0;
#X connect 2 0 5 1;
#X connect 3 0 7 0;
#X connect 4 0 3 0;
#X connect 5 0 3 1;
#X connect 6 0 2 1;
#X connect 8 0 1 0;
#X connect 9 0 1 1;
#X connect 10 0 0 1;
#X connect 11 0 4 1;
#X connect 12 0 5 0;
#X connect 13 0 2 0;
#X connect 14 0 6 0;
#X connect 15 0 6 1;
#X restore 260 417 pd sinsum;
#X obj 80 140 unpack 0 0 0 0 0 0 0 0;
#X obj 55 257 line;
#X obj 417 262 line;
#X obj 138 235 line;
#X obj 417 241 pack 0 500;
#X obj 191 280 line;
#X obj 192 255 pack 0 500;
#X obj 55 236 pack 0 500;
#X obj 138 213 pack 0 500;
#X obj 281 261 line;
#X obj 281 240 pack 0 500;
#X obj 340 302 line;
#X obj 340 281 pack 0 500;
#X obj 506 260 line;
#X obj 506 239 pack 0 500;
#X obj 585 265 line;
#X obj 585 244 pack 0 500;
#X obj 45 338 osc~ 512;
#X obj 114 302 osc~ 1040;
#X obj 191 340 osc~ 1568;
#X obj 244 305 osc~ 2080;
#X obj 324 331 osc~ 2640;
#X obj 419 321 osc~ 3136;
#X obj 500 339 osc~ 3728;
#X obj 576 307 osc~ 4176;
#X obj 618 378 *~ 1;
#X obj 509 377 *~ 1;
#X obj 433 375 *~ 1;
#X obj 356 374 *~ 1;
#X obj 273 373 *~ 1;
#X obj 204 373 *~ 1;
#X obj 142 372 *~ 1;
#X obj 64 373 *~ 1;
#X obj 325 90 r q;
#X obj 281 89 inlet;
#X text 111 82 Harmonics Blinkychime4;
#X text 479 123 A MINOR PENTATONIC;
#X obj 329 143 unpack 55 65.4 73.4 82.4 98 110 164 220;
#X obj 65 55 t l l;
#X obj 65 76 outlet;
#X obj 286 121 list split 32;
#X obj 66 104 list split 40;
#X connect 1 0 41 0;
#X connect 2 0 0 0;
#X connect 3 0 10 0;
#X connect 3 1 11 0;
#X connect 3 2 9 0;
#X connect 3 3 13 0;
#X connect 3 4 15 0;
#X connect 3 5 7 0;
#X connect 3 6 17 0;
#X connect 3 7 19 0;
#X connect 4 0 35 1;
#X connect 5 0 30 1;
#X connect 6 0 34 1;
#X connect 7 0 5 0;
#X connect 8 0 33 1;
#X connect 9 0 8 0;
#X connect 10 0 4 0;
#X connect 11 0 6 0;
#X connect 12 0 32 1;
#X connect 13 0 12 0;
#X connect 14 0 31 1;
#X connect 15 0 14 0;
#X connect 16 0 29 1;
#X connect 17 0 16 0;
#X connect 18 0 28 1;
#X connect 19 0 18 0;
#X connect 20 0 35 0;
#X connect 21 0 34 0;
#X connect 22 0 33 0;
#X connect 23 0 32 0;
#X connect 24 0 31 0;
#X connect 25 0 30 0;
#X connect 26 0 29 0;
#X connect 27 0 28 0;
#X connect 28 0 2 7;
#X connect 29 0 2 6;
#X connect 30 0 2 5;
#X connect 31 0 2 4;
#X connect 32 0 2 3;
#X connect 33 0 2 2;
#X connect 34 0 2 1;
#X connect 35 0 2 0;
#X connect 36 0 43 0;
#X connect 37 0 43 0;
#X connect 40 0 20 0;
#X connect 40 1 21 0;
#X connect 40 2 22 0;
#X connect 40 3 23 0;
#X connect 40 4 24 0;
#X connect 40 5 25 0;
#X connect 40 6 26 0;
#X connect 40 7 27 0;
#X connect 41 0 42 0;
#X connect 41 1 44 0;
#X connect 43 1 40 0;
#X connect 44 1 3 0;
#X restore 91 333 pd fifthset;
#N canvas 172 56 752 571 seventhset 0;
#X obj 262 476 outlet~;
#X obj 65 34 inlet;
#N canvas 500 107 450 300 sinsum 0;
#X obj 96 92 +~;
#X obj 75 70 +~;
#X obj 182 91 +~;
#X obj 135 143 +~;
#X obj 113 116 +~;
#X obj 158 117 +~;
#X obj 203 67 +~;
#X obj 134 166 outlet~;
#X obj 64 17 inlet~;
#X obj 71 37 inlet~;
#X obj 117 16 inlet~;
#X obj 124 36 inlet~;
#X obj 207 12 inlet~;
#X obj 214 32 inlet~;
#X obj 255 12 inlet~;
#X obj 262 32 inlet~;
#X connect 0 0 4 0;
#X connect 1 0 0 0;
#X connect 2 0 5 1;
#X connect 3 0 7 0;
#X connect 4 0 3 0;
#X connect 5 0 3 1;
#X connect 6 0 2 1;
#X connect 8 0 1 0;
#X connect 9 0 1 1;
#X connect 10 0 0 1;
#X connect 11 0 4 1;
#X connect 12 0 5 0;
#X connect 13 0 2 0;
#X connect 14 0 6 0;
#X connect 15 0 6 1;
#X restore 260 417 pd sinsum;
#X obj 80 140 unpack 0 0 0 0 0 0 0 0;
#X obj 55 257 line;
#X obj 417 262 line;
#X obj 138 235 line;
#X obj 417 241 pack 0 500;
#X obj 191 280 line;
#X obj 192 255 pack 0 500;
#X obj 55 236 pack 0 500;
#X obj 138 213 pack 0 500;
#X obj 281 261 line;
#X obj 281 240 pack 0 500;
#X obj 340 302 line;
#X obj 340 281 pack 0 500;
#X obj 506 260 line;
#X obj 506 239 pack 0 500;
#X obj 585 265 line;
#X obj 585 244 pack 0 500;
#X obj 45 338 osc~ 512;
#X obj 114 302 osc~ 1040;
#X obj 191 340 osc~ 1568;
#X obj 244 305 osc~ 2080;
#X obj 324 331 osc~ 2640;
#X obj 419 321 osc~ 3136;
#X obj 500 339 osc~ 3728;
#X obj 576 307 osc~ 4176;
#X obj 618 378 *~ 1;
#X obj 509 377 *~ 1;
#X obj 433 375 *~ 1;
#X obj 356 374 *~ 1;
#X obj 273 373 *~ 1;
#X obj 204 373 *~ 1;
#X obj 142 372 *~ 1;
#X obj 64 373 *~ 1;
#X obj 325 90 r q;
#X obj 281 89 inlet;
#X text 111 82 Harmonics Blinkychime4;
#X text 479 123 A MINOR PENTATONIC;
#X obj 329 143 unpack 55 65.4 73.4 82.4 98 110 164 220;
#X obj 65 55 t l l;
#X obj 65 76 outlet;
#X obj 286 121 list split 48;
#X obj 66 104 list split 56;
#X connect 1 0 41 0;
#X connect 2 0 0 0;
#X connect 3 0 10 0;
#X connect 3 1 11 0;
#X connect 3 2 9 0;
#X connect 3 3 13 0;
#X connect 3 4 15 0;
#X connect 3 5 7 0;
#X connect 3 6 17 0;
#X connect 3 7 19 0;
#X connect 4 0 35 1;
#X connect 5 0 30 1;
#X connect 6 0 34 1;
#X connect 7 0 5 0;
#X connect 8 0 33 1;
#X connect 9 0 8 0;
#X connect 10 0 4 0;
#X connect 11 0 6 0;
#X connect 12 0 32 1;
#X connect 13 0 12 0;
#X connect 14 0 31 1;
#X connect 15 0 14 0;
#X connect 16 0 29 1;
#X connect 17 0 16 0;
#X connect 18 0 28 1;
#X connect 19 0 18 0;
#X connect 20 0 35 0;
#X connect 21 0 34 0;
#X connect 22 0 33 0;
#X connect 23 0 32 0;
#X connect 24 0 31 0;
#X connect 25 0 30 0;
#X connect 26 0 29 0;
#X connect 27 0 28 0;
#X connect 28 0 2 7;
#X connect 29 0 2 6;
#X connect 30 0 2 5;
#X connect 31 0 2 4;
#X connect 32 0 2 3;
#X connect 33 0 2 2;
#X connect 34 0 2 1;
#X connect 35 0 2 0;
#X connect 36 0 43 0;
#X connect 37 0 43 0;
#X connect 40 0 20 0;
#X connect 40 1 21 0;
#X connect 40 2 22 0;
#X connect 40 3 23 0;
#X connect 40 4 24 0;
#X connect 40 5 25 0;
#X connect 40 6 26 0;
#X connect 40 7 27 0;
#X connect 41 0 42 0;
#X connect 41 1 44 0;
#X connect 43 1 40 0;
#X connect 44 1 3 0;
#X restore 62 462 pd seventhset;
#N canvas 172 56 752 571 eighthset 0;
#X obj 262 476 outlet~;
#X obj 65 34 inlet;
#N canvas 500 107 450 300 sinsum 0;
#X obj 96 92 +~;
#X obj 75 70 +~;
#X obj 182 91 +~;
#X obj 135 143 +~;
#X obj 113 116 +~;
#X obj 158 117 +~;
#X obj 203 67 +~;
#X obj 134 166 outlet~;
#X obj 64 17 inlet~;
#X obj 71 37 inlet~;
#X obj 117 16 inlet~;
#X obj 124 36 inlet~;
#X obj 207 12 inlet~;
#X obj 214 32 inlet~;
#X obj 255 12 inlet~;
#X obj 262 32 inlet~;
#X connect 0 0 4 0;
#X connect 1 0 0 0;
#X connect 2 0 5 1;
#X connect 3 0 7 0;
#X connect 4 0 3 0;
#X connect 5 0 3 1;
#X connect 6 0 2 1;
#X connect 8 0 1 0;
#X connect 9 0 1 1;
#X connect 10 0 0 1;
#X connect 11 0 4 1;
#X connect 12 0 5 0;
#X connect 13 0 2 0;
#X connect 14 0 6 0;
#X connect 15 0 6 1;
#X restore 260 417 pd sinsum;
#X obj 80 140 unpack 0 0 0 0 0 0 0 0;
#X obj 55 257 line;
#X obj 417 262 line;
#X obj 138 235 line;
#X obj 417 241 pack 0 500;
#X obj 191 280 line;
#X obj 192 255 pack 0 500;
#X obj 55 236 pack 0 500;
#X obj 138 213 pack 0 500;
#X obj 281 261 line;
#X obj 281 240 pack 0 500;
#X obj 340 302 line;
#X obj 340 281 pack 0 500;
#X obj 506 260 line;
#X obj 506 239 pack 0 500;
#X obj 585 265 line;
#X obj 585 244 pack 0 500;
#X obj 45 338 osc~ 512;
#X obj 114 302 osc~ 1040;
#X obj 191 340 osc~ 1568;
#X obj 244 305 osc~ 2080;
#X obj 324 331 osc~ 2640;
#X obj 419 321 osc~ 3136;
#X obj 500 339 osc~ 3728;
#X obj 576 307 osc~ 4176;
#X obj 618 378 *~ 1;
#X obj 509 377 *~ 1;
#X obj 433 375 *~ 1;
#X obj 356 374 *~ 1;
#X obj 273 373 *~ 1;
#X obj 204 373 *~ 1;
#X obj 142 372 *~ 1;
#X obj 64 373 *~ 1;
#X obj 325 90 r q;
#X obj 281 89 inlet;
#X text 111 82 Harmonics Blinkychime4;
#X text 479 123 A MINOR PENTATONIC;
#X obj 329 143 unpack 55 65.4 73.4 82.4 98 110 164 220;
#X obj 65 55 t l l;
#X obj 65 76 outlet;
#X obj 286 121 list split 56;
#X obj 66 104 list split 64;
#X connect 1 0 41 0;
#X connect 2 0 0 0;
#X connect 3 0 10 0;
#X connect 3 1 11 0;
#X connect 3 2 9 0;
#X connect 3 3 13 0;
#X connect 3 4 15 0;
#X connect 3 5 7 0;
#X connect 3 6 17 0;
#X connect 3 7 19 0;
#X connect 4 0 35 1;
#X connect 5 0 30 1;
#X connect 6 0 34 1;
#X connect 7 0 5 0;
#X connect 8 0 33 1;
#X connect 9 0 8 0;
#X connect 10 0 4 0;
#X connect 11 0 6 0;
#X connect 12 0 32 1;
#X connect 13 0 12 0;
#X connect 14 0 31 1;
#X connect 15 0 14 0;
#X connect 16 0 29 1;
#X connect 17 0 16 0;
#X connect 18 0 28 1;
#X connect 19 0 18 0;
#X connect 20 0 35 0;
#X connect 21 0 34 0;
#X connect 22 0 33 0;
#X connect 23 0 32 0;
#X connect 24 0 31 0;
#X connect 25 0 30 0;
#X connect 26 0 29 0;
#X connect 27 0 28 0;
#X connect 28 0 2 7;
#X connect 29 0 2 6;
#X connect 30 0 2 5;
#X connect 31 0 2 4;
#X connect 32 0 2 3;
#X connect 33 0 2 2;
#X connect 34 0 2 1;
#X connect 35 0 2 0;
#X connect 36 0 43 0;
#X connect 37 0 43 0;
#X connect 40 0 20 0;
#X connect 40 1 21 0;
#X connect 40 2 22 0;
#X connect 40 3 23 0;
#X connect 40 4 24 0;
#X connect 40 5 25 0;
#X connect 40 6 26 0;
#X connect 40 7 27 0;
#X connect 41 0 42 0;
#X connect 41 1 44 0;
#X connect 43 1 40 0;
#X connect 44 1 3 0;
#X restore 67 553 pd eighthset;
#N canvas 0 22 450 300 audiosumL 0;
#X obj 196 213 outlet~;
#X obj 142 54 +~;
#X obj 53 49 +~;
#X obj 91 83 +~;
#X obj 175 18 inlet~;
#X obj 125 18 inlet~;
#X obj 72 18 inlet~;
#X obj 22 18 inlet~;
#X obj 351 53 +~;
#X obj 262 48 +~;
#X obj 300 82 +~;
#X obj 384 17 inlet~;
#X obj 334 17 inlet~;
#X obj 281 17 inlet~;
#X obj 231 17 inlet~;
#X obj 201 97 +~;
#X connect 1 0 3 1;
#X connect 2 0 3 0;
#X connect 3 0 15 0;
#X connect 4 0 1 1;
#X connect 5 0 1 0;
#X connect 6 0 2 1;
#X connect 7 0 2 0;
#X connect 8 0 10 1;
#X connect 9 0 10 0;
#X connect 10 0 15 1;
#X connect 11 0 8 1;
#X connect 12 0 8 0;
#X connect 13 0 9 1;
#X connect 14 0 9 0;
#X connect 15 0 0 0;
#X restore 96 39 pd audiosumL;
#X obj 96 63 outlet~;
#N canvas 0 22 450 300 audiosumR 0;
#X obj 196 213 outlet~;
#X obj 142 54 +~;
#X obj 53 49 +~;
#X obj 91 83 +~;
#X obj 175 18 inlet~;
#X obj 125 18 inlet~;
#X obj 72 18 inlet~;
#X obj 22 18 inlet~;
#X obj 351 53 +~;
#X obj 262 48 +~;
#X obj 300 82 +~;
#X obj 384 17 inlet~;
#X obj 334 17 inlet~;
#X obj 281 17 inlet~;
#X obj 231 17 inlet~;
#X obj 201 97 +~;
#X connect 1 0 3 1;
#X connect 2 0 3 0;
#X connect 3 0 15 0;
#X connect 4 0 1 1;
#X connect 5 0 1 0;
#X connect 6 0 2 1;
#X connect 7 0 2 0;
#X connect 8 0 10 1;
#X connect 9 0 10 0;
#X connect 10 0 15 1;
#X connect 11 0 8 1;
#X connect 12 0 8 0;
#X connect 13 0 9 1;
#X connect 14 0 9 0;
#X connect 15 0 0 0;
#X restore 42 95 pd audiosumR;
#X obj 412 241 *~;
#X obj 418 155 *~;
#X obj 450 190 *~;
#X obj 401 389 *~;
#X obj 399 296 *~;
#X obj 399 337 *~;
#X obj 476 158 hsl 170 30 0.0001 1 1 1 vset1 empty empty -2 -8 0 10
-68224 -1 -1 5400 1;
#X obj 398 450 *~;
#X text 354 158 bass;
#X obj 457 214 hsl 170 30 0.0001 1 1 1 vset1 empty empty -2 -8 0 10
-68224 -1 -1 2900 1;
#X obj 428 264 hsl 170 30 0.0001 1 1 1 vset1 empty empty -2 -8 0 10
-68224 -1 -1 12300 1;
#X obj 433 307 hsl 170 30 0.0001 1 1 1 vset1 empty empty -2 -8 0 10
-68224 -1 -1 8800 1;
#X obj 433 357 hsl 170 30 0.0001 1 1 1 vset1 empty empty -2 -8 0 10
-68224 -1 -1 8800 1;
#X obj 453 104 hsl 170 30 0.0001 1 1 1 vset1 empty empty -2 -8 0 10
-68224 -1 -1 12500 1;
#X obj 432 412 hsl 170 30 0.0001 1 1 1 vset1 empty empty -2 -8 0 10
-68224 -1 -1 7000 1;
#X connect 0 0 7 0;
#X connect 0 1 35 0;
#X connect 1 0 0 0;
#X connect 3 0 4 0;
#X connect 4 0 0 0;
#X connect 5 0 6 0;
#X connect 5 1 34 0;
#X connect 6 0 28 0;
#X connect 6 1 38 0;
#X connect 7 0 5 0;
#X connect 7 1 36 0;
#X connect 12 0 14 0;
#X connect 13 0 6 1;
#X connect 15 0 5 1;
#X connect 16 0 7 1;
#X connect 17 0 0 1;
#X connect 20 0 30 1;
#X connect 22 0 29 1;
#X connect 24 0 25 1;
#X connect 25 0 29 0;
#X connect 25 1 37 0;
#X connect 27 0 28 1;
#X connect 28 0 25 0;
#X connect 28 1 39 0;
#X connect 29 0 30 0;
#X connect 30 1 41 0;
#X connect 31 0 32 0;
#X connect 33 0 2 0;
#X connect 35 0 33 1;
#X connect 35 0 31 6;
#X connect 36 0 33 5;
#X connect 38 0 31 3;
#X connect 40 0 36 1;
#X connect 41 0 31 5;
#X connect 43 0 34 0;
#X connect 44 0 38 0;
#X connect 45 0 39 1;
#X connect 46 0 37 1;
#X connect 47 0 35 1;
#X connect 48 0 41 1;
#X restore 23 170 pd blinkyharmonics;
#N canvas 550 111 474 486 Strogatz 0;
#X obj 297 127 *;
#X obj 296 107 *;
#X obj 286 264 bp~;
#X obj 286 281 dac~;
#X obj 241 215 dbtorms;
#X obj 244 232 *~ 0;
#X text 149 248 Glissando;
#X obj 290 91 t b f;
#X obj 236 91 r X val;
#X obj 337 94 * -1;
#X obj 337 111 + 1;
#X obj 51 185 s X val;
#X obj 296 249 r bp;
#X obj 126 363 s bp;
#X text 96 105 Delay;
#X obj 314 143 s gliss;
#X obj 112 265 r gliss;
#N canvas 462 478 630 312 controller 1;
#X obj 47 128 hsl 330 20 0 1 0 1 X Xin empty -2 -8 0 10 -45076 -261234
-1 7 0;
#X obj 44 56 hsl 330 20 2.9 4 0 1 Rval Rin empty -2 -8 0 10 -45076
-261234 -1 30806 0;
#X obj 49 198 hsl 330 20 110 30000 1 1 Freq Freqin empty -2 -8 0 10
-45076 -261234 -1 30521 0;
#X obj 49 267 hsl 330 20 11 7000 0 1 grain grainin empty -2 -8 0 10
-45076 -261234 -1 23485 0;
#X text 225 39 2 < R < 4;
#X floatatom 321 111 8 0 0 0 - X -;
#X text 226 113 0 < X(0) < 1;
#X text 58 289 Graininess;
#X floatatom 323 250 8 0 0 0 - grain -;
#X floatatom 323 181 8 0 0 0 - Freq -;
#X text 56 220 Freq. Center;
#X text 70 39 |Chaotic ->;
#X text 462 37 Band-Pass Q;
#X obj 399 56 hsl 200 30 20 1200 0 1 qball qst empty -2 -8 0 10 -86853
-260097 -1 0 0;
#X obj 555 141 vsl 30 128 0 127 0 1 Vol Volin empty 0 -9 0 10 -86853
-260097 -1 5100 0;
#X text 549 276 Noise;
#X obj 465 141 vsl 30 128 0 127 0 1 Volsaw Volsawin empty 0 -9 0 10
-86853 -260097 -1 0 0;
#X text 462 276 Saw;
#X text 473 121 Tone Generator;
#X text 501 135 Volume;
#X obj 436 158 vsl 15 100 1 200 1 1 sfq sawvol empty 0 -9 0 10 -83269
-260097 -1 9400 0;
#X text 69 77 |3;
#X text 260 148 |2/3;
#X text 107 149 |.2;
#X text 316 77 |3.8282;
#X floatatom 318 39 8 0 0 0 - Rval -;
#X text 202 77 |3.4495;
#X text 206 148 |.5;
#X text 172 148 |.4;
#X text 415 137 Freq.;
#X text 529 156 ___;
#X text 497 187 ___;
#X text 417 232 __;
#X restore 54 38 pd controller;
#X obj 52 87 r ray;
#X obj 84 318 ==;
#X obj 84 336 s ray;
#X obj 268 143 s disc;
#X obj 100 148 r disc;
#X obj 52 107 sel 1;
#X obj 50 164 f 1;
#X obj 125 343 line 100 10;
#X obj 125 325 pack 100 1000;
#X obj 50 145 spigot;
#X obj 290 73 r Rval;
#X obj 338 73 r X;
#X obj 51 127 del 10;
#X obj 175 308 r grain;
#X obj 167 265 r Freq;
#X text 219 51 X(n+1) = R X(n) (1 - X(n));
#X text 216 36 Discrete Logistic Equation;
#X obj 241 197 r Vol;
#X obj 330 249 r qball;
#X obj 100 129 r Rin;
#X text 189 200 Noise;
#X obj 267 248 +~;
#X obj 355 215 dbtorms;
#X obj 285 231 *~ 0;
#X obj 302 213 phasor~;
#X obj 349 197 r Volsaw;
#X text 350 180 Saw;
#X floatatom 53 59 8 0 0 0 - bp -;
#X obj 193 215 noise~;
#X obj 276 179 r bp;
#X obj 302 195 / 10;
#X obj 309 179 r sfq;
#X text 313 266 <- band-pass;
#X obj 125 302 * 1000;
#X connect 0 0 15 0;
#X connect 0 0 21 0;
#X connect 1 0 0 0;
#X connect 2 0 3 1;
#X connect 2 0 3 0;
#X connect 4 0 5 1;
#X connect 5 0 39 0;
#X connect 7 0 1 0;
#X connect 7 1 1 1;
#X connect 8 0 1 0;
#X connect 9 0 10 0;
#X connect 10 0 0 1;
#X connect 12 0 2 1;
#X connect 16 0 51 0;
#X connect 18 0 23 0;
#X connect 19 0 20 0;
#X connect 22 0 24 1;
#X connect 23 0 30 0;
#X connect 24 0 11 0;
#X connect 25 0 13 0;
#X connect 25 0 19 0;
#X connect 26 0 25 0;
#X connect 27 0 24 0;
#X connect 28 0 7 0;
#X connect 29 0 9 0;
#X connect 30 0 27 0;
#X connect 31 0 26 1;
#X connect 32 0 51 1;
#X connect 35 0 4 0;
#X connect 36 0 2 2;
#X connect 37 0 27 1;
#X connect 39 0 2 0;
#X connect 40 0 41 1;
#X connect 41 0 39 1;
#X connect 42 0 41 0;
#X connect 43 0 40 0;
#X connect 46 0 5 0;
#X connect 47 0 48 0;
#X connect 48 0 42 0;
#X connect 49 0 48 1;
#X connect 51 0 19 1;
#X connect 51 0 26 0;
#X restore 42 227 pd Strogatz;
#X obj 26 65 t l l l;
#N canvas 299 358 450 300 Lsum 0;
#X obj 154 15 inlet;
#X obj 153 78 list split 2;
#X obj 154 104 +;
#X obj 168 127 list;
#X obj 206 169 list length;
#X obj 206 191 == 1;
#X obj 168 214 spigot;
#X obj 168 150 t l l;
#X obj 168 238 outlet;
#X obj 153 37 list split 300;
#X text 269 40 <- for overflow;
#X connect 0 0 9 0;
#X connect 1 0 2 0;
#X connect 1 1 3 1;
#X connect 2 0 3 0;
#X connect 3 0 1 0;
#X connect 3 0 7 0;
#X connect 4 0 5 0;
#X connect 5 0 6 1;
#X connect 6 0 8 0;
#X connect 7 0 6 0;
#X connect 7 1 4 0;
#X connect 9 0 1 0;
#X connect 9 2 1 0;
#X restore 225 59 pd Lsum;
#X obj 225 84 t f f;
#N canvas 262 492 463 268 (subpatch) 0;
#X obj 177 181 outlet~;
#X obj 177 156 bp~;
#X obj 184 56 inlet;
#X obj 285 141 r bandpassq;
#X obj 123 55 inlet~;
#X obj 185 133 line 55 500;
#X obj 184 106 pack 55 100;
#X obj 260 172 s bandpassm;
#X obj 285 48 hsl 118 30 1.27 127 1 1 bandpassq empty empty -2 -8 0
10 -232576 -1 -1 4200 1;
#X text 314 30 bandpass Q;
#X floatatom 362 90 5 0 0 0 - bandpassm -;
#X text 305 89 center;
#X floatatom 227 56 5 0 0 0 - - -;
#X obj 184 83 * 18;
#X connect 1 0 0 0;
#X connect 2 0 13 0;
#X connect 3 0 1 2;
#X connect 4 0 1 0;
#X connect 5 0 1 1;
#X connect 5 0 7 0;
#X connect 6 0 5 0;
#X connect 12 0 13 1;
#X connect 13 0 6 0;
#X restore 103 119 pd 12 tone filterL;
#N canvas 105 292 853 457 popular 0;
#X obj 87 162 unpack 0 0 0 0 0 0 0 0;
#X msg 391 45 0 0 1 1 0 1 1 0;
#X obj 55 216 s r111;
#X obj 108 218 s r110;
#X obj 162 219 s r101;
#X obj 215 221 s r100;
#X obj 269 221 s r011;
#X obj 322 223 s r010;
#X obj 382 223 s r001;
#X msg 466 87 0 0 0 1 0 0 1 0;
#X text 733 206 90 \, 18 serp 1;
#X msg 460 106 0 0 0 1 1 1 1 0;
#X text 733 234 30 chaotic;
#X msg 470 125 0 0 1 0 1 1 0 1;
#X text 734 264 45 chaotic;
#X obj 445 223 s r000;
#X msg 473 146 0 0 1 1 1 1 0 0;
#X text 736 297 60 serp 2;
#X msg 31 42 1 0 0 1 0 1 1 0;
#X text 730 22 150 chaotic;
#X msg 53 63 1 0 1 0 1 0 0 1;
#X msg 72 83 0 1 1 0 0 1 0 1;
#X text 732 83 101;
#X msg 85 103 0 1 1 0 1 0 0 1;
#X text 733 112 105;
#X text 737 144 54;
#X obj 695 -44 vradio 30 1 0 12 rulz empty empty 0 -8 0 10 -204786
-1 -1 0;
#X obj 145 -89 r rulz;
#X text 733 -7 73 chaotic;
#X text 121 21 73 chaotic;
#X text 145 43 150 chaotic;
#X text 732 53 169 rand;
#X text 170 62 169 rand;
#X text 193 83 101;
#X text 203 103 105;
#X text 512 45 54;
#X text 584 87 90 \, 18 serp 1;
#X text 578 107 30 chaotic;
#X text 588 125 45 chaotic;
#X text 589 146 60 serp 2;
#X text 865 182 20 rand;
#X text 864 214 90 \, 18 serp 1;
#X text 864 242 30 chaotic;
#X text 865 272 45 chaotic;
#X text 867 305 60 serp 2;
#X text 861 1 135 chaotic;
#X text 861 30 150 chaotic;
#X text 863 91 101;
#X text 864 120 105;
#X text 868 152 54;
#X text 863 -31 73 chaotic;
#X text 863 61 169 rand;
#X obj 109 -65 sel 0 1 2 3 4 5 6 7 8 9 10 11;
#X msg 418 67 1 0 0 1 1 0 1 0;
#X text 535 68 sierpinski 164;
#X text 734 174 164 seir;
#X text 731 -37 122 chaotic;
#X text 105 -1 122 chaotic;
#X msg 6 21 0 1 0 0 1 0 0 1;
#X msg -14 0 0 1 1 1 1 0 1 0;
#X connect 0 0 2 0;
#X connect 0 1 3 0;
#X connect 0 2 4 0;
#X connect 0 3 5 0;
#X connect 0 4 6 0;
#X connect 0 5 7 0;
#X connect 0 6 8 0;
#X connect 0 7 15 0;
#X connect 1 0 0 0;
#X connect 9 0 0 0;
#X connect 11 0 0 0;
#X connect 13 0 0 0;
#X connect 16 0 0 0;
#X connect 18 0 0 0;
#X connect 20 0 0 0;
#X connect 21 0 0 0;
#X connect 23 0 0 0;
#X connect 27 0 52 0;
#X connect 52 0 59 0;
#X connect 52 1 58 0;
#X connect 52 2 18 0;
#X connect 52 3 20 0;
#X connect 52 4 21 0;
#X connect 52 5 23 0;
#X connect 52 6 1 0;
#X connect 52 7 53 0;
#X connect 52 8 9 0;
#X connect 52 9 11 0;
#X connect 52 10 13 0;
#X connect 52 11 16 0;
#X connect 53 0 0 0;
#X connect 58 0 0 0;
#X connect 59 0 0 0;
#X restore 42 251 pd popular rules;
#N canvas 125 65 582 312 song 0;
#X obj 70 122 s melodyin;
#X obj 128 148 s print;
#X obj 128 168 s temp;
#X obj 128 187 s q;
#X obj 184 134 s harmon;
#X obj 102 17 loadbang;
#X obj 26 85 inlet;
#X text 112 208 12 tone 1;
#X text 112 221 Gui-bot 2..4;
#X text 112 234 blinkyharmonics 5;
#X obj 275 159 s qst;
#X obj 261 180 s Volin;
#X obj 262 201 s Volsawin;
#X obj 262 222 s Freqin;
#X obj 344 203 s Rin;
#X obj 344 184 s Xin;
#X obj 343 222 s grainin;
#X text 113 248 strogatz 6..12;
#X text 317 268 entoptic lights;
#X text 391 22 space charge;
#X text 317 254 gasm;
#X text 317 282 holonomy drive & the dyson sphere;
#X obj 383 155 s seedy;
#X text 112 262 Gui-bot 13;
#X text 115 278 rules 14..21;
#N canvas 321 334 450 300 rulego 0;
#X obj 382 76 inlet;
#X obj 338 76 inlet;
#X obj 295 75 inlet;
#X obj 251 75 inlet;
#X obj 208 74 inlet;
#X obj 164 74 inlet;
#X obj 121 73 inlet;
#X obj 77 73 inlet;
#X obj 17 112 s r000;
#X obj 70 114 s r001;
#X obj 120 117 s r010;
#X obj 172 120 s r011;
#X obj 224 121 s r100;
#X obj 279 120 s r101;
#X obj 330 120 s r110;
#X obj 382 119 s r111;
#X connect 0 0 15 0;
#X connect 1 0 14 0;
#X connect 2 0 13 0;
#X connect 3 0 12 0;
#X connect 4 0 11 0;
#X connect 5 0 10 0;
#X connect 6 0 9 0;
#X connect 7 0 8 0;
#X restore 440 128 pd rulego;
#X msg 102 39 0 37 980 0 0 20 51 0 20000 3.92999 0.0002 5000 0 0 1
0 1 1 1 1 0;
#X obj 70 100 unpack 0 37 980 0 0 20 51 0 20000 3.92999 0.666666 5000
0 0 1 0 1 1 1 1 0;
#X connect 5 0 26 0;
#X connect 6 0 27 0;
#X connect 26 0 27 0;
#X connect 27 0 0 0;
#X connect 27 1 1 0;
#X connect 27 2 2 0;
#X connect 27 3 3 0;
#X connect 27 4 4 0;
#X connect 27 5 10 0;
#X connect 27 6 11 0;
#X connect 27 7 12 0;
#X connect 27 8 13 0;
#X connect 27 9 14 0;
#X connect 27 10 15 0;
#X connect 27 11 16 0;
#X connect 27 12 22 0;
#X connect 27 13 25 0;
#X connect 27 14 25 1;
#X connect 27 15 25 2;
#X connect 27 16 25 3;
#X connect 27 17 25 4;
#X connect 27 18 25 5;
#X connect 27 19 25 6;
#X connect 27 20 25 7;
#X restore 42 272 pd song settings;
#N canvas 95 68 844 632 conditions 0;
#X obj 234 36 outlet;
#X obj 63 239 r harmon;
#X obj 63 288 s cond1;
#X obj 127 289 s cond2;
#X obj 245 289 s cond4;
#X obj 183 288 s cond3;
#X obj 380 147 r cond5;
#X obj 62 263 sel 0 1 2 3 4;
#X obj 202 249 s cond5;
#N canvas 0 22 603 487 yo 0;
#X obj 157 54 inlet;
#X msg 157 80 55 58.2705 61.7354 65.4064 69.2957 73.4162 77.7817 82.4069
87.3071 92.4986 97.9989 103.826 110 116.541 123.471 130.813 138.591
146.832 155.563 164.814 174.614 184.997 195.998 207.652 220 233.082
246.942 261.626 277.183 293.665 311.127 329.628 349.228 369.994 391.995
415.305 440 466.164 493.883 523.251 554.365 587.33 622.254 659.255
698.456 739.989 783.991 830.609 880 932.328 987.767 1046.5 1108.73
1174.66 1244.51 1318.51 1396.91 1479.98 1567.98 1661.22 1760 1864.66
1975.53 2093;
#X obj 159 213 s soundz;
#X connect 0 0 1 0;
#X connect 1 0 2 0;
#X restore 379 193 pd yo no se;
#X msg 380 168 bang;
#X msg 272 169 bang;
#X msg 171 164 bang;
#X msg 63 165 bang;
#X msg 66 18 bang;
#X msg 272 79 bang;
#X msg 171 74 bang;
#X msg 63 75 bang;
#N canvas 0 22 603 487 3-tone 0;
#X obj 157 54 inlet;
#X obj 159 213 s soundz;
#X msg 157 80 55 69.2957 87.3071 110 138.591 174.614 220 277.183 349.228
440 554.365 698.456 880 1108.73 1396.91 1760 2217.46 2793.83 3520 4434.92
5587.65 7040 8869.84 11175.3 14080 17739.7 22350.6 28160 35479.4 44701.2
56320 70958.8 89402.4 112640 141918 178805 225280 283835 357610 450560
567670 715220 901120 1.13534e+06 1.43044e+06 1.80224e+06 2.27068e+06
2.86088e+06 3.60448e+06 4.54136e+06 5.72176e+06 7.20896e+06 9.08272e+06
1.14435e+07 1.44179e+07 1.81654e+07 2.2887e+07 2.88358e+07 3.63309e+07
4.5774e+07 5.76717e+07 7.26618e+07 9.15481e+07 1.15343e+08 1.45324e+08
;
#X connect 0 0 2 0;
#X connect 2 0 1 0;
#X restore 271 194 pd 3-tone;
#X obj 272 148 r cond4;
#N canvas 0 22 603 487 (subpatch) 0;
#X obj 157 54 inlet;
#X obj 159 213 s soundz;
#X msg 157 80 55 61 69 77 87 97 110 123 138 155 174 195 220 246 277
311 349 391 440 493 554 622 698 783 880 987 1108 1244 1396 1567 1760
1975 2217 0 0 0 0 0 0 0 0 0 0 0 0 0 0 0 0 0 0 0 0 0 0 0 0 0 0 0 0 0
0 0 0 0 0 0 0 0 0 0 0;
#X connect 0 0 2 0;
#X connect 2 0 1 0;
#X restore 170 189 pd 6 tone;
#X obj 171 143 r cond3;
#N canvas 0 22 603 487 Very 0;
#X obj 157 54 inlet;
#X obj 159 213 s soundz;
#X msg 157 80 73.4 87.3 110 130.8 146.8 220 277 293.6 55 65.4 73.4
82.4 98 110 164 220 8192 16640 25088 33280 42240 50176 59648 66816
0 0 0 0 0 0 0 0 0 0 0 0 0 0 0 0 0 0 0 0 0 0 0 0 0 0 0 0 0 0 0 0 0 0
0 0 0 0 0 0 0 0 0 0 0 0 0 0;
#X connect 0 0 2 0;
#X connect 2 0 1 0;
#X restore 62 190 pd Very High;
#X obj 63 144 r cond2;
#N canvas 0 22 603 487 INITS 0;
#X obj 157 54 inlet;
#X obj 159 213 s soundz;
#X msg 155 128 32.7 65.4 98 130 164.8 196 233 261 0 0 0 0 0 0 0 0 0
0 0 0 0 0 0 0 512 1040 1568 2080 2640 3136 3728 4176 0 0 0 0 0 0 0
0 0 0 0 0 0 0 0 0 0 0 0 0 0 0 0 0 0 0 0 0 0 0 0 0 0 0 0 0 0 0 0 0;
#X connect 0 0 2 0;
#X connect 2 0 1 0;
#X restore 65 43 pd INITS;
#N canvas 25 65 603 487 phi3 0;
#X obj 157 54 inlet;
#X obj 159 213 s soundz;
#X msg 157 80 114.501 119.186 124.062 129.138 134.422 139.922 145.647
151.606 157.81 164.267 170.988 177.984 185.266 192.846 200.737 208.95
217.5 226.399 235.662 245.304 255.341 265.789 276.664 287.984 299.767
312.032 324.799 338.089 351.922 366.321 381.309 396.911 413.151 430.055
447.651 465.967;
#X text 239 203 fillList $take 36 (xentonic 110);
#X connect 0 0 2 0;
#X connect 2 0 1 0;
#X restore 271 104 pd phi3;
#N canvas 624 238 603 487 phi2 0;
#X obj 157 54 inlet;
#X msg 157 80 55 58.2705 61.7354 65.4064 69.2957 73.4162 77.7817 82.4069
87.3071 92.4986 97.9989 103.826 110 116.541 123.471 130.813 138.591
146.832 155.563 164.814 174.614 184.997 195.998 207.652 220 233.082
246.942 261.626 277.183 293.665 311.127 329.628 349.228 369.994 391.995
415.305 440 466.164 493.883 523.251 554.365 587.33 622.254 659.255
698.456 739.989 783.991 830.609 880 932.328 987.767 1046.5 1108.73
1174.66 1244.51 1318.51 1396.91 1479.98 1567.98 1661.22 1760 1864.66
1975.53 2093;
#X obj 159 213 s soundz;
#X connect 0 0 1 0;
#X connect 1 0 2 0;
#X restore 170 99 pd phi2;
#N canvas 621 155 603 487 phi1 0;
#X obj 157 54 inlet;
#X obj 159 213 s soundz;
#X msg 157 80 67.2111 75.8032 82.1333 92.633 108.75 122.652 132.894
149.883 175.961 198.455 215.028 242.516 284.711 321.108 347.922 392.4
460.672 519.563 562.95 634.916 745.382 840.671 910.872 1027.32 1206.05
1360.23 1473.82 1662.23 1951.44 2200.9 2384.69 2689.55 3157.49 3561.14
3858.51 4351.78;
#X text 115 301 fillList $take 36 $pentaskips (xentonic 55);
#X connect 0 0 2 0;
#X connect 2 0 1 0;
#X restore 62 100 pd phi1;
#X obj 233 16 r soundz;
#X msg 575 136 bang;
#N canvas 599 22 609 393 aherem 0;
#X obj 157 54 inlet;
#X obj 157 140 s soundz;
#X msg 157 80 15 35 57.5 81.5 106.5 132.214 158.464 185.131 212.131
239.404 266.904 294.596 322.453 350.453 378.578 406.813 435.147 463.568
492.068 520.639 549.276 577.971 606.721 635.521 664.367 693.256 722.185
751.15 780.15 809.183 838.245 867.336 896.454 925.597 954.763 983.952
;
#X text 193 267 fillList $take 36 (aheremtonic 30);
#X connect 0 0 2 0;
#X connect 2 0 1 0;
#X restore 575 162 pd aherem;
#X msg 589 79 bang;
#N canvas 599 22 609 393 herem 0;
#X obj 157 54 inlet;
#X obj 157 140 s soundz;
#X msg 157 80 300 450 550 625 685 735 777.857 815.357 848.69 878.69
905.963 930.963 954.04 975.469 995.469 1014.22 1031.87 1048.53 1064.32
1079.32 1093.61 1107.24 1120.29 1132.79 1144.79 1156.33 1167.44 1178.15
1188.5 1198.5 1208.17 1217.55 1226.64 1235.46 1244.03 1252.37;
#X text 193 267 fillList $take 36 (heremtonic 300);
#X connect 0 0 2 0;
#X connect 2 0 1 0;
#X restore 585 104 pd herem;
#X msg 381 77 bang;
#N canvas 599 22 609 393 phi 0;
#X obj 157 54 inlet;
#X obj 156 243 s soundz;
#X msg 157 80 361.803 461.803 640.689 1064.3 4274.26 2479.84 -1589.32
-786.823 -531.612 -402.927 -324.824 -272.24 -234.376 -205.792 -183.44
-165.478 -150.726 -138.393 -127.929 -118.937 -111.128 -104.282 -98.2308
-92.8441 -88.0178 -83.6688 -79.7296 -76.1448 -72.8686 -69.8628 -67.0953
-64.5388 -62.1699 -59.9689 -57.9185 -56.0036;
#X text 193 267 fillList $take 36$ map (*100 ) $hSum(hOut phi 2 );
#X connect 0 0 2 0;
#X connect 2 0 1 0;
#X restore 377 102 pd phi 4;
#X msg 706 180 bang;
#N canvas 599 22 609 393 pi 0;
#X obj 157 54 inlet;
#X obj 156 233 s soundz;
#X text 193 267 fillList $take 36 (aheremtonic 30);
#X msg 157 80 414.159 159.464 101.776 75.1522 59.6729 49.5167 42.3295
36.9713 32.8209 29.5104 26.8078 24.5595 22.6596 21.0329 19.6243 18.3928
17.3068 16.342 15.4792 14.7029 14.0009 13.3628 12.7804 12.2467 11.7558
11.3027 10.8833 10.4939 10.1314 9.79313 9.47672 9.18012 8.90152 8.63934
8.39217 8.15875;
#X connect 0 0 3 0;
#X connect 3 0 1 0;
#X restore 706 206 pd pi Out;
#X msg 474 -44 stop;
#X obj 456 7 random 11;
#X obj 456 33 sel 0 1 2 3 4 5 6 7 8 9 10 11;
#X floatatom 415 24 5 0 0 0 - - -;
#X msg 440 -45 bang;
#X obj 456 -18 metro 12000;
#X msg 576 208 bang;
#N canvas 599 22 609 393 Bessel 0;
#X obj 157 54 inlet;
#X obj 156 233 s soundz;
#X msg 157 80 10666.7 6000 3840 2666.67 1959.18 1500 1185.19 960 793.388
666.667 568.047 489.796 426.667 375 332.18 296.296 265.928 240 217.687
198.347 181.474 166.667 153.6 142.012 131.687 122.449 114.15 106.667
99.8959 93.75 88.1543 83.045 78.3673 74.0741 70.1242 66.482;
#X text 193 267 fillList $take 36 $ map (*96000) [1/((n+2)^2)| n<-[1..]]
;
#X connect 0 0 2 0;
#X connect 2 0 1 0;
#X restore 576 234 pd Bessel;
#X connect 1 0 7 0;
#X connect 6 0 10 0;
#X connect 7 0 2 0;
#X connect 7 1 3 0;
#X connect 7 2 5 0;
#X connect 7 4 4 0;
#X connect 7 5 8 0;
#X connect 10 0 9 0;
#X connect 11 0 18 0;
#X connect 12 0 20 0;
#X connect 13 0 22 0;
#X connect 14 0 24 0;
#X connect 15 0 25 0;
#X connect 16 0 26 0;
#X connect 17 0 27 0;
#X connect 19 0 11 0;
#X connect 21 0 12 0;
#X connect 23 0 13 0;
#X connect 28 0 0 0;
#X connect 29 0 30 0;
#X connect 31 0 32 0;
#X connect 33 0 34 0;
#X connect 35 0 36 0;
#X connect 37 0 42 0;
#X connect 38 0 39 0;
#X connect 38 0 40 0;
#X connect 39 0 14 0;
#X connect 39 1 17 0;
#X connect 39 2 16 0;
#X connect 39 3 15 0;
#X connect 39 4 33 0;
#X connect 39 5 13 0;
#X connect 39 6 12 0;
#X connect 39 7 11 0;
#X connect 39 8 10 0;
#X connect 39 9 31 0;
#X connect 39 10 29 0;
#X connect 39 11 35 0;
#X connect 41 0 42 0;
#X connect 42 0 38 0;
#X connect 43 0 44 0;
#X restore 39 295 pd conditions;
#X msg 288 41 bang;
#X obj 289 89 f 1;
#X obj 290 115 + 1;
#X obj 291 136 mod 2;
#X obj 269 161 *~;
#X floatatom 339 175 5 0 0 0 - - -;
#X obj 288 65 metro 12149;
#X connect 0 0 9 0;
#X connect 0 0 2 0;
#X connect 2 0 12 0;
#X connect 5 0 20 0;
#X connect 7 0 4 0;
#X connect 7 1 4 1;
#X connect 9 0 7 0;
#X connect 9 1 5 0;
#X connect 9 2 10 0;
#X connect 10 0 11 0;
#X connect 11 0 12 1;
#X connect 16 0 22 0;
#X connect 17 0 18 0;
#X connect 18 0 19 0;
#X connect 19 0 17 1;
#X connect 19 0 20 1;
#X connect 19 0 21 0;
#X connect 20 0 4 1;
#X connect 22 0 17 0;
