#N canvas 303 80 488 377 12;
#N canvas 814 79 646 348 controller 1;
#X obj -47 123 hsl 330 20 0 1 0 1 X Xin empty -2 -8 0 10 -45076 -261234
-1 21911 0;
#X obj -50 51 hsl 330 20 2.9 4 0 1 Rval Rin empty -2 -8 0 10 -45076
-261234 -1 30806 0;
#X obj -45 193 hsl 330 20 110 30000 1 1 Freq Freqin empty -2 -8 0 10
-45076 -261234 -1 8882 0;
#X text 131 34 2 < R < 4;
#X floatatom 227 106 8 0 0 0 - X -;
#X text 132 108 0 < X(0) < 1;
#X floatatom 229 176 8 0 0 0 - Freq -;
#X text -38 215 Freq. Center;
#X text -24 34 |Chaotic ->;
#X text 44 257 Band-Pass Q;
#X obj -19 276 hsl 200 30 20 1200 0 1 qball qst empty -2 -8 0 10 -86853
-260097 -1 4600 0;
#X obj -168 62 vsl 60 200 0 127 0 1 Vol Volin empty 0 -9 0 10 -86853
-260097 -1 15700 0;
#X text -165 272 Volume;
#X text -25 72 |3;
#X text 166 143 |2/3;
#X text 13 144 |.2;
#X text 222 72 |3.8282;
#X floatatom 224 34 8 0 0 0 - Rval -;
#X text 108 72 |3.4495;
#X text 112 143 |.5;
#X text 78 143 |.4;
#X text -198 90 ___;
#X restore 27 28 pd controller;
#X text 182 50 X(n+1) = R X(n) (1 - X(n));
#X text 179 35 Discrete Logistic Equation;
#X floatatom 40 58 8 0 0 0 - bp -;
#N canvas 1476 321 292 263 soundz 0;
#X obj 91 -89 bp~;
#X obj 69 -43 dac~;
#X obj 123 -164 dbtorms;
#X obj 66 -140 *~ 0;
#X obj 105 -118 r bp;
#X obj 123 -189 r Vol;
#X obj 151 -112 r qball;
#X text 64 -199 Noise;
#X obj 60 -173 noise~;
#X text 118 -87 <- band-pass;
#X connect 0 0 1 1;
#X connect 0 0 1 0;
#X connect 2 0 3 1;
#X connect 3 0 0 0;
#X connect 4 0 0 1;
#X connect 5 0 2 0;
#X connect 6 0 0 2;
#X connect 8 0 3 0;
#X restore 19 160 pd soundz;
#N canvas 794 499 258 263 del 0;
#X obj 111 56 inlet;
#X obj 60 98 f 0;
#X obj 24 33 r bp;
#X obj 61 132 s X val;
#X obj 24 59 delay 10;
#X connect 0 0 1 1;
#X connect 1 0 3 0;
#X connect 2 0 4 0;
#X connect 4 0 1 0;
#X restore 186 111 pd del;
#N canvas 783 729 450 300 inits 0;
#X msg 288 108 \; pd dsp 1;
#X obj -14 33 loadbang;
#X obj -36 124 s qst;
#X obj 66 121 s Freqin;
#X obj 113 151 s Rin;
#X obj 156 122 s Xin;
#X obj 200 140 s grainin;
#X obj 11 126 s Volin;
#X obj 59 33 r reset;
#X msg -11 62 190 99 500 3.92999 0.666 1000 1;
#X obj -15 87 unpack 190 99 500 3.9299 0.666 1000 1;
#X connect 1 0 9 0;
#X connect 8 0 9 0;
#X connect 9 0 10 0;
#X connect 10 0 2 0;
#X connect 10 1 7 0;
#X connect 10 2 3 0;
#X connect 10 3 4 0;
#X connect 10 4 5 0;
#X connect 10 5 6 0;
#X connect 10 6 0 0;
#X restore 20 186 pd inits;
#X obj 20 130 s reset;
#X msg 20 99 bang;
#N canvas 319 494 452 271 equation 0;
#X obj 104 117 *;
#X obj 100 89 *;
#X obj 99 59 t b f;
#X obj 32 57 r X val;
#X obj 153 68 * -1;
#X obj 151 95 + 1;
#X obj 99 29 r Rval;
#X obj 153 41 r X;
#X obj 98 148 outlet;
#X obj 161 146 outlet;
#X connect 0 0 8 0;
#X connect 0 0 9 0;
#X connect 1 0 0 0;
#X connect 2 0 1 0;
#X connect 2 1 1 1;
#X connect 3 0 1 0;
#X connect 4 0 5 0;
#X connect 5 0 0 1;
#X connect 6 0 2 0;
#X connect 7 0 4 0;
#X restore 186 81 pd equation;
#N canvas 1078 501 268 260 scale 0;
#X obj 27 22 inlet;
#X obj 27 52 * 1000;
#X obj 27 83 s bp;
#X obj 70 21 r Freq;
#X connect 0 0 1 0;
#X connect 1 0 2 0;
#X connect 3 0 1 1;
#X restore 260 111 pd scale;
#X connect 8 0 7 0;
#X connect 9 0 5 0;
#X connect 9 1 10 0;
