#N canvas 303 80 908 610 12;
#X obj 254 171 *;
#X obj 250 143 *;
#X obj 249 113 t b f;
#X obj 182 111 r X val;
#X obj 303 122 * -1;
#X obj 301 149 + 1;
#N canvas 1187 104 630 312 controller 1;
#X obj 47 128 hsl 330 20 0 1 0 1 X Xin empty -2 -8 0 10 -45076 -261234
-1 7 0;
#X obj 44 56 hsl 330 20 2.9 4 0 1 Rval Rin empty -2 -8 0 10 -45076
-261234 -1 30806 0;
#X obj 49 198 hsl 330 20 110 30000 1 1 Freq Freqin empty -2 -8 0 10
-45076 -261234 -1 8882 0;
#X obj 49 267 hsl 330 20 11 7000 0 1 grain grainin empty -2 -8 0 10
-45076 -261234 -1 4656 0;
#X text 225 39 2 < R < 4;
#X floatatom 321 111 8 0 0 0 - X -;
#X text 226 113 0 < X(0) < 1;
#X text 58 289 Graininess;
#X floatatom 323 250 8 0 0 0 - grain -;
#X floatatom 323 181 8 0 0 0 - Freq -;
#X text 56 220 Freq. Center;
#X text 70 39 |Chaotic ->;
#X text 462 37 Band-Pass Q;
#X obj 399 56 hsl 200 30 20 1200 0 1 qball qst empty -2 -8 0 10 -86853
-260097 -1 0 0;
#X obj 452 147 vsl 30 128 0 127 0 1 Vol Volin empty 0 -9 0 10 -86853
-260097 -1 8900 0;
#X text 446 282 Noise;
#X text 400 148 Volume;
#X text 69 77 |3;
#X text 260 148 |2/3;
#X text 107 149 |.2;
#X text 316 77 |3.8282;
#X floatatom 318 39 8 0 0 0 - Rval -;
#X text 202 77 |3.4495;
#X text 206 148 |.5;
#X text 172 148 |.4;
#X text 426 162 ___;
#X restore 47 35 pd controller;
#X obj 249 83 r Rval;
#X text 182 50 X(n+1) = R X(n) (1 - X(n));
#X text 179 35 Discrete Logistic Equation;
#X floatatom 47 59 8 0 0 0 - bp -;
#N canvas 1476 321 292 263 soundz 0;
#X obj 91 -89 bp~;
#X obj 69 -43 dac~;
#X obj 123 -164 dbtorms;
#X obj 66 -140 *~ 0;
#X obj 105 -118 r bp;
#X obj 123 -189 r Vol;
#X obj 151 -112 r qball;
#X text 64 -199 Noise;
#X obj 60 -173 noise~;
#X text 118 -87 <- band-pass;
#X connect 0 0 1 1;
#X connect 0 0 1 0;
#X connect 2 0 3 1;
#X connect 3 0 0 0;
#X connect 4 0 0 1;
#X connect 5 0 2 0;
#X connect 6 0 0 2;
#X connect 8 0 3 0;
#X restore 40 121 pd soundz;
#X obj 276 204 s gliss;
#X obj 215 233 s X val;
#X obj 303 95 r X;
#N canvas 950 474 258 263 del 0;
#X obj 23 24 inlet;
#X obj 111 56 inlet;
#X obj 24 59 delay 10;
#X obj 60 98 f 0;
#X obj 61 132 outlet;
#X connect 0 0 2 0;
#X connect 1 0 3 1;
#X connect 2 0 3 0;
#X connect 3 0 4 0;
#X restore 215 205 pd del;
#N canvas 298 725 450 300 glissando 1;
#X text 86 57 Glissando;
#X obj 55 189 s bp;
#X obj 49 74 r gliss;
#X obj 146 160 line 100 10;
#X obj 146 131 pack 100 1000;
#X obj 234 105 r grain;
#X obj 104 74 r Freq;
#X obj 55 104 * 1000;
#X connect 2 0 7 0;
#X connect 3 0 1 0;
#X connect 4 0 3 0;
#X connect 5 0 4 1;
#X connect 6 0 7 1;
#X connect 7 0 4 0;
#X restore 40 94 pd glissando;
#X obj 212 172 r bp;
#N canvas 783 729 450 300 inits 0;
#X msg 288 108 \; pd dsp 1;
#X obj -14 33 loadbang;
#X obj -36 124 s qst;
#X obj 66 121 s Freqin;
#X obj 113 151 s Rin;
#X obj 156 122 s Xin;
#X obj 200 140 s grainin;
#X obj 11 126 s Volin;
#X msg -11 61 20 89 500 3.92999 0.0002 1000 1;
#X obj -15 88 unpack 20 89 500 3.9299 0.6666 1000 1;
#X obj 59 33 r reset;
#X connect 1 0 8 0;
#X connect 8 0 9 0;
#X connect 9 0 2 0;
#X connect 9 1 7 0;
#X connect 9 2 3 0;
#X connect 9 3 4 0;
#X connect 9 4 5 0;
#X connect 9 5 6 0;
#X connect 9 6 0 0;
#X connect 10 0 8 0;
#X restore 41 147 pd inits;
#X obj 40 234 s reset;
#X msg 40 203 bang;
#X connect 0 0 12 0;
#X connect 0 0 15 1;
#X connect 1 0 0 0;
#X connect 2 0 1 0;
#X connect 2 1 1 1;
#X connect 3 0 1 0;
#X connect 4 0 5 0;
#X connect 5 0 0 1;
#X connect 7 0 2 0;
#X connect 14 0 4 0;
#X connect 15 0 13 0;
#X connect 17 0 15 0;
#X connect 20 0 19 0;
