#N canvas 470 28 188 218 10;
#N canvas 733 51 243 221 audio 0;
#X text 44 70 Noise;
#X obj 44 88 noise~;
#X obj 108 41 adc~;
#X text 107 22 mic;
#N canvas 559 43 231 281 crossfade 0;
#X obj 144 157 dbtorms;
#X obj 50 157 dbtorms;
#X obj 29 180 *~ 0;
#X obj 73 226 outlet~;
#X obj 123 180 *~ 1;
#X obj 3 157 inlet~;
#X obj 99 157 inlet~;
#X obj 145 93 log;
#X obj 145 71 + 1;
#X obj 145 50 * 1.71828;
#X obj 56 92 log;
#X obj 56 9 * 1.71828;
#X obj 56 71 -;
#X obj 56 29 t b f;
#X obj 56 49 2.71828;
#X obj 56 -13 r crossfade;
#X obj 145 30 r crossfade;
#X obj 73 206 +~;
#X obj 50 134 * 120;
#X obj 50 111 pow 0.2;
#X obj 142 114 pow 0.2;
#X obj 144 135 * 140;
#X connect 0 0 4 1;
#X connect 1 0 2 1;
#X connect 2 0 17 0;
#X connect 4 0 17 1;
#X connect 5 0 2 0;
#X connect 6 0 4 0;
#X connect 7 0 20 0;
#X connect 8 0 7 0;
#X connect 9 0 8 0;
#X connect 10 0 19 0;
#X connect 11 0 13 0;
#X connect 12 0 10 0;
#X connect 13 0 14 0;
#X connect 13 1 12 1;
#X connect 14 0 12 0;
#X connect 15 0 11 0;
#X connect 16 0 9 0;
#X connect 17 0 3 0;
#X connect 18 0 1 0;
#X connect 19 0 18 0;
#X connect 20 0 21 0;
#X connect 21 0 0 0;
#X restore 44 111 pd crossfade;
#N canvas 545 25 310 505 flanger 0;
#X floatatom 147 56 5 0 0 0 - - -;
#X obj 185 39 r bp;
#X obj 116 133 dbtorms;
#X obj 80 184 -~;
#X obj 130 260 outlet~;
#X obj 45 268 vu 15 120 meters empty -1 -8 0 10 -66577 -1 1 0;
#X obj 138 360 vu 15 120 meters empty -1 -8 0 10 -66577 -1 1 0;
#X obj 37 195 bonk~;
#X obj 37 216 unpack;
#X obj 44 240 / 10;
#X obj 197 201 bonk~;
#X obj 197 222 unpack;
#X obj 204 246 / 10;
#X obj 130 290 bonk~;
#X obj 130 311 unpack;
#X obj 137 335 / 10;
#N canvas 151 41 170 331 governor 0;
#X obj 27 45 bonk~;
#X obj 27 66 unpack;
#X obj 34 90 / 10;
#X obj 89 46 bonk~;
#X obj 89 67 unpack;
#X obj 96 91 / 10;
#X obj 42 116 <;
#X obj 74 116 >;
#X obj 103 177 inlet;
#X obj 24 246 outlet;
#X obj 33 16 inlet~;
#X obj 79 18 inlet~;
#X obj 44 202 +;
#X obj 44 225 f;
#X obj 32 148 sel 1;
#X obj 70 150 sel 1;
#X obj 88 200 t b f f;
#X msg 31 173 -1;
#X msg 70 176 1;
#X text 105 161 blend;
#X connect 0 0 1 0;
#X connect 1 1 2 0;
#X connect 2 0 6 0;
#X connect 2 0 7 0;
#X connect 3 0 4 0;
#X connect 4 1 5 0;
#X connect 5 0 7 1;
#X connect 5 0 6 1;
#X connect 6 0 14 0;
#X connect 7 0 15 0;
#X connect 8 0 16 0;
#X connect 10 0 0 0;
#X connect 11 0 3 0;
#X connect 12 0 13 0;
#X connect 13 0 9 0;
#X connect 13 0 12 1;
#X connect 14 0 17 0;
#X connect 15 0 18 0;
#X connect 16 0 13 0;
#X connect 16 1 13 0;
#X connect 16 2 13 1;
#X connect 17 0 12 0;
#X connect 18 0 12 0;
#X restore 116 112 pd governor;
#X obj 205 272 vu 15 120 meters empty -1 -8 0 10 -66577 -1 1 0;
#X obj 185 60 / 40;
#X obj 58 44 dbtorms;
#X obj 37 69 *~ 0;
#X obj 12 24 inlet~;
#X obj 58 24 r flanger_vol;
#X obj 95 86 delay~ 40;
#X obj 95 156 *~ 0;
#X obj 218 38 r dlF_sweep;
#X connect 1 0 0 0;
#X connect 1 0 18 0;
#X connect 2 0 24 1;
#X connect 3 0 4 0;
#X connect 3 0 13 0;
#X connect 7 0 8 0;
#X connect 8 1 9 0;
#X connect 9 0 5 0;
#X connect 10 0 11 0;
#X connect 11 1 12 0;
#X connect 12 0 17 0;
#X connect 13 0 14 0;
#X connect 14 1 15 0;
#X connect 15 0 6 0;
#X connect 16 0 2 0;
#X connect 18 0 23 1;
#X connect 19 0 20 1;
#X connect 20 0 3 0;
#X connect 20 0 7 0;
#X connect 20 0 23 0;
#X connect 20 0 16 0;
#X connect 21 0 20 0;
#X connect 22 0 19 0;
#X connect 23 0 24 0;
#X connect 24 0 10 0;
#X connect 24 0 16 1;
#X connect 24 0 3 1;
#X connect 25 0 18 1;
#X restore 44 136 pd flanger;
#X obj 44 163 dac~;
#X obj 134 67 dbtorms;
#X obj 109 68 +~;
#X obj 113 88 *~ 1;
#X obj 140 41 r dlF_mic_vol;
#X connect 1 0 4 0;
#X connect 2 0 8 0;
#X connect 2 1 8 1;
#X connect 4 0 5 0;
#X connect 5 0 6 0;
#X connect 5 0 6 1;
#X connect 7 0 9 1;
#X connect 8 0 9 0;
#X connect 9 0 4 1;
#X connect 10 0 7 0;
#X restore 13 130 pd audio;
#N canvas 0 22 264 291 on/off 0;
#X obj 56 144 int;
#X obj 31 185 sel -1 1;
#X obj 97 155 s X val;
#X text 142 75 Delay;
#X obj 98 57 r ray;
#X obj 29 49 key;
#X obj 146 118 r disc;
#X obj 98 77 sel 1;
#X obj 96 134 f 1;
#X obj 96 115 spigot;
#X obj 97 97 del 10;
#X obj 146 99 r Rin;
#X obj 29 106 r go;
#X obj 29 86 s pow;
#X obj 31 164 * -1;
#X msg 30 125 bang;
#X obj 29 144 -1;
#X msg 31 202 \; pd dsp 0;
#X msg 98 202 \; pd dsp 1;
#X obj 56 30 loadbang;
#X obj 56 49 s pow;
#X obj 29 68 sel 122;
#X text 120 19 z start;
#X msg 166 203 -99;
#X obj 166 143 key;
#X obj 166 163 sel 122;
#X obj 166 183 delay 100;
#X obj 167 222 s meters;
#X connect 0 0 14 1;
#X connect 1 0 17 0;
#X connect 1 1 18 0;
#X connect 4 0 7 0;
#X connect 5 0 21 0;
#X connect 6 0 8 1;
#X connect 7 0 10 0;
#X connect 8 0 2 0;
#X connect 9 0 8 0;
#X connect 10 0 9 0;
#X connect 11 0 9 1;
#X connect 12 0 15 0;
#X connect 14 0 0 0;
#X connect 14 0 1 0;
#X connect 15 0 16 0;
#X connect 16 0 14 0;
#X connect 19 0 20 0;
#X connect 21 0 13 0;
#X connect 23 0 27 0;
#X connect 24 0 25 0;
#X connect 25 0 26 0;
#X connect 26 0 23 0;
#X restore 12 151 pd on/off;
#X text 74 154 <- z start;
#N canvas 507 29 249 241 discreteLog 0;
#X obj 113 154 *;
#X obj 112 134 *;
#X obj 106 118 t b f;
#X obj 52 118 r X val;
#X obj 153 121 * -1;
#X obj 153 138 + 1;
#X obj 132 175 s gliss;
#X obj 80 176 s disc;
#X obj 106 55 r Rval;
#X obj 153 55 r X;
#X text 35 33 X(n+1) = R X(n) (1 - X(n));
#X text 32 18 Discrete Logistic Equation;
#N canvas 650 280 258 259 log_box 0;
#X obj 137 84 log;
#X obj 137 62 + 1;
#X obj 137 41 * 1.71828;
#X obj 67 124 log;
#X obj 67 41 * 1.71828;
#X obj 67 103 -;
#X obj 67 61 t b f;
#X obj 67 81 2.71828;
#X obj 137 105 pow 0.2;
#X text 113 167 steeper the curve;
#X obj 137 21 inlet;
#X obj 67 21 inlet;
#X text 116 150 smaller the pow;
#X obj 137 126 outlet;
#X obj 61 164 outlet;
#X obj 61 143 pow 0.18;
#X connect 0 0 8 0;
#X connect 1 0 0 0;
#X connect 2 0 1 0;
#X connect 3 0 15 0;
#X connect 4 0 6 0;
#X connect 5 0 3 0;
#X connect 6 0 7 0;
#X connect 6 1 5 1;
#X connect 7 0 5 0;
#X connect 8 0 13 0;
#X connect 10 0 2 0;
#X connect 11 0 4 0;
#X connect 15 0 14 0;
#X restore 49 77 pd log_box;
#X obj 106 98 * 4;
#X connect 0 0 6 0;
#X connect 0 0 7 0;
#X connect 1 0 0 0;
#X connect 2 0 1 0;
#X connect 2 1 1 1;
#X connect 3 0 1 0;
#X connect 4 0 5 0;
#X connect 5 0 0 1;
#X connect 8 0 12 1;
#X connect 9 0 4 0;
#X connect 12 1 13 0;
#X connect 13 0 2 0;
#X restore 13 66 pd discreteLog;
#N canvas 0 22 225 156 glissando 0;
#X text 105 12 Glissando;
#X obj 69 106 s bp;
#X obj 68 29 r gliss;
#X obj 27 61 ==;
#X obj 27 79 s ray;
#X obj 68 86 line 100 10;
#X obj 68 68 pack 100 1000;
#X obj 118 51 r grain;
#X obj 123 29 r Freq;
#X obj 68 45 * 700;
#X connect 2 0 9 0;
#X connect 3 0 4 0;
#X connect 5 0 1 0;
#X connect 5 0 3 0;
#X connect 6 0 5 0;
#X connect 7 0 6 1;
#X connect 8 0 9 1;
#X connect 9 0 3 1;
#X connect 9 0 6 0;
#X restore 13 87 pd glissando;
#N canvas 491 159 809 153 inits 0;
#X obj -4724 70 s Volin;
#X obj -4668 70 s Freqin;
#X obj -4544 73 s grainin;
#X obj -4765 70 s Xin;
#X obj -4593 38 r go;
#X text -4725 35 Startup conditions;
#X obj -4593 73 s Rin;
#X msg -4724 55 100;
#X msg -4667 55 1500;
#X msg -4543 55 1000;
#X msg -4765 55 0.666;
#X msg -4593 57 3.95319;
#X obj -4882 71 s dlF_crossfade_in;
#X msg -4882 55 0.56;
#X obj -4481 73 s dlF_sweep_in;
#X msg -4481 55 40;
#X obj -4388 74 s flanger_vol_in;
#X msg -4388 55 65;
#X obj -4283 74 s dlF_mic_vol_in;
#X msg -4283 55 93;
#X connect 4 0 10 0;
#X connect 4 0 7 0;
#X connect 4 0 8 0;
#X connect 4 0 11 0;
#X connect 4 0 9 0;
#X connect 4 0 13 0;
#X connect 4 0 15 0;
#X connect 4 0 17 0;
#X connect 4 0 19 0;
#X connect 7 0 0 0;
#X connect 8 0 1 0;
#X connect 9 0 2 0;
#X connect 10 0 3 0;
#X connect 11 0 6 0;
#X connect 13 0 12 0;
#X connect 15 0 14 0;
#X connect 17 0 16 0;
#X connect 19 0 18 0;
#X restore 13 108 pd inits;
#X text 19 14 governor 2 methods;
#X text 17 25 crossfade;
#X text 17 4 flanger;
#N canvas 21 23 438 517 dlF_controller 1;
#X obj 58 115 hsl 330 20 0 1 0 1 X Xin empty -2 -8 0 10 -45076 -261234
-1 21911 0;
#X obj 58 43 hsl 330 20 0 0.999999 0 1 Rval Rin empty -2 -8 0 10 -45076
-261234 -1 32100 0;
#X obj 59 185 hsl 330 20 110 30000 1 1 Freq Freqin empty -2 -8 0 10
-45076 -261234 -1 15327 0;
#X obj 59 254 hsl 330 20 11 7000 0 1 grain grainin empty -2 -8 0 10
-45076 -261234 -1 800 0;
#X text 239 26 2 < R < 4;
#X floatatom 332 98 8 0 0 0 - X -;
#X text 237 100 0 < X(0) < 1;
#X text 68 276 Graininess;
#X floatatom 333 237 8 0 0 0 - grain -;
#X floatatom 333 168 8 0 0 0 - Freq -;
#X text 66 207 Freq. Center;
#X text 84 26 |Chaotic ->;
#X obj 54 340 tgl 50 0 go pow empty 17 7 0 10 -86853 -260097 -1 1 1
;
#X text 83 64 |3;
#X text 271 135 |2/3;
#X text 118 136 |.2;
#X text 330 64 |3.8282;
#X text 216 64 |3.4495;
#X text 217 135 |.5;
#X text 183 135 |.4;
#X text 54 392 Z start;
#X floatatom 311 452 8 0 0 0 - bp -;
#X obj 280 402 hsl 100 40 0.01 1 0 1 crossfade dlF_crossfade_in empty
-2 -8 0 10 -33289 -260097 -1 5500 0;
#X text 277 385 equal-pwr crossfade;
#X obj 187 342 vsl 40 80 0 127 0 1 flanger_vol flanger_vol_in empty
0 -9 0 10 -86277 -99865 -1 4100 0;
#X text 186 322 flanger;
#X obj 139 342 vsl 40 80 60 127 0 1 dlF_mic_vol dlF_mic_vol_in empty
0 -9 0 10 -86277 -99865 -1 4000 0;
#X text 139 322 Mic;
#X text 163 428 volumes;
#X text 118 371 ---;
#X text 228 372 ---;
#X obj 283 336 hsl 100 40 1 80 0 1 dlF_sweep dlF_sweep_in empty -2
-8 0 10 -33289 -260097 -1 4887 0;
#X text 282 318 sweep;
#X text 330 317 |;
#X restore 13 45 pd dlF_controller;
