#N struct lorenz float x float y float z;
#N canvas 13 733 224 134 10;
#N canvas 403 240 689 536 Lorenz 0;
#X text 86 48 dx = s(y-x) s=10;
#X text 518 71 dz = xy - bz b=8/3;
#X text 247 63 dy = x(r-z)-y r=28;
#X obj 132 172 * 10;
#X floatatom 153 153 5 0 0 0 - - -;
#X text 163 172 s;
#X obj 137 106 r Xval;
#X obj 95 127 r Yval;
#X obj 484 101 r Zval;
#X obj 127 148 -;
#X obj 137 127 t b f;
#X obj 236 93 r Zval;
#X obj 319 92 r Xval;
#X floatatom 531 103 5 0 0 0 - - -;
#X text 550 122 b;
#X obj 487 123 * 2.66667;
#X obj 261 114 - 28;
#X text 290 110 -r;
#X obj 319 115 * -1;
#X obj 290 160 *;
#X obj 288 138 t b f;
#X obj 332 179 -;
#X obj 328 158 t b f;
#X obj 328 137 r Yval;
#X obj 458 99 *;
#X obj 471 79 t b f;
#X obj 457 37 r Xval;
#X obj 471 59 r Yval;
#X obj 488 145 t b f;
#X obj 489 166 -;
#X floatatom 282 92 5 0 0 0 - - -;
#X msg 116 73 bang;
#X obj 245 333 f 0;
#X obj 245 359 s Xval;
#X obj 294 337 f 0;
#X msg 271 288 bang;
#X obj 342 332 f 0;
#X obj 293 359 s Yval;
#X obj 345 356 s Zval;
#X floatatom 51 171 5 0 0 0 - - -;
#X floatatom 283 193 5 0 0 0 - - -;
#X floatatom 444 180 5 0 0 0 - - -;
#X obj 171 190 r error;
#X obj 132 211 * 0.001;
#X obj 87 233 r Xval;
#X obj 132 232 t b f;
#X obj 120 260 +;
#X obj 371 182 r error;
#X obj 332 203 * 0.001;
#X obj 332 224 t b f;
#X obj 320 252 +;
#X obj 287 225 r Yval;
#X obj 528 171 r error;
#X obj 489 192 * 0.001;
#X obj 489 213 t b f;
#X obj 477 241 +;
#X obj 444 214 r Zval;
#X obj 271 310 delay 300;
#X obj 244 428 outlet;
#X obj 294 429 outlet;
#X obj 342 430 outlet;
#X obj 322 288 r grain;
#N canvas 296 496 214 235 Lorenz_error 0;
#X floatatom 102 76 9 1 10000 0 - - -;
#X text 114 60 error;
#X obj 102 95 / 10000;
#X floatatom 99 159 5 0 0 0 - - -;
#X obj 49 161 s error;
#X msg 63 112 bang;
#X obj 63 91 r go;
#X obj 73 140 0.005;
#X obj 92 42 r error_param;
#X obj 101 115 t b f;
#X connect 0 0 2 0;
#X connect 2 0 9 0;
#X connect 5 0 7 0;
#X connect 6 0 5 0;
#X connect 7 0 3 0;
#X connect 7 0 4 0;
#X connect 8 0 2 0;
#X connect 9 0 7 0;
#X connect 9 1 7 1;
#X restore 523 365 pd Lorenz_error;
#X obj 244 379 + 18;
#X obj 294 380 + 24;
#X obj 342 379 -4;
#X text 395 369 -18 < x < 18;
#X text 395 381 -24 < y < 24;
#X text 407 393 4 < z < 45;
#X text 401 354 ranges;
#N canvas 240 639 363 231 Lorenz_grapher 0;
#N canvas 351 80 256 76 template_lorenz 0;
#X obj -34 13 struct lorenz float x float y float z;
#X obj -33 38 filledpolygon 0 255 1 x y x y;
#X restore 27 53 pd template_lorenz;
#N canvas 459 23 1440 852 lorenz_datawindow 1;
#X scalar lorenz 0.0994787 1.99 0 \;;
#X scalar lorenz 0.194183 1.99398 0.0009896 \;;
#X scalar lorenz 0.285014 2.01119 0.00291198 \;;
#X scalar lorenz 0.372795 2.04102 0.00573862 \;;
#X scalar lorenz 0.458286 2.08298 0.00946571 \;;
#X scalar lorenz 0.542187 2.13668 0.0141115 \;;
#X scalar lorenz 0.625152 2.20183 0.0197145 \;;
#X scalar lorenz 0.707789 2.27825 0.0263327 \;;
#X scalar lorenz 0.790672 2.36581 0.0340425 \;;
#X scalar lorenz 0.874344 2.46448 0.0429396 \;;
#X scalar lorenz 0.959324 2.57431 0.0531389 \;;
#X scalar lorenz 1.04611 2.69541 0.0647758 \;;
#X scalar lorenz 1.13518 2.82795 0.0780078 \;;
#X scalar lorenz 1.22701 2.97218 0.0930156 \;;
#X scalar lorenz 1.32206 3.12839 0.110006 \;;
#X scalar lorenz 1.42078 3.29695 0.129215 \;;
#X scalar lorenz 1.52364 3.47826 0.150909 \;;
#X scalar lorenz 1.63107 3.6728 0.175389 \;;
#X scalar lorenz 1.74355 3.88108 0.202998 \;;
#X scalar lorenz 1.86153 4.10369 0.234119 \;;
#X scalar lorenz 1.98549 4.34123 0.269185 \;;
#X scalar lorenz 2.1159 4.59437 0.308685 \;;
#X scalar lorenz 2.25327 4.86383 0.353166 \;;
#X scalar lorenz 2.39809 5.15036 0.403243 \;;
#X scalar lorenz 2.55089 5.45477 0.45961 \;;
#X scalar lorenz 2.71221 5.77788 0.523041 \;;
#X scalar lorenz 2.88259 6.12056 0.594406 \;;
#X scalar lorenz 3.06261 6.48372 0.674678 \;;
#X scalar lorenz 3.25285 6.86827 0.764948 \;;
#X scalar lorenz 3.45392 7.27515 0.866434 \;;
#X scalar lorenz 3.66644 7.7053 0.980496 \;;
#X scalar lorenz 3.89106 8.15965 1.10865 \;;
#X scalar lorenz 4.12841 8.63913 1.25259 \;;
#X scalar lorenz 4.37916 9.14461 1.41418 \;;
#X scalar lorenz 4.64399 9.67692 1.59551 \;;
#X scalar lorenz 4.92357 10.2368 1.79889 \;;
#X scalar lorenz 5.21858 10.8249 2.02687 \;;
#X scalar lorenz 5.52966 11.4417 2.28224 \;;
#X scalar lorenz 5.85749 12.0875 2.56809 \;;
#X scalar lorenz 6.20266 12.7624 2.88779 \;;
#X scalar lorenz 6.56575 13.4661 3.24501 \;;
#X scalar lorenz 6.94729 14.1982 3.64374 \;;
#X scalar lorenz 7.34773 14.9577 4.08826 \;;
#X scalar lorenz 7.7674 15.743 4.58317 \;;
#X scalar lorenz 8.20655 16.5522 5.13335 \;;
#X scalar lorenz 8.66525 17.3825 5.74396 \;;
#X scalar lorenz 9.1434 18.2304 6.42034 \;;
#X scalar lorenz 9.6407 19.0914 7.16802 \;;
#X scalar lorenz 10.1566 19.9602 7.99254 \;;
#X scalar lorenz 10.6901 20.8302 8.89941 \;;
#X scalar lorenz 11.2402 21.6936 9.89392 \;;
#X scalar lorenz 11.8051 22.5415 10.981 \;;
#X scalar lorenz 12.3829 23.3633 12.1648 \;;
#X scalar lorenz 12.971 24.1472 13.4489 \;;
#X scalar lorenz 13.5663 24.8801 14.8353 \;;
#X scalar lorenz 14.1653 25.5475 16.3249 \;;
#X scalar lorenz 14.7636 26.1338 17.9163 \;;
#X scalar lorenz 15.3564 26.6227 19.6062 \;;
#X scalar lorenz 15.9383 26.9971 21.3885 \;;
#X scalar lorenz 16.5033 27.2403 23.2544 \;;
#X scalar lorenz 17.0448 27.3358 25.1917 \;;
#X scalar lorenz 17.5559 27.2686 27.185 \;;
#X scalar lorenz 18.0292 27.0256 29.2157 \;;
#X scalar lorenz 18.4575 26.5965 31.262 \;;
#X scalar lorenz 18.8333 25.9746 33.2993 \;;
#X scalar lorenz 19.1494 25.1574 35.3008 \;;
#X scalar lorenz 19.3993 24.1473 37.2384 \;;
#X scalar lorenz 19.5768 22.9517 39.0837 \;;
#X scalar lorenz 19.6772 21.5835 40.8088 \;;
#X scalar lorenz 19.6963 20.0603 42.3879 \;;
#X scalar lorenz 19.6317 18.4046 43.798 \;;
#X scalar lorenz 19.4823 16.6422 45.0203 \;;
#X scalar lorenz 19.2483 14.802 46.0409 \;;
#X scalar lorenz 18.9317 12.9141 46.8515 \;;
#X scalar lorenz 18.5356 11.0089 47.4491 \;;
#X scalar lorenz 18.0647 9.11588 47.8366 \;;
#X scalar lorenz 17.5247 7.26223 48.0221 \;;
#X scalar lorenz 16.9222 5.47223 48.0182 \;;
#X scalar lorenz 16.2646 3.76647 47.841 \;;
#X scalar lorenz 15.5596 2.16141 47.5095 \;;
#X scalar lorenz 14.8152 0.66932 47.0443 \;;
#X scalar lorenz 14.0396 -0.701676 46.4667 \;;
#X scalar lorenz 13.2404 -1.94728 45.7981 \;;
#X scalar lorenz 12.4252 -3.06662 45.0587 \;;
#X scalar lorenz 11.601 -4.06171 44.2675 \;;
#X scalar lorenz 10.7743 -4.93693 43.4419 \;;
#X scalar lorenz 9.95086 -5.69843 42.5969 \;;
#X scalar lorenz 9.13581 -6.3537 41.7456 \;;
#X scalar lorenz 8.33364 -6.91102 40.8989 \;;
#X scalar lorenz 7.54817 -7.37913 40.0658 \;;
#X scalar lorenz 6.78259 -7.76686 39.2533 \;;
#X scalar lorenz 6.03947 -8.08291 38.4667 \;;
#X scalar lorenz 5.32087 -8.33566 37.7099 \;;
#X scalar lorenz 4.62833 -8.53299 36.9855 \;;
#X scalar lorenz 3.96294 -8.68225 36.295 \;;
#X scalar lorenz 3.32542 -8.79018 35.6392 \;;
#X scalar lorenz 2.71614 -8.8629 35.018 \;;
#X scalar lorenz 2.13516 -8.90591 34.4308 \;;
#X scalar lorenz 1.58232 -8.92412 33.8768 \;;
#X scalar lorenz 1.05722 -8.92186 33.3546 \;;
#X scalar lorenz 0.559318 -8.90296 32.8628 \;;
#X scalar lorenz 0.0879158 -8.87076 32.3998 \;;
#X scalar lorenz -0.357792 -8.82816 31.964 \;;
#X scalar lorenz -0.778695 -8.77767 31.5537 \;;
#X scalar lorenz -1.17575 -8.72146 31.1673 \;;
#X scalar lorenz -1.54995 -8.66139 30.8031 \;;
#X scalar lorenz -1.90233 -8.59904 30.4595 \;;
#X scalar lorenz -2.23393 -8.53574 30.1353 \;;
#X scalar lorenz -2.5458 -8.47265 29.8289 \;;
#X scalar lorenz -2.83898 -8.41071 29.5391 \;;
#X scalar lorenz -3.11451 -8.35072 29.2647 \;;
#X scalar lorenz -3.37339 -8.29333 29.0046 \;;
#X scalar lorenz -3.61662 -8.23909 28.7578 \;;
#X scalar lorenz -3.84517 -8.18845 28.5234 \;;
#X scalar lorenz -4.05995 -8.14174 28.3006 \;;
#X scalar lorenz -4.26187 -8.09924 28.0885 \;;
#X scalar lorenz -4.45179 -8.06117 27.8866 \;;
#X scalar lorenz -4.63055 -8.02767 27.6943 \;;
#X scalar lorenz -4.79893 -7.99886 27.5109 \;;
#X scalar lorenz -4.95769 -7.9748 27.3361 \;;
#X scalar lorenz -5.10755 -7.95552 27.1693 \;;
#X scalar lorenz -5.24919 -7.94103 27.0103 \;;
#X scalar lorenz -5.38327 -7.93128 26.8586 \;;
#X scalar lorenz -5.51039 -7.92624 26.714 \;;
#X scalar lorenz -5.63113 -7.92584 26.5762 \;;
#X scalar lorenz -5.74605 -7.92999 26.4451 \;;
#X scalar lorenz -5.85565 -7.93859 26.3203 \;;
#X scalar lorenz -5.96043 -7.95154 26.2018 \;;
#X scalar lorenz -6.06082 -7.96872 26.0895 \;;
#X scalar lorenz -6.15726 -7.98999 25.9831 \;;
#X scalar lorenz -6.25014 -8.01522 25.8827 \;;
#X scalar lorenz -6.33982 -8.04426 25.7881 \;;
#X scalar lorenz -6.42666 -8.07697 25.6992 \;;
#X scalar lorenz -6.51097 -8.11318 25.6161 \;;
#X scalar lorenz -6.59304 -8.15273 25.5387 \;;
#X scalar lorenz -6.67314 -8.19546 25.467 \;;
#X scalar lorenz -6.75153 -8.24119 25.4009 \;;
#X scalar lorenz -6.82842 -8.28975 25.3404 \;;
#X scalar lorenz -6.90403 -8.34097 25.2856 \;;
#X scalar lorenz -6.97855 -8.39465 25.2364 \;;
#X scalar lorenz -7.05214 -8.45062 25.1928 \;;
#X scalar lorenz -7.12495 -8.50867 25.1549 \;;
#X scalar lorenz -7.19712 -8.56862 25.1226 \;;
#X scalar lorenz -7.26876 -8.63026 25.096 \;;
#X scalar lorenz -7.33997 -8.6934 25.0751 \;;
#X scalar lorenz -7.41085 -8.75783 25.0598 \;;
#X scalar lorenz -7.48146 -8.82333 25.0502 \;;
#X scalar lorenz -7.55186 -8.88969 25.0462 \;;
#X scalar lorenz -7.62208 -8.95669 25.0479 \;;
#X scalar lorenz -7.69217 -9.02412 25.0553 \;;
#X scalar lorenz -7.76213 -9.09174 25.0683 \;;
#X scalar lorenz -7.83198 -9.15932 25.0869 \;;
#X scalar lorenz -7.9017 -9.22664 25.1111 \;;
#X scalar lorenz -7.97127 -9.29346 25.1408 \;;
#X scalar lorenz -8.04067 -9.35953 25.176 \;;
#X scalar lorenz -8.10985 -9.42462 25.2166 \;;
#X scalar lorenz -8.17877 -9.48848 25.2625 \;;
#X scalar lorenz -8.24736 -9.55088 25.3137 \;;
#X scalar lorenz -8.31555 -9.61156 25.37 \;;
#X scalar lorenz -8.38328 -9.67029 25.4314 \;;
#X scalar lorenz -8.45044 -9.72682 25.4976 \;;
#X scalar lorenz -8.51695 -9.78091 25.5686 \;;
#X scalar lorenz -8.5827 -9.83231 25.6442 \;;
#X scalar lorenz -8.64759 -9.8808 25.7242 \;;
#X scalar lorenz -8.71151 -9.92615 25.8084 \;;
#X scalar lorenz -8.77432 -9.96813 25.8966 \;;
#X scalar lorenz -8.83592 -10.0065 25.9886 \;;
#X scalar lorenz -8.89617 -10.0411 26.0842 \;;
#X scalar lorenz -8.95493 -10.0717 26.183 \;;
#X scalar lorenz -9.01208 -10.0982 26.2848 \;;
#X scalar lorenz -9.06748 -10.1202 26.3894 \;;
#X scalar lorenz -9.12098 -10.1378 26.4963 \;;
#X scalar lorenz -9.17246 -10.1507 26.6054 \;;
#X scalar lorenz -9.22177 -10.1588 26.7161 \;;
#X scalar lorenz -9.26877 -10.1621 26.8283 \;;
#X scalar lorenz -9.31334 -10.1603 26.9415 \;;
#X scalar lorenz -9.35534 -10.1535 27.0554 \;;
#X scalar lorenz -9.39464 -10.1416 27.1696 \;;
#X scalar lorenz -9.43113 -10.1245 27.2837 \;;
#X scalar lorenz -9.46468 -10.1023 27.3973 \;;
#X scalar lorenz -9.49519 -10.075 27.5101 \;;
#X scalar lorenz -9.52256 -10.0426 27.6216 \;;
#X scalar lorenz -9.54669 -10.0052 27.7314 \;;
#X scalar lorenz -9.56749 -9.96285 27.8392 \;;
#X scalar lorenz -9.5849 -9.9157 27.9446 \;;
#X scalar lorenz -9.59884 -9.86387 28.0472 \;;
#X scalar lorenz -9.60927 -9.80753 28.1466 \;;
#X scalar lorenz -9.61615 -9.74685 28.2425 \;;
#X scalar lorenz -9.61944 -9.68204 28.3346 \;;
#X scalar lorenz -9.61914 -9.61333 28.4224 \;;
#X scalar lorenz -9.61523 -9.54095 28.5058 \;;
#X scalar lorenz -9.60773 -9.46517 28.5844 \;;
#X scalar lorenz -9.59666 -9.38625 28.658 \;;
#X scalar lorenz -9.58205 -9.30449 28.7262 \;;
#X scalar lorenz -9.56396 -9.22019 28.789 \;;
#X scalar lorenz -9.54245 -9.13365 28.846 \;;
#X scalar lorenz -9.5176 -9.0452 28.8972 \;;
#X scalar lorenz -9.48948 -8.95515 28.9423 \;;
#X scalar lorenz -9.4582 -8.86383 28.9813 \;;
#X scalar lorenz -9.42388 -8.77158 29.0141 \;;
#X scalar lorenz -9.38663 -8.67871 29.0405 \;;
#X scalar lorenz -9.34659 -8.58556 29.0606 \;;
#X scalar lorenz -9.30389 -8.49244 29.0744 \;;
#X scalar lorenz -9.25869 -8.39968 29.0818 \;;
#X scalar lorenz -9.21114 -8.30757 29.0829 \;;
#X scalar lorenz -9.16142 -8.21642 29.0777 \;;
#X scalar lorenz -9.10968 -8.12651 29.0664 \;;
#X scalar lorenz -9.05612 -8.03812 29.049 \;;
#X scalar lorenz -9.0009 -7.9515 29.0256 \;;
#X scalar lorenz -8.94421 -7.86692 28.9965 \;;
#X scalar lorenz -8.88624 -7.78459 28.9617 \;;
#X scalar lorenz -8.82718 -7.70475 28.9214 \;;
#X scalar lorenz -8.76721 -7.62758 28.8759 \;;
#X scalar lorenz -8.70653 -7.55329 28.8252 \;;
#X scalar lorenz -8.64532 -7.48203 28.7697 \;;
#X scalar lorenz -8.58376 -7.41396 28.7096 \;;
#X scalar lorenz -8.52205 -7.34922 28.645 \;;
#X scalar lorenz -8.46036 -7.28794 28.5762 \;;
#X scalar lorenz -8.39886 -7.23021 28.5035 \;;
#X scalar lorenz -8.33774 -7.17614 28.4271 \;;
#X scalar lorenz -8.27716 -7.12579 28.3472 \;;
#X scalar lorenz -8.21727 -7.07924 28.2642 \;;
#X scalar lorenz -8.15825 -7.03653 28.1782 \;;
#X scalar lorenz -8.10023 -6.9977 28.0896 \;;
#X scalar lorenz -8.04337 -6.96278 27.9985 \;;
#X scalar lorenz -7.98781 -6.93179 27.9052 \;;
#X scalar lorenz -7.93366 -6.90472 27.81 \;;
#X scalar lorenz -7.88107 -6.88158 27.7131 \;;
#X scalar lorenz -7.83015 -6.86236 27.6148 \;;
#X scalar lorenz -7.781 -6.84703 27.5153 \;;
#X scalar lorenz -7.73374 -6.83556 27.4148 \;;
#X scalar lorenz -7.68846 -6.82793 27.3136 \;;
#X scalar lorenz -7.64525 -6.82408 27.212 \;;
#X scalar lorenz -7.60419 -6.82398 27.11 \;;
#X scalar lorenz -7.56537 -6.82758 27.008 \;;
#X scalar lorenz -7.52885 -6.83481 26.9062 \;;
#X scalar lorenz -7.4947 -6.84563 26.8048 \;;
#X scalar lorenz -7.46297 -6.85997 26.7039 \;;
#X scalar lorenz -7.43371 -6.87776 26.6039 \;;
#X scalar lorenz -7.40698 -6.89894 26.5048 \;;
#X scalar lorenz -7.38281 -6.92344 26.4069 \;;
#X scalar lorenz -7.36123 -6.95118 26.3104 \;;
#X scalar lorenz -7.34228 -6.9821 26.2155 \;;
#X scalar lorenz -7.32598 -7.01612 26.1223 \;;
#X scalar lorenz -7.31234 -7.05315 26.031 \;;
#X scalar lorenz -7.30138 -7.09313 25.9418 \;;
#X scalar lorenz -7.29311 -7.13596 25.8549 \;;
#X scalar lorenz -7.28754 -7.18158 25.7704 \;;
#X scalar lorenz -7.28465 -7.22988 25.6885 \;;
#X scalar lorenz -7.28446 -7.2808 25.6093 \;;
#X scalar lorenz -7.28695 -7.33423 25.5331 \;;
#X scalar lorenz -7.29211 -7.3901 25.4599 \;;
#X scalar lorenz -7.29991 -7.4483 25.3899 \;;
#X scalar lorenz -7.31035 -7.50875 25.3232 \;;
#X scalar lorenz -7.3234 -7.57134 25.26 \;;
#X scalar lorenz -7.33903 -7.63598 25.2005 \;;
#X scalar lorenz -7.3572 -7.70256 25.1447 \;;
#X scalar lorenz -7.37788 -7.77098 25.0928 \;;
#X scalar lorenz -7.40104 -7.84112 25.0449 \;;
#X scalar lorenz -7.42663 -7.91287 25.0012 \;;
#X scalar lorenz -7.45459 -7.98612 24.9616 \;;
#X scalar lorenz -7.48489 -8.06073 24.9265 \;;
#X scalar lorenz -7.51747 -8.13658 24.8958 \;;
#X scalar lorenz -7.55227 -8.21354 24.8697 \;;
#X scalar lorenz -7.58922 -8.29147 24.8483 \;;
#X scalar lorenz -7.62826 -8.37022 24.8316 \;;
#X scalar lorenz -7.66932 -8.44966 24.8198 \;;
#X scalar lorenz -7.71233 -8.52961 24.8128 \;;
#X scalar lorenz -7.7572 -8.60992 24.8109 \;;
#X scalar lorenz -7.80385 -8.69042 24.8141 \;;
#X scalar lorenz -7.85219 -8.77094 24.8223 \;;
#X scalar lorenz -7.90214 -8.85131 24.8357 \;;
#X scalar lorenz -7.95359 -8.93132 24.8542 \;;
#X scalar lorenz -8.00644 -9.0108 24.878 \;;
#X scalar lorenz -8.06058 -9.08955 24.907 \;;
#X scalar lorenz -8.11591 -9.16736 24.9413 \;;
#X scalar lorenz -8.1723 -9.24403 24.9807 \;;
#X scalar lorenz -8.22964 -9.31934 25.0254 \;;
#X scalar lorenz -8.2878 -9.39308 25.0752 \;;
#X scalar lorenz -8.34665 -9.46503 25.13 \;;
#X scalar lorenz -8.40605 -9.53496 25.19 \;;
#X scalar lorenz -8.46587 -9.60265 25.2548 \;;
#X scalar lorenz -8.52596 -9.66787 25.3246 \;;
#X scalar lorenz -8.58616 -9.7304 25.399 \;;
#X scalar lorenz -8.64634 -9.79 25.4781 \;;
#X scalar lorenz -8.70634 -9.84645 25.5616 \;;
#X scalar lorenz -8.76598 -9.89953 25.6494 \;;
#X scalar lorenz -8.82512 -9.94903 25.7413 \;;
#X scalar lorenz -8.88359 -9.99471 25.8371 \;;
#X scalar lorenz -8.94122 -10.0364 25.9365 \;;
#X scalar lorenz -8.99784 -10.0739 26.0393 \;;
#X scalar lorenz -9.05328 -10.1069 26.1453 \;;
#X scalar lorenz -9.10737 -10.1354 26.2542 \;;
#X scalar lorenz -9.15995 -10.1591 26.3657 \;;
#X scalar lorenz -9.21084 -10.178 26.4794 \;;
#X scalar lorenz -9.25988 -10.1918 26.595 \;;
#X scalar lorenz -9.3069 -10.2005 26.7123 \;;
#X scalar lorenz -9.35174 -10.2039 26.8308 \;;
#X scalar lorenz -9.39424 -10.2019 26.9501 \;;
#X scalar lorenz -9.43425 -10.1946 27.0699 \;;
#X scalar lorenz -9.47162 -10.1819 27.1899 \;;
#X scalar lorenz -9.50621 -10.1637 27.3095 \;;
#X scalar lorenz -9.5379 -10.14 27.4285 \;;
#X scalar lorenz -9.56654 -10.1109 27.5463 \;;
#X scalar lorenz -9.59204 -10.0765 27.6626 \;;
#X scalar lorenz -9.61427 -10.0369 27.777 \;;
#X scalar lorenz -9.63316 -9.99201 27.8891 \;;
#X scalar lorenz -9.6486 -9.94214 27.9985 \;;
#X scalar lorenz -9.66054 -9.88738 28.1048 \;;
#X scalar lorenz -9.66891 -9.82793 28.2077 \;;
#X scalar lorenz -9.67366 -9.76398 28.3067 \;;
#X scalar lorenz -9.67476 -9.69575 28.4015 \;;
#X scalar lorenz -9.6722 -9.6235 28.4918 \;;
#X scalar lorenz -9.66597 -9.54748 28.5773 \;;
#X scalar lorenz -9.65607 -9.46798 28.6577 \;;
#X scalar lorenz -9.64253 -9.38528 28.7327 \;;
#X scalar lorenz -9.62539 -9.2997 28.802 \;;
#X scalar lorenz -9.60471 -9.21157 28.8656 \;;
#X scalar lorenz -9.58054 -9.1212 28.923 \;;
#X scalar lorenz -9.55296 -9.02894 28.9743 \;;
#X scalar lorenz -9.52208 -8.93513 29.0193 \;;
#X scalar lorenz -9.48799 -8.84012 29.0577 \;;
#X scalar lorenz -9.45081 -8.74425 29.0897 \;;
#X scalar lorenz -9.41067 -8.64786 29.115 \;;
#X scalar lorenz -9.36771 -8.55129 29.1337 \;;
#X scalar lorenz -9.32208 -8.45489 29.1458 \;;
#X scalar lorenz -9.27393 -8.35898 29.1513 \;;
#X scalar lorenz -9.22344 -8.26387 29.1502 \;;
#X scalar lorenz -9.17078 -8.16988 29.1426 \;;
#X scalar lorenz -9.11611 -8.0773 29.1287 \;;
#X scalar lorenz -9.05964 -7.9864 29.1085 \;;
#X scalar lorenz -9.00154 -7.89747 29.0821 \;;
#X scalar lorenz -8.94202 -7.81076 29.0498 \;;
#X scalar lorenz -8.88125 -7.72649 29.0117 \;;
#X scalar lorenz -8.81945 -7.64489 28.968 \;;
#X scalar lorenz -8.7568 -7.56616 28.9189 \;;
#X scalar lorenz -8.6935 -7.49049 28.8646 \;;
#X scalar lorenz -8.62974 -7.41805 28.8053 \;;
#X scalar lorenz -8.56571 -7.34898 28.7414 \;;
#X scalar lorenz -8.50161 -7.28343 28.6729 \;;
#X scalar lorenz -8.43762 -7.22152 28.6002 \;;
#X scalar lorenz -8.37392 -7.16333 28.5236 \;;
#X scalar lorenz -8.31069 -7.10897 28.4432 \;;
#X scalar lorenz -8.24809 -7.05851 28.3594 \;;
#X scalar lorenz -8.1863 -7.01199 28.2723 \;;
#X scalar lorenz -8.12547 -6.96947 28.1824 \;;
#X scalar lorenz -8.06576 -6.93099 28.0898 \;;
#X scalar lorenz -8.00731 -6.89655 27.9948 \;;
#X scalar lorenz -7.95027 -6.86617 27.8977 \;;
#X scalar lorenz -7.89476 -6.83984 27.7987 \;;
#X scalar lorenz -7.84091 -6.81757 27.6981 \;;
#X scalar lorenz -7.78884 -6.79932 27.596 \;;
#X scalar lorenz -7.73867 -6.78508 27.4929 \;;
#X scalar lorenz -7.69048 -6.7748 27.3889 \;;
#X scalar lorenz -7.64439 -6.76845 27.2842 \;;
#X scalar lorenz -7.60048 -6.76598 27.1792 \;;
#X scalar lorenz -7.55883 -6.76734 27.0739 \;;
#X scalar lorenz -7.51952 -6.77248 26.9687 \;;
#X scalar lorenz -7.48262 -6.78133 26.8638 \;;
#X scalar lorenz -7.44819 -6.79384 26.7594 \;;
#X scalar lorenz -7.41628 -6.80994 26.6556 \;;
#X scalar lorenz -7.38695 -6.82955 26.5527 \;;
#X scalar lorenz -7.36024 -6.85261 26.451 \;;
#X scalar lorenz -7.33619 -6.87904 26.3505 \;;
#X scalar lorenz -7.31482 -6.90878 26.2515 \;;
#X scalar lorenz -7.29617 -6.94174 26.1542 \;;
#X scalar lorenz -7.28026 -6.97784 26.0587 \;;
#X scalar lorenz -7.2671 -7.01701 25.9653 \;;
#X scalar lorenz -7.2567 -7.05916 25.8741 \;;
#X scalar lorenz -7.24908 -7.10421 25.7852 \;;
#X scalar lorenz -7.24423 -7.15208 25.6989 \;;
#X scalar lorenz -7.24216 -7.20269 25.6154 \;;
#X scalar lorenz -7.24284 -7.25593 25.5347 \;;
#X scalar lorenz -7.24629 -7.31174 25.457 \;;
#X scalar lorenz -7.25247 -7.37 25.3825 \;;
#X scalar lorenz -7.26138 -7.43063 25.3113 \;;
#X scalar lorenz -7.27298 -7.49354 25.2436 \;;
#X scalar lorenz -7.28726 -7.55863 25.1796 \;;
#X scalar lorenz -7.30419 -7.62578 25.1193 \;;
#X scalar lorenz -7.32372 -7.69491 25.0629 \;;
#X scalar lorenz -7.34582 -7.76589 25.0105 \;;
#X scalar lorenz -7.37046 -7.83862 24.9622 \;;
#X scalar lorenz -7.39758 -7.91298 24.9183 \;;
#X scalar lorenz -7.42713 -7.98884 24.8787 \;;
#X scalar lorenz -7.45907 -8.06609 24.8437 \;;
#X scalar lorenz -7.49334 -8.1446 24.8133 \;;
#X scalar lorenz -7.52988 -8.22421 24.7876 \;;
#X scalar lorenz -7.56862 -8.3048 24.7667 \;;
#X coords -60 -60 60 60 85 60 1;
#X restore 23 80 pd lorenz_datawindow;
#X msg 161 53 traverse pd-lorenz_datawindow;
#X msg 180 79 bang;
#X msg 195 104 next;
#X obj 162 131 pointer;
#X obj 51 179 append lorenz x y z;
#X text 176 170 <- set pointer;
#X text 50 158 x y z;
#X obj 33 160 r Xval;
#X msg 168 20 \; pd-lorenz_datawindow clear;
#X obj 75 158 r Yval;
#X obj 119 159 r Zval;
#X obj 142 1 r go;
#X connect 2 0 5 0;
#X connect 3 0 5 0;
#X connect 4 0 5 0;
#X connect 5 0 6 3;
#X connect 9 0 6 0;
#X connect 11 0 6 1;
#X connect 12 0 6 2;
#X connect 13 0 10 0;
#X connect 13 0 2 0;
#X connect 13 0 3 0;
#X restore 522 388 pd Lorenz_grapher;
#N canvas 152 33 506 271 glisses 0;
#X obj 132 34 inlet;
#X text 82 129 Glissando;
#X obj 45 203 line 100 10;
#X obj 45 185 pack 100 1000;
#X obj 95 168 r grain;
#X text 242 132 Glissando;
#X obj 205 206 line 100 10;
#X obj 205 188 pack 100 1000;
#X obj 255 171 r grain;
#X text 395 129 Glissando;
#X obj 358 203 line 100 10;
#X obj 358 185 pack 100 1000;
#X obj 408 168 r grain;
#X obj 45 145 r glissX;
#X obj 205 148 r glissY;
#X obj 358 145 r glissZ;
#X obj 61 72 s glissX;
#X obj 160 72 s glissY;
#X obj 266 73 s glissZ;
#X obj 114 72 s discX;
#X obj 218 73 s discY;
#X obj 320 73 s discZ;
#X text 35 239 outs to effect_paramX;
#X obj 206 226 s effect_paramY;
#X obj 359 223 s effect_paramZ;
#X obj 46 223 s effect_paramX;
#X obj 100 146 r FreqX;
#X obj 256 149 r FreqY;
#X obj 413 146 r FreqZ;
#X obj 202 34 inlet;
#X obj 264 41 inlet;
#X floatatom 316 189 5 0 0 0 - - -;
#X floatatom 7 194 5 0 0 0 - - -;
#X floatatom 172 195 5 0 0 0 - - -;
#X obj 205 168 * 1;
#X obj 44 164 * 1;
#X obj 357 165 * 1;
#X connect 0 0 16 0;
#X connect 0 0 19 0;
#X connect 2 0 25 0;
#X connect 3 0 2 0;
#X connect 4 0 3 1;
#X connect 6 0 23 0;
#X connect 7 0 6 0;
#X connect 8 0 7 1;
#X connect 10 0 24 0;
#X connect 11 0 10 0;
#X connect 12 0 11 1;
#X connect 13 0 35 0;
#X connect 14 0 34 0;
#X connect 15 0 36 0;
#X connect 26 0 35 1;
#X connect 27 0 34 1;
#X connect 28 0 36 1;
#X connect 29 0 17 0;
#X connect 29 0 20 0;
#X connect 30 0 18 0;
#X connect 30 0 21 0;
#X connect 34 0 7 0;
#X connect 34 0 33 0;
#X connect 35 0 3 0;
#X connect 35 0 32 0;
#X connect 36 0 11 0;
#X connect 36 0 31 0;
#X restore 271 405 pd glisses;
#N canvas 735 35 667 360 audio 0;
#X obj 155 216 bp~;
#X obj 156 130 dbtorms;
#X obj 136 154 *~ 0;
#X obj 156 112 r Vol;
#X text 117 109 Noise;
#X obj 109 128 noise~;
#X text 182 218 <- band-pass;
#X obj 310 199 bp~;
#X obj 301 82 dbtorms;
#X obj 281 106 *~ 0;
#X obj 301 64 r Vol;
#X text 262 61 Noise;
#X obj 254 80 noise~;
#X text 333 192 <- band-pass;
#X obj 499 219 bp~;
#X obj 483 155 dbtorms;
#X obj 463 179 *~ 0;
#X obj 483 137 r Vol;
#X text 444 134 Noise;
#X obj 436 153 noise~;
#X text 526 221 <- band-pass;
#X obj 168 163 r effect_paramX;
#X obj 311 149 r effect_paramY;
#X obj 506 182 r effect_paramZ;
#X obj 199 201 r qballX;
#X obj 354 178 r qballY;
#X obj 543 204 r qballZ;
#X obj 315 265 +~;
#X obj 294 235 +~;
#X obj 325 295 dac~;
#X connect 0 0 28 0;
#X connect 1 0 2 1;
#X connect 2 0 0 0;
#X connect 3 0 1 0;
#X connect 5 0 2 0;
#X connect 7 0 28 1;
#X connect 8 0 9 1;
#X connect 9 0 7 0;
#X connect 10 0 8 0;
#X connect 12 0 9 0;
#X connect 14 0 27 1;
#X connect 15 0 16 1;
#X connect 16 0 14 0;
#X connect 17 0 15 0;
#X connect 19 0 16 0;
#X connect 21 0 0 1;
#X connect 22 0 7 1;
#X connect 23 0 14 1;
#X connect 24 0 0 2;
#X connect 25 0 7 2;
#X connect 26 0 14 2;
#X connect 27 0 29 0;
#X connect 27 0 29 1;
#X connect 28 0 27 0;
#X restore 524 344 pd audio;
#N canvas 390 54 343 198 inits 0;
#X obj -4899 47 s Volin;
#X obj -4776 54 s grainin;
#X obj -4940 47 s Xin;
#X obj -4799 14 r go;
#X text -4931 -2 Startup conditions;
#X msg -4899 31 100;
#X obj -4809 76 r go;
#X obj -4811 128 r go;
#X obj -4883 109 s Yin;
#X obj -4930 160 s Zin;
#X obj -4886 160 s FreqinZ;
#X obj -4846 109 s FreqinY;
#X obj -4849 47 s FreqinX;
#X msg -4940 31 0;
#X msg -4883 93 2;
#X msg -4930 144 0;
#X obj -5046 69 s Xval;
#X obj -5000 69 s Yval;
#X obj -4954 68 s Zval;
#X msg -5002 31 0;
#X msg -4973 31 2;
#X msg -4885 144 11;
#X msg -4841 93 15;
#X msg -4848 31 16;
#X obj -4970 114 s error_init;
#X msg -4775 36 12;
#X msg -4970 93 50;
#X connect 3 0 13 0;
#X connect 3 0 5 0;
#X connect 3 0 23 0;
#X connect 3 0 25 0;
#X connect 3 0 20 0;
#X connect 3 0 19 0;
#X connect 5 0 0 0;
#X connect 6 0 14 0;
#X connect 6 0 22 0;
#X connect 6 0 26 0;
#X connect 7 0 15 0;
#X connect 7 0 21 0;
#X connect 13 0 2 0;
#X connect 14 0 8 0;
#X connect 15 0 9 0;
#X connect 19 0 16 0;
#X connect 19 0 18 0;
#X connect 20 0 17 0;
#X connect 21 0 10 0;
#X connect 22 0 11 0;
#X connect 23 0 12 0;
#X connect 25 0 1 0;
#X connect 26 0 24 0;
#X restore 523 322 pd inits;
#N canvas 701 28 717 692 controller 0;
#X obj 44 302 hsl 330 20 -20 25 0 1 Xval Xin empty -2 -8 0 10 -45076
-261234 -1 14622 0;
#X obj 46 372 hsl 330 20 10 3000 1 1 FreqX FreqinX empty -2 -8 0 10
-45076 -261234 -1 2711 0;
#X obj 40 612 hsl 330 20 11 700 0 1 grain grainin empty -2 -8 0 10
-45076 -261234 -1 48 0;
#X floatatom 318 285 8 0 0 0 - Xval -;
#X text 44 591 Graininess;
#X floatatom 314 595 8 0 0 0 - grain -;
#X floatatom 320 355 8 0 0 0 - FreqX -;
#X text 53 394 Freq. Center;
#X obj 647 592 tgl 50 0 go pow empty 17 7 0 10 -86853 -260097 -1 1
1;
#X obj 43 248 hsl 200 30 20 1200 0 1 qballX empty empty -2 -8 0 10
-86853 -260097 -1 700 0;
#X obj 658 429 vsl 30 128 0 127 0 1 Vol Volin empty 0 -9 0 10 -86853
-260097 -1 10000 0;
#X text 660 411 Noise;
#X text 651 564 Volume;
#X text 632 444 ___;
#X text 647 644 Z start;
#X text 106 229 Band-PassX Q;
#X text 348 318 25 |;
#X text 39 321 | -20;
#X text 218 284 -20 < X(t) < 25;
#X obj 296 150 hsl 330 20 -20 25 0 1 Yval Yin empty -2 -8 0 10 -45076
-261234 -1 16084 0;
#X obj 297 212 hsl 330 20 11 3000 1 1 FreqY FreqinY empty -2 -8 0 10
-45076 -261234 -1 1819 0;
#X floatatom 295 132 8 0 0 0 - Yval -;
#X floatatom 301 192 8 0 0 0 - FreqY -;
#X text 304 234 Freq. Center;
#X obj 428 88 hsl 200 30 20 1200 0 1 qballY empty empty -2 -8 0 10
-86853 -260097 -1 300 0;
#X text 535 64 Band-PassY Q;
#X text 357 132 -40 < Y(t) < 40;
#X text 605 168 40 |;
#X text 291 169 | -40;
#X obj 281 436 hsl 330 20 0 60 0 1 Zval Zin empty -2 -8 0 10 -45076
-261234 -1 0 0;
#X obj 282 498 hsl 330 20 11 3000 1 1 FreqZ FreqinZ empty -2 -8 0 10
-45076 -261234 -1 0 0;
#X floatatom 280 418 8 0 0 0 - Zval -;
#X floatatom 286 478 8 0 0 0 - FreqZ -;
#X text 289 520 Freq. Center;
#X obj 413 374 hsl 200 30 20 1200 0 1 qballZ empty empty -2 -8 0 10
-86853 -260097 -1 800 0;
#X text 520 350 Band-PassY Q;
#X text 342 418 0 < Z(t) < 60;
#X text 276 455 | 0;
#X text 590 454 60 |;
#X floatatom 462 277 9 0 0 0 - effect_paramX -;
#X floatatom 535 279 9 0 0 0 - effect_paramY -;
#X floatatom 601 279 9 0 0 0 - effect_paramZ -;
#X obj 107 70 vsl 40 90 1 1000 1 0 error_param error_init empty 0 -9
0 10 -33289 -261234 -1 5040 1;
#X text 106 50 error;
#X text 146 89 -- 0.01;
#X text 148 111 -- 0.001;
#X text 147 98 -- 0.005;
#X text 29 10 Lorenz System synthesizer;
#X floatatom 111 170 5 0 0 0 - - -;
#X text 147 76 -- unstable up here;
#X connect 42 0 48 0;
#X restore 522 411 pd controller;
#N canvas 1042 128 179 293 on/off 0;
#X obj 56 144 int;
#X obj 31 185 sel -1 1;
#X obj 29 49 key;
#X obj 28 101 r go;
#X obj 29 86 s pow;
#X obj 31 164 * -1;
#X msg 29 125 bang;
#X obj 29 144 -1;
#X msg 31 202 \; pd dsp 0;
#X msg 98 202 \; pd dsp 1;
#X obj 56 30 loadbang;
#X obj 56 49 s pow;
#X obj 29 68 sel 122;
#X text 96 50 <-- z start;
#X connect 0 0 5 1;
#X connect 1 0 8 0;
#X connect 1 1 9 0;
#X connect 2 0 12 0;
#X connect 3 0 6 0;
#X connect 5 0 0 0;
#X connect 5 0 1 0;
#X connect 6 0 7 0;
#X connect 7 0 5 0;
#X connect 10 0 11 0;
#X connect 12 0 4 0;
#X restore -1 484 pd on/off;
#X text 61 487 <- z start;
#X connect 3 0 39 0;
#X connect 3 0 43 0;
#X connect 4 0 3 1;
#X connect 6 0 10 0;
#X connect 7 0 9 0;
#X connect 8 0 15 0;
#X connect 9 0 3 0;
#X connect 10 0 9 0;
#X connect 10 1 9 1;
#X connect 11 0 16 0;
#X connect 12 0 18 0;
#X connect 13 0 15 1;
#X connect 15 0 28 0;
#X connect 16 0 19 0;
#X connect 18 0 20 0;
#X connect 19 0 21 0;
#X connect 20 0 19 0;
#X connect 20 1 19 1;
#X connect 21 0 40 0;
#X connect 21 0 48 0;
#X connect 22 0 21 0;
#X connect 22 1 21 1;
#X connect 23 0 22 0;
#X connect 24 0 29 0;
#X connect 25 0 24 0;
#X connect 25 1 24 1;
#X connect 26 0 24 0;
#X connect 27 0 25 0;
#X connect 28 0 29 0;
#X connect 28 1 29 1;
#X connect 29 0 41 0;
#X connect 29 0 53 0;
#X connect 30 0 16 1;
#X connect 31 0 10 0;
#X connect 31 0 20 0;
#X connect 31 0 25 0;
#X connect 32 0 33 0;
#X connect 32 0 63 0;
#X connect 34 0 37 0;
#X connect 34 0 64 0;
#X connect 35 0 57 0;
#X connect 36 0 38 0;
#X connect 36 0 65 0;
#X connect 42 0 43 1;
#X connect 43 0 45 0;
#X connect 44 0 46 0;
#X connect 45 0 46 0;
#X connect 45 1 46 1;
#X connect 46 0 32 1;
#X connect 47 0 48 1;
#X connect 48 0 49 0;
#X connect 49 0 50 0;
#X connect 49 1 50 1;
#X connect 50 0 34 1;
#X connect 50 0 35 0;
#X connect 51 0 50 0;
#X connect 52 0 53 1;
#X connect 53 0 54 0;
#X connect 54 0 55 0;
#X connect 54 1 55 1;
#X connect 55 0 36 1;
#X connect 56 0 55 0;
#X connect 57 0 34 0;
#X connect 57 0 32 0;
#X connect 57 0 36 0;
#X connect 61 0 57 1;
#X connect 63 0 58 0;
#X connect 63 0 71 0;
#X connect 64 0 59 0;
#X connect 64 0 71 1;
#X connect 65 0 60 0;
#X connect 65 0 71 2;
#X restore -266 27 pd Lorenz;
#X floatatom -266 71 9 0 0 0 - effect_paramX -;
#X floatatom -205 71 9 0 0 0 - effect_paramY -;
#X floatatom -145 71 9 0 0 0 - effect_paramZ -;
#X text -257 92 x y z;
