#N canvas 542 52 270 272 10;
#N canvas 857 86 471 329 partitions(5) 0;
#N canvas 252 225 392 339 partitions(5) 0;
#N canvas 388 495 363 373 ndot 1;
#X obj -665 285 outlet;
#N canvas 360 496 271 233 sawtooth 0;
#X obj 104 -932 == 1;
#X msg 104 -887 0 0;
#X obj 104 -910 select 1;
#X obj 24 -995 t b f;
#X text 144 -933 faster reset;
#X obj 24 -924 outlet;
#X obj 24 -1018 inlet;
#X obj 24 -972 pack 1 10;
#X floatatom 29 -893 5 0 0 0 - - -;
#X obj 24 -948 line 400 10;
#X text 22 -874 different speeds?;
#X connect 0 0 2 0;
#X connect 1 0 9 0;
#X connect 2 0 1 0;
#X connect 3 0 7 0;
#X connect 3 1 7 1;
#X connect 6 0 3 0;
#X connect 7 0 9 0;
#X connect 9 0 0 0;
#X connect 9 0 5 0;
#X connect 9 0 8 0;
#X restore -665 239 pd sawtooth line;
#X msg -640 206 0;
#X obj -674 133 bng 15 250 50 0 empty empty empty 17 7 0 10 -262144
-1 -1;
#X obj -674 90 inlet~;
#X obj -674 113 bonk~;
#X obj -626 148 delay 48000;
#X obj -607 100 inlet;
#X text -620 85 descent;
#X obj -563 126 inlet;
#X text -568 111 duration;
#X text -679 72 trigger;
#X obj -767 116 r ndot_trigger;
#X obj -523 125 r ndot_duration;
#X obj -523 147 log;
#X obj -523 173 * 48000;
#X floatatom -524 198 8 0 0 0 - - -;
#X obj -593 177 print it;
#X floatatom -722 282 8 0 0 0 - - -;
#X obj -665 262 * 10000;
#X text -614 264 <-- hmm;
#X obj -517 235 s for_env;
#X obj -674 157 1e+07;
#X obj -739 176 loadbang;
#X connect 1 0 19 0;
#X connect 2 0 1 0;
#X connect 3 0 6 0;
#X connect 3 0 22 0;
#X connect 4 0 5 0;
#X connect 5 0 3 0;
#X connect 6 0 17 0;
#X connect 6 0 2 0;
#X connect 7 0 22 1;
#X connect 9 0 6 1;
#X connect 12 0 3 0;
#X connect 12 0 22 0;
#X connect 13 0 14 0;
#X connect 14 0 15 0;
#X connect 15 0 6 1;
#X connect 15 0 16 0;
#X connect 15 0 21 0;
#X connect 19 0 0 0;
#X connect 22 0 1 0;
#X connect 22 0 18 0;
#X connect 23 0 2 0;
#X restore 102 61 pd ndot;
#X obj 25 87 pow 0;
#X obj 108 87 pow -2;
#X obj 154 87 pow -3;
#X obj 63 87 pow -1;
#X obj 199 87 pow -4;
#X obj 102 117 * 6;
#X obj 149 114 * 3;
#X obj 202 113 * 1;
#X obj 189 135 -;
#X obj 131 139 -;
#X obj 88 138 -;
#X obj 33 140 -;
#X obj 72 171 * 10;
#X obj 50 116 * 10;
#X obj 121 169 * 10;
#X obj 233 164 * 10;
#X obj 33 159 * 1;
#X obj 160 175 * 15;
#X obj 196 168 * 5;
#X obj 222 214 outlet;
#X obj 170 250 outlet;
#X obj 122 203 outlet;
#X obj 62 252 outlet;
#X obj 279 196 outlet;
#X obj 21 192 outlet;
#X obj 282 160 outlet;
#X text 283 140 5: n4*;
#X text 283 214 41: 5n3*(1-n*);
#X text 221 235 32: 10n3*(1-n*);
#X text 81 230 311: 10n2*(1-n*);
#X text 155 271 221: 15n2*(1-n*);
#X text 33 270 2111: 10n*(1-6n*);
#X text 0 212 11111: (1-10n*);
#X connect 0 0 1 0;
#X connect 0 0 4 0;
#X connect 0 0 2 0;
#X connect 0 0 3 0;
#X connect 0 0 5 0;
#X connect 1 0 12 0;
#X connect 2 0 6 0;
#X connect 2 0 10 0;
#X connect 3 0 7 0;
#X connect 3 0 9 0;
#X connect 4 0 14 0;
#X connect 4 0 11 0;
#X connect 5 0 8 0;
#X connect 5 0 26 0;
#X connect 6 0 11 1;
#X connect 7 0 10 1;
#X connect 8 0 9 1;
#X connect 9 0 19 0;
#X connect 9 0 16 0;
#X connect 10 0 15 0;
#X connect 10 0 18 0;
#X connect 11 0 13 0;
#X connect 12 0 17 0;
#X connect 13 0 23 0;
#X connect 14 0 12 1;
#X connect 15 0 22 0;
#X connect 16 0 24 0;
#X connect 17 0 25 0;
#X connect 18 0 21 0;
#X connect 19 0 20 0;
#X restore -927 -3986 pd partitions(5);
#X text -947 -4006 11111 2111 311 221 41 5;
#X floatatom -997 -3947 8 0 0 0 - - -;
#X floatatom -928 -3944 8 0 0 0 - - -;
#X floatatom -866 -3938 8 0 0 0 - - -;
#X floatatom -810 -3939 8 0 0 0 - - -;
#X floatatom -750 -3927 8 0 0 0 - - -;
#X floatatom -691 -3939 8 0 0 0 - - -;
#X floatatom -609 -3942 8 0 0 0 - - -;
#X msg -994 -3754 1200 700 1400 2000 500 12000 300;
#X obj -928 -3966 pack 0 0 0 0 0 0 0;
#N canvas 75 67 1023 587 saw 0;
#X obj -328 -3484 spigot;
#X floatatom -300 -3460 5 0 0 0 - - -;
#X obj -261 -3490 sel 0;
#X obj 48 -3721 inlet;
#X obj 46 -3697 unpack 0 0 0 0 0 0 0;
#X text 85 -3717 saw counter up;
#X obj -327 -3410 phasor~;
#X obj -328 -3441 sig~ 10;
#X msg -261 -3459 0;
#X obj -326 -3562 * 200;
#X obj -332 -3532 - 200;
#X obj -332 -3510 abs;
#X floatatom -279 -3545 5 0 0 0 - - -;
#X obj -295 -3507 > 0;
#X obj 539 -3497 spigot;
#X obj 606 -3503 sel 0;
#X obj 540 -3423 phasor~;
#X obj 539 -3454 sig~ 10;
#X msg 606 -3472 0;
#X obj 535 -3523 abs;
#X floatatom 588 -3558 5 0 0 0 - - -;
#X obj 572 -3520 > 0;
#X obj 400 -3501 spigot;
#X obj 467 -3507 sel 0;
#X obj 401 -3427 phasor~;
#X obj 400 -3458 sig~ 10;
#X msg 467 -3476 0;
#X obj 396 -3527 abs;
#X floatatom 449 -3562 5 0 0 0 - - -;
#X obj 433 -3524 > 0;
#X obj 276 -3490 spigot;
#X obj 343 -3496 sel 0;
#X obj 277 -3416 phasor~;
#X obj 276 -3447 sig~ 10;
#X msg 343 -3465 0;
#X obj 272 -3516 abs;
#X floatatom 325 -3551 5 0 0 0 - - -;
#X obj 309 -3513 > 0;
#X obj 127 -3488 spigot;
#X obj 194 -3494 sel 0;
#X obj 128 -3414 phasor~;
#X obj 127 -3445 sig~ 10;
#X msg 194 -3463 0;
#X obj 123 -3514 abs;
#X floatatom 176 -3549 8 0 0 0 - - -;
#X obj 160 -3511 > 0;
#X obj -20 -3494 spigot;
#X obj 47 -3500 sel 0;
#X obj -19 -3420 phasor~;
#X obj -20 -3451 sig~ 10;
#X msg 47 -3469 0;
#X obj -24 -3520 abs;
#X floatatom 29 -3555 5 0 0 0 - - -;
#X obj 13 -3517 > 0;
#X obj -159 -3488 spigot;
#X obj -92 -3494 sel 0;
#X obj -158 -3414 phasor~;
#X obj -159 -3445 sig~ 10;
#X msg -92 -3463 0;
#X obj -163 -3514 abs;
#X floatatom -110 -3549 5 0 0 0 - - -;
#X obj -126 -3511 > 0;
#X obj -157 -3566 * 300;
#X obj -18 -3572 * 400;
#X obj 129 -3566 * 500;
#X obj 278 -3568 * 600;
#X obj 402 -3579 * 700;
#X obj 541 -3575 * 800;
#X floatatom -223 -3547 5 0 0 0 - - -;
#X floatatom -63 -3525 5 0 0 0 - - -;
#X floatatom 79 -3526 5 0 0 0 - - -;
#X floatatom 236 -3521 5 0 0 0 - - -;
#X floatatom 346 -3525 5 0 0 0 - - -;
#X floatatom 488 -3531 5 0 0 0 - - -;
#X obj -25 -3542 - 5;
#X obj 123 -3536 - 45;
#X obj 396 -3549 - 1;
#X obj 270 -3538 - 0;
#X obj 535 -3545 - 1;
#X floatatom -20 -3472 5 0 0 0 - - -;
#X floatatom 127 -3466 5 0 0 0 - - -;
#X floatatom 276 -3468 5 0 0 0 - - -;
#X floatatom 400 -3479 5 0 0 0 - - -;
#X floatatom 539 -3475 5 0 0 0 - - -;
#X floatatom -159 -3466 5 0 0 0 - - -;
#X obj -163 -3536 - 98;
#X obj -35 -3249 dbtorms;
#X obj -55 -3229 *~ 0;
#X obj -67 -3208 +~;
#X obj 299 -3246 dbtorms;
#X obj 279 -3226 *~ 0;
#X obj 267 -3205 +~;
#X obj 15 -3266 r partlies1;
#X obj 361 -3264 r partlies2;
#X obj -23 -3166 outlet~;
#X obj 249 -3161 outlet~;
#X connect 0 0 1 0;
#X connect 0 0 7 0;
#X connect 2 0 8 0;
#X connect 3 0 4 0;
#X connect 4 0 9 0;
#X connect 4 1 62 0;
#X connect 4 2 63 0;
#X connect 4 3 64 0;
#X connect 4 4 65 0;
#X connect 4 5 66 0;
#X connect 4 6 67 0;
#X connect 6 0 87 0;
#X connect 7 0 6 0;
#X connect 8 0 7 0;
#X connect 9 0 10 0;
#X connect 9 0 12 0;
#X connect 9 0 13 0;
#X connect 10 0 11 0;
#X connect 11 0 0 0;
#X connect 13 0 0 1;
#X connect 13 0 2 0;
#X connect 14 0 17 0;
#X connect 14 0 83 0;
#X connect 15 0 18 0;
#X connect 16 0 90 0;
#X connect 17 0 16 0;
#X connect 18 0 17 0;
#X connect 19 0 14 0;
#X connect 21 0 14 1;
#X connect 21 0 15 0;
#X connect 22 0 25 0;
#X connect 22 0 82 0;
#X connect 23 0 26 0;
#X connect 24 0 90 0;
#X connect 25 0 24 0;
#X connect 26 0 25 0;
#X connect 27 0 22 0;
#X connect 29 0 22 1;
#X connect 29 0 23 0;
#X connect 30 0 33 0;
#X connect 30 0 81 0;
#X connect 31 0 34 0;
#X connect 32 0 90 0;
#X connect 33 0 32 0;
#X connect 34 0 33 0;
#X connect 35 0 30 0;
#X connect 37 0 30 1;
#X connect 37 0 31 0;
#X connect 38 0 41 0;
#X connect 38 0 80 0;
#X connect 39 0 42 0;
#X connect 40 0 87 0;
#X connect 41 0 40 0;
#X connect 42 0 41 0;
#X connect 43 0 38 0;
#X connect 45 0 38 1;
#X connect 45 0 39 0;
#X connect 46 0 49 0;
#X connect 46 0 79 0;
#X connect 47 0 50 0;
#X connect 48 0 87 0;
#X connect 49 0 48 0;
#X connect 50 0 49 0;
#X connect 51 0 46 0;
#X connect 53 0 46 1;
#X connect 53 0 47 0;
#X connect 54 0 57 0;
#X connect 54 0 84 0;
#X connect 55 0 58 0;
#X connect 56 0 87 0;
#X connect 57 0 56 0;
#X connect 58 0 57 0;
#X connect 59 0 54 0;
#X connect 61 0 54 1;
#X connect 61 0 55 0;
#X connect 62 0 60 0;
#X connect 62 0 61 0;
#X connect 62 0 85 0;
#X connect 63 0 52 0;
#X connect 63 0 53 0;
#X connect 63 0 74 0;
#X connect 64 0 44 0;
#X connect 64 0 45 0;
#X connect 64 0 75 0;
#X connect 65 0 36 0;
#X connect 65 0 37 0;
#X connect 65 0 77 0;
#X connect 66 0 28 0;
#X connect 66 0 29 0;
#X connect 66 0 76 0;
#X connect 67 0 20 0;
#X connect 67 0 21 0;
#X connect 67 0 78 0;
#X connect 74 0 51 0;
#X connect 74 0 69 0;
#X connect 75 0 43 0;
#X connect 75 0 70 0;
#X connect 76 0 27 0;
#X connect 76 0 72 0;
#X connect 77 0 35 0;
#X connect 77 0 71 0;
#X connect 78 0 19 0;
#X connect 78 0 73 0;
#X connect 85 0 59 0;
#X connect 85 0 68 0;
#X connect 86 0 87 1;
#X connect 87 0 88 0;
#X connect 88 0 94 0;
#X connect 89 0 90 1;
#X connect 90 0 91 0;
#X connect 91 0 95 0;
#X connect 92 0 86 0;
#X connect 93 0 89 0;
#X restore -891 -3871 pd saw gates;
#N canvas 34 134 1405 561 band 0;
#X obj 648 -3448 bp~;
#X text 706 -3421 20 1200;
#X obj 693 -3478 spigot;
#X floatatom 708 -3441 5 0 0 0 - - -;
#X floatatom 752 -3553 5 0 0 0 - - -;
#X obj 770 -3483 sel 0;
#X msg 770 -3462 400;
#X obj 706 -3569 exp;
#X obj 705 -3592 exp;
#X obj 437 -3442 bp~;
#X text 495 -3415 20 1200;
#X obj 482 -3472 spigot;
#X floatatom 497 -3435 5 0 0 0 - - -;
#X floatatom 541 -3547 5 0 0 0 - - -;
#X obj 559 -3477 sel 0;
#X msg 559 -3456 400;
#X obj 495 -3563 exp;
#X obj 494 -3586 exp;
#X obj 231 -3436 bp~;
#X text 289 -3409 20 1200;
#X obj 276 -3466 spigot;
#X floatatom 291 -3429 5 0 0 0 - - -;
#X floatatom 335 -3541 5 0 0 0 - - -;
#X obj 353 -3471 sel 0;
#X msg 353 -3450 400;
#X obj 289 -3557 exp;
#X obj 288 -3580 exp;
#X obj -547 -3427 bp~;
#X text -489 -3400 20 1200;
#X obj -567 -3552 noise~;
#X obj -502 -3457 spigot;
#X floatatom -487 -3420 5 0 0 0 - - -;
#X floatatom -443 -3532 5 0 0 0 - - -;
#X obj -425 -3462 sel 0;
#X msg -425 -3441 400;
#X obj -489 -3548 exp;
#X obj -490 -3571 exp;
#X obj -469 -3480 > 2.8;
#X obj 72 -3445 bp~;
#X text 112 -3395 20 1200;
#X obj 117 -3475 spigot;
#X floatatom 114 -3415 5 0 0 0 - - -;
#X floatatom 176 -3550 5 0 0 0 - - -;
#X obj 164 -3475 sel 0;
#X msg 164 -3453 400;
#X obj 130 -3566 exp;
#X obj 129 -3589 exp;
#X obj -139 -3439 bp~;
#X text -81 -3412 20 1200;
#X obj -94 -3469 spigot;
#X floatatom -79 -3432 5 0 0 0 - - -;
#X floatatom -35 -3544 7 0 0 0 - - -;
#X obj -17 -3474 sel 0;
#X msg -17 -3453 400;
#X obj -81 -3560 exp;
#X obj -82 -3583 exp;
#X obj -345 -3433 bp~;
#X text -287 -3406 20 1200;
#X obj -300 -3463 spigot;
#X floatatom -285 -3426 5 0 0 0 - - -;
#X floatatom -241 -3538 5 0 0 0 - - -;
#X obj -223 -3468 sel 0;
#X msg -223 -3447 400;
#X obj -287 -3554 exp;
#X obj -288 -3577 exp;
#X obj -267 -3486 > 2.8;
#X obj 47 -3660 unpack 200 200 200 200 200 200 200;
#X obj -566 -3676 inlet;
#X obj -61 -3492 > 2.71828;
#X obj 150 -3498 > 2.71818;
#X obj 309 -3489 > 2.71828;
#X obj 515 -3495 > 2.71928;
#X obj 726 -3501 > 2.71828;
#X obj 48 -3721 inlet;
#X msg -132 -3688 0 0 0 0 0 0 0;
#X obj -139 -3713 loadbang;
#X obj 49 -3701 unpack 400 400 400 400 400 400 400;
#X connect 2 0 0 2;
#X connect 2 0 3 0;
#X connect 5 0 6 0;
#X connect 6 0 0 2;
#X connect 7 0 2 0;
#X connect 7 0 4 0;
#X connect 7 0 72 0;
#X connect 8 0 7 0;
#X connect 11 0 9 2;
#X connect 11 0 12 0;
#X connect 14 0 15 0;
#X connect 15 0 9 2;
#X connect 16 0 11 0;
#X connect 16 0 13 0;
#X connect 16 0 71 0;
#X connect 17 0 16 0;
#X connect 20 0 18 2;
#X connect 20 0 21 0;
#X connect 23 0 24 0;
#X connect 24 0 18 2;
#X connect 25 0 20 0;
#X connect 25 0 22 0;
#X connect 25 0 70 0;
#X connect 26 0 25 0;
#X connect 30 0 27 2;
#X connect 30 0 31 0;
#X connect 33 0 34 0;
#X connect 34 0 27 2;
#X connect 35 0 30 0;
#X connect 35 0 32 0;
#X connect 35 0 37 0;
#X connect 36 0 35 0;
#X connect 37 0 30 1;
#X connect 37 0 33 0;
#X connect 40 0 38 2;
#X connect 40 0 41 0;
#X connect 43 0 44 0;
#X connect 44 0 38 2;
#X connect 45 0 40 0;
#X connect 45 0 42 0;
#X connect 45 0 69 0;
#X connect 46 0 45 0;
#X connect 49 0 47 2;
#X connect 49 0 50 0;
#X connect 52 0 53 0;
#X connect 53 0 47 2;
#X connect 54 0 49 0;
#X connect 54 0 51 0;
#X connect 54 0 68 0;
#X connect 55 0 54 0;
#X connect 58 0 56 2;
#X connect 58 0 59 0;
#X connect 61 0 62 0;
#X connect 62 0 56 2;
#X connect 63 0 58 0;
#X connect 63 0 60 0;
#X connect 63 0 65 0;
#X connect 64 0 63 0;
#X connect 65 0 58 1;
#X connect 65 0 61 0;
#X connect 66 0 27 1;
#X connect 66 1 56 1;
#X connect 66 2 47 1;
#X connect 66 3 38 1;
#X connect 66 4 18 1;
#X connect 66 5 9 1;
#X connect 66 6 0 1;
#X connect 67 0 66 0;
#X connect 68 0 49 1;
#X connect 68 0 52 0;
#X connect 69 0 40 1;
#X connect 69 0 43 0;
#X connect 70 0 20 1;
#X connect 70 0 23 0;
#X connect 71 0 11 1;
#X connect 71 0 14 0;
#X connect 72 0 2 1;
#X connect 72 0 5 0;
#X connect 73 0 76 0;
#X connect 74 0 66 0;
#X connect 75 0 74 0;
#X connect 76 0 36 0;
#X connect 76 1 64 0;
#X connect 76 2 55 0;
#X connect 76 3 46 0;
#X connect 76 4 26 0;
#X connect 76 5 17 0;
#X connect 76 6 8 0;
#X restore -997 -3730 pd band pass noise gates;
#X obj -926 -3921 s avg;
#X obj -994 -3922 s trigger;
#N canvas 228 72 1003 593 saw 0;
#X obj -328 -3484 spigot;
#X floatatom -300 -3460 5 0 0 0 - - -;
#X obj -261 -3490 sel 0;
#X obj 48 -3721 inlet;
#X obj 46 -3697 unpack 0 0 0 0 0 0 0;
#X text 85 -3717 saw counter up;
#X obj -327 -3410 phasor~;
#X obj -328 -3441 sig~ 10;
#X msg -261 -3459 0;
#X obj -332 -3532 - 200;
#X obj -332 -3510 abs;
#X floatatom -279 -3545 5 0 0 0 - - -;
#X obj -295 -3507 > 0;
#X obj 276 -3490 spigot;
#X obj 343 -3496 sel 0;
#X obj 277 -3416 phasor~;
#X obj 276 -3447 sig~ 10;
#X msg 343 -3465 0;
#X obj 272 -3516 abs;
#X floatatom 325 -3551 5 0 0 0 - - -;
#X obj 309 -3513 > 0;
#X obj 127 -3488 spigot;
#X obj 194 -3494 sel 0;
#X obj 128 -3414 phasor~;
#X obj 127 -3445 sig~ 10;
#X msg 194 -3463 0;
#X obj 123 -3514 abs;
#X floatatom 176 -3549 8 0 0 0 - - -;
#X obj 160 -3511 > 0;
#X obj -20 -3494 spigot;
#X obj 47 -3500 sel 0;
#X obj -19 -3420 phasor~;
#X obj -20 -3451 sig~ 10;
#X msg 47 -3469 0;
#X obj -24 -3520 abs;
#X floatatom 29 -3555 5 0 0 0 - - -;
#X obj 13 -3517 > 0;
#X obj -159 -3488 spigot;
#X obj -92 -3494 sel 0;
#X obj -158 -3414 phasor~;
#X obj -159 -3445 sig~ 10;
#X msg -92 -3463 0;
#X obj -163 -3514 abs;
#X floatatom -110 -3549 5 0 0 0 - - -;
#X obj -126 -3511 > 0;
#X floatatom -223 -3547 5 0 0 0 - - -;
#X floatatom -63 -3525 5 0 0 0 - - -;
#X floatatom 79 -3526 5 0 0 0 - - -;
#X floatatom 236 -3521 5 0 0 0 - - -;
#X obj -25 -3542 - 5;
#X obj 123 -3536 - 45;
#X obj 270 -3538 - 0;
#X floatatom -20 -3472 5 0 0 0 - - -;
#X floatatom 127 -3466 5 0 0 0 - - -;
#X floatatom 276 -3468 5 0 0 0 - - -;
#X floatatom -159 -3466 5 0 0 0 - - -;
#X obj -163 -3536 - 98;
#X obj -35 -3249 dbtorms;
#X obj -55 -3229 *~ 0;
#X obj -67 -3208 +~;
#X obj -36 -3272 hsl 128 15 0 180 0 0 empty empty empty -2 -8 0 10
-262144 -1 -1 0 1;
#X obj 299 -3246 dbtorms;
#X obj 279 -3226 *~ 0;
#X obj 267 -3205 +~;
#X obj 298 -3269 hsl 128 15 0 180 0 0 empty empty empty -2 -8 0 10
-262144 -1 -1 0 1;
#X text 382 -3333 41: 5n3*(1-n*);
#X text 274 -3336 32: 10n3*(1-n*);
#X text 18 -3350 311: 10n2*(1-n*);
#X text 147 -3343 221: 15n2*(1-n*);
#X text -111 -3350 2111: 10n*(1-6n*);
#X text -221 -3353 11111: (1-10n*);
#N canvas 0 22 450 300 sums 0;
#X obj 105 -3643 inlet;
#X obj 156 -3642 inlet;
#X obj 156 -3621 t b f;
#X obj 209 -3646 inlet;
#X obj 209 -3625 t b f;
#X obj 259 -3642 inlet;
#X obj 259 -3621 t b f;
#X obj 336 -3637 inlet;
#X obj 336 -3616 t b f;
#X obj 161 -3463 outlet;
#X obj 109 -3580 + 0;
#X obj 129 -3557 + 0;
#X obj 145 -3533 + 0;
#X obj 163 -3511 + 0;
#X connect 0 0 10 0;
#X connect 1 0 2 0;
#X connect 2 0 10 0;
#X connect 2 1 10 1;
#X connect 3 0 4 0;
#X connect 4 0 11 0;
#X connect 4 1 11 1;
#X connect 5 0 6 0;
#X connect 6 0 12 0;
#X connect 6 1 12 1;
#X connect 7 0 8 0;
#X connect 8 0 13 0;
#X connect 8 1 13 1;
#X connect 10 0 11 0;
#X connect 11 0 12 0;
#X connect 12 0 13 0;
#X connect 13 0 9 0;
#X restore -198 -3680 pd sums;
#N canvas 0 22 450 300 sums 0;
#X obj 105 -3643 inlet;
#X obj 156 -3642 inlet;
#X obj 156 -3621 t b f;
#X obj 209 -3646 inlet;
#X obj 209 -3625 t b f;
#X obj 259 -3642 inlet;
#X obj 259 -3621 t b f;
#X obj 336 -3637 inlet;
#X obj 336 -3616 t b f;
#X obj 161 -3463 outlet;
#X obj 109 -3580 + 0;
#X obj 125 -3558 + 0;
#X obj 145 -3532 + 0;
#X obj 163 -3511 + 0;
#X connect 0 0 10 0;
#X connect 1 0 2 0;
#X connect 2 0 10 0;
#X connect 2 1 10 1;
#X connect 3 0 4 0;
#X connect 4 0 11 0;
#X connect 4 1 11 1;
#X connect 5 0 6 0;
#X connect 6 0 12 0;
#X connect 6 1 12 1;
#X connect 7 0 8 0;
#X connect 8 0 13 0;
#X connect 8 1 13 1;
#X connect 10 0 11 0;
#X connect 11 0 12 0;
#X connect 12 0 13 0;
#X connect 13 0 9 0;
#X restore -114 -3644 pd sums;
#X text 505 -3331 5: n4*;
#X text -192 -3696 1's;
#N canvas 0 22 450 300 sums 0;
#X obj 105 -3643 inlet;
#X obj 156 -3642 inlet;
#X obj 156 -3621 t b f;
#X obj 209 -3646 inlet;
#X obj 209 -3625 t b f;
#X obj 259 -3642 inlet;
#X obj 259 -3621 t b f;
#X obj 336 -3637 inlet;
#X obj 336 -3616 t b f;
#X obj 161 -3463 outlet;
#X obj 109 -3580 + 0;
#X obj 125 -3558 + 0;
#X obj 145 -3533 + 0;
#X obj 163 -3511 + 0;
#X connect 0 0 10 0;
#X connect 1 0 2 0;
#X connect 2 0 10 0;
#X connect 2 1 10 1;
#X connect 3 0 4 0;
#X connect 4 0 11 0;
#X connect 4 1 11 1;
#X connect 5 0 6 0;
#X connect 6 0 12 0;
#X connect 6 1 12 1;
#X connect 7 0 8 0;
#X connect 8 0 13 0;
#X connect 8 1 13 1;
#X connect 10 0 11 0;
#X connect 11 0 12 0;
#X connect 12 0 13 0;
#X connect 13 0 9 0;
#X restore 52 -3627 pd sums;
#X text -106 -3673 2's;
#X text 146 -3590 4's;
#X text 86 -3645 3's;
#X text 281 -3587 5's;
#X obj -326 -3562 * 2000;
#X obj -157 -3566 * 3000;
#X obj -18 -3572 * 4000;
#X obj 129 -3566 * 5000;
#X obj 278 -3568 * 6000;
#X obj -48 -3307 r exactlies1;
#X obj 315 -3291 r exactlies2;
#X obj -33 -3176 outlet~;
#X obj 239 -3171 outlet~;
#X connect 0 0 1 0;
#X connect 0 0 7 0;
#X connect 2 0 8 0;
#X connect 3 0 4 0;
#X connect 4 0 71 0;
#X connect 4 1 71 1;
#X connect 4 1 72 0;
#X connect 4 2 71 2;
#X connect 4 2 75 0;
#X connect 4 3 71 3;
#X connect 4 3 72 1;
#X connect 4 4 72 2;
#X connect 4 4 75 1;
#X connect 4 5 71 4;
#X connect 4 5 83 0;
#X connect 4 6 84 0;
#X connect 6 0 58 0;
#X connect 7 0 6 0;
#X connect 8 0 7 0;
#X connect 9 0 10 0;
#X connect 10 0 0 0;
#X connect 12 0 0 1;
#X connect 12 0 2 0;
#X connect 13 0 16 0;
#X connect 13 0 54 0;
#X connect 14 0 17 0;
#X connect 15 0 62 0;
#X connect 16 0 15 0;
#X connect 17 0 16 0;
#X connect 18 0 13 0;
#X connect 20 0 13 1;
#X connect 20 0 14 0;
#X connect 21 0 24 0;
#X connect 21 0 53 0;
#X connect 22 0 25 0;
#X connect 23 0 62 0;
#X connect 24 0 23 0;
#X connect 25 0 24 0;
#X connect 26 0 21 0;
#X connect 28 0 21 1;
#X connect 28 0 22 0;
#X connect 29 0 32 0;
#X connect 29 0 52 0;
#X connect 30 0 33 0;
#X connect 31 0 62 0;
#X connect 32 0 31 0;
#X connect 33 0 32 0;
#X connect 34 0 29 0;
#X connect 36 0 29 1;
#X connect 36 0 30 0;
#X connect 37 0 40 0;
#X connect 37 0 55 0;
#X connect 38 0 41 0;
#X connect 39 0 58 0;
#X connect 40 0 39 0;
#X connect 41 0 40 0;
#X connect 42 0 37 0;
#X connect 44 0 37 1;
#X connect 44 0 38 0;
#X connect 49 0 34 0;
#X connect 49 0 46 0;
#X connect 50 0 26 0;
#X connect 50 0 47 0;
#X connect 51 0 18 0;
#X connect 51 0 48 0;
#X connect 56 0 42 0;
#X connect 56 0 45 0;
#X connect 57 0 58 1;
#X connect 58 0 59 0;
#X connect 59 0 87 0;
#X connect 60 0 57 0;
#X connect 61 0 62 1;
#X connect 62 0 63 0;
#X connect 63 0 88 0;
#X connect 64 0 61 0;
#X connect 71 0 80 0;
#X connect 72 0 81 0;
#X connect 75 0 82 0;
#X connect 80 0 9 0;
#X connect 80 0 11 0;
#X connect 80 0 12 0;
#X connect 81 0 43 0;
#X connect 81 0 44 0;
#X connect 81 0 56 0;
#X connect 82 0 35 0;
#X connect 82 0 36 0;
#X connect 82 0 49 0;
#X connect 83 0 27 0;
#X connect 83 0 28 0;
#X connect 83 0 50 0;
#X connect 84 0 19 0;
#X connect 84 0 20 0;
#X connect 84 0 51 0;
#X connect 85 0 57 0;
#X connect 86 0 61 0;
#X restore -800 -3869 pd saw gates exactlies;
#X obj -764 -3793 outlet~;
#X obj -704 -3792 outlet~;
#X obj -766 -3817 +~;
#X obj -704 -3816 +~;
#X connect 0 0 2 0;
#X connect 0 0 10 0;
#X connect 0 1 3 0;
#X connect 0 1 10 1;
#X connect 0 2 4 0;
#X connect 0 2 10 2;
#X connect 0 3 5 0;
#X connect 0 3 10 3;
#X connect 0 4 6 0;
#X connect 0 4 10 4;
#X connect 0 5 7 0;
#X connect 0 5 10 5;
#X connect 0 6 8 0;
#X connect 0 6 10 6;
#X connect 2 0 9 0;
#X connect 2 0 14 0;
#X connect 3 0 13 0;
#X connect 9 0 12 0;
#X connect 10 0 11 0;
#X connect 10 0 12 1;
#X connect 10 0 15 0;
#X connect 11 0 18 0;
#X connect 11 1 19 0;
#X connect 15 0 18 1;
#X connect 15 1 19 1;
#X connect 18 0 16 0;
#X connect 19 0 17 0;
#X restore -198 52 pd partitions(5);
#N canvas 390 508 224 293 start/stop 0;
#X obj 52 130 int;
#X obj 27 171 sel -1 1;
#X obj 25 35 key;
#X obj 25 92 r go;
#X obj 25 72 s pow;
#X obj 27 150 * -1;
#X msg 26 111 bang;
#X obj 25 130 -1;
#X msg 27 216 \; pd dsp 0;
#X msg 94 216 \; pd dsp 1;
#X obj 93 184 loadbang;
#X obj 25 54 sel 122;
#X text 77 56 <- letter z;
#X connect 0 0 5 1;
#X connect 1 0 8 0;
#X connect 1 1 9 0;
#X connect 2 0 11 0;
#X connect 3 0 6 0;
#X connect 5 0 0 0;
#X connect 5 0 1 0;
#X connect 6 0 7 0;
#X connect 7 0 5 0;
#X connect 10 0 9 0;
#X connect 11 0 4 0;
#X restore -197 29 pd start/stop;
#N canvas 45 494 321 330 controller 1;
#X obj -145 70 bng 40 250 50 0 ndot_trigger pow empty 17 7 0 10 -4032
-4160 -1;
#X text -159 111 ndot trigger;
#X obj 47 29 vsl 40 80 1 5 1 1 ndot_duration empty empty 0 -9 0 10
-1 -260097 -1 800 0;
#X text 28 113 ndot duration;
#X text -125 253 partlies;
#X obj -157 158 hsl 128 30 0 180 0 1 exactlies1 empty empty -2 -8 0
10 -33289 -261234 -1 6200 1;
#X text -126 194 exactlies;
#X obj -16 158 hsl 128 30 0 180 0 1 exactlies2 empty empty -2 -8 0
10 -33289 -261234 -1 5700 1;
#X obj -156 220 hsl 128 30 0 180 0 1 partlies1 empty empty -2 -8 0
10 -33289 -204800 -1 6100 1;
#X obj -15 220 hsl 128 30 0 180 0 1 partlies2 empty empty -2 -8 0 10
-33289 -204800 -1 5300 1;
#X text 88 52 --;
#X floatatom -81 298 5 0 0 0 - - -;
#X restore -196 7 pd controller;
#N canvas 291 56 729 655 bpm_tracker 0;
#X obj 133 160 alternate;
#X obj 133 111 bonk~;
#X obj 133 184 timer;
#X obj 61 94 spigot~;
#X msg 94 32 bang;
#X obj 27 49 delay 1000;
#X obj 96 74 tgl 15 1 empty empty empty 17 7 0 10 -262144 -1 -1 0 1
;
#X text 423 242 measure time between beats;
#X obj 133 137 bng 15 250 50 0 empty empty empty 17 7 0 10 -262144
-1 -1;
#X obj 39 73 osc~ 110;
#X obj 133 37 inlet~;
#X text 47 31 test;
#X obj 153 62 loadbang;
#X text 134 20 line-in;
#X obj 133 206 outlet;
#X obj 133 277 fiddle~;
#X floatatom 133 298 5 0 0 0 - - -;
#X obj 168 295 unpack;
#X floatatom 168 315 0 0 0 0 - - -;
#X floatatom 201 315 0 0 0 0 - - -;
#X obj 19 272 tabwrite~ filtered;
#N canvas 0 22 450 278 (subpatch) 0;
#X array filtered 600 float 5;
#A 0 0.00275135 0.00408709 0.00566971 0.0057112 0.00257778 0.00361931
0.00538146 0.00323093 0.00276637 0.00515008 0.00508821 0.00321424 0.000778913
0.00321579 0.00494552 0.00408459 0.00239694 0.00358331 0.00343335 0.00284636
0.0020411 0.00410581 0.00438917 0.00355029 0.00170159 0.00300229 0.00336444
0.00313783 0.00223303 0.00374019 0.00394273 0.00275648 0.000232697
0.00237429 0.00466597 0.00337589 0.00161743 0.00281572 0.00319457 0.00187337
0.0011605 0.00390685 0.0043149 0.00201988 0.00123036 0.00291944 0.00232172
0.00258183 0.00209618 0.0033468 0.00236189 0.00159848 0.00055337 0.00244403
0.00320327 0.00265729 0.000731349 0.00141513 0.00199807 0.00158882
0.000638723 0.00241363 0.00309634 0.00103462 -0.000261307 0.00127292
0.00173748 0.000899673 0.000607014 0.00220287 0.00152171 -0.000154853
-0.00085485 0.00169575 0.0021807 0.000673652 -9.7394e-05 0.00104332
0.000397801 0.000304222 5.40018e-05 0.00158179 0.0011183 6.63996e-05
-0.00114584 0.000455618 0.0010519 0.000546098 -0.000237226 0.000975251
0.000691533 -0.00101662 -0.00149381 0.00161493 0.00224495 -0.000773668
-0.00136089 0.000516891 -0.000170946 -0.00109875 -0.000655055 0.00128233
-8.90493e-05 -0.00131845 -0.0019933 1.0252e-05 7.35521e-05 -0.000389934
-0.00128496 -5.48363e-06 -0.000743866 -0.00225174 -0.0018388 0.00040102
-0.000153303 -0.00159621 -0.00259352 -0.00114167 -0.000919461 -0.00134695
-0.00201702 -0.000150084 -0.000763416 -0.00356174 -0.00330508 -0.000851154
-0.000770569 -0.00160253 -0.00238442 -0.000962377 -0.00223565 -0.00386286
-0.00169349 0.000385046 -0.00189161 -0.002792 -0.00354242 -0.00190616
-0.00203228 -0.00195372 -0.00260353 -0.00131905 -0.00203884 -0.00369859
-0.00329888 -0.00144756 -0.00186563 -0.00273037 -0.00298715 -0.00192797
-0.00298297 -0.00387204 -0.00280142 -0.000970125 -0.00234568 -0.00423026
-0.00491643 -0.00268435 -0.00247943 -0.00358891 -0.00309253 -0.00207555
-0.00386596 -0.00498343 -0.00422215 -0.00189471 -0.00255585 -0.00381017
-0.00412786 -0.00325382 -0.00419676 -0.00429559 -0.00370359 -0.00212336
-0.00336146 -0.00541651 -0.00595593 -0.00300479 -0.00257134 -0.00502467
-0.00462258 -0.00317013 -0.0043782 -0.00541651 -0.00462711 -0.0020628
-0.00306749 -0.00534856 -0.00526929 -0.00350285 -0.00456059 -0.0053457
-0.00409579 -0.00251198 -0.00478351 -0.00634754 -0.00593281 -0.00324905
-0.003883 -0.00515783 -0.00503969 -0.00436687 -0.00588751 -0.00579619
-0.00510168 -0.0032053 -0.00425017 -0.00578213 -0.00639415 -0.00480103
-0.00487375 -0.00539386 -0.004951 -0.00409758 -0.00575638 -0.00710618
-0.00614917 -0.0035187 -0.00421727 -0.00620377 -0.00609994 -0.00511456
-0.00600648 -0.0058769 -0.00532877 -0.00405848 -0.00548756 -0.00685453
-0.00669062 -0.00508726 -0.00547278 -0.00572085 -0.00516093 -0.00421369
-0.00626588 -0.00778496 -0.00610423 -0.00381374 -0.00527906 -0.00688994
-0.00652778 -0.00530028 -0.00640953 -0.00641024 -0.00558138 -0.00460088
-0.00677311 -0.00799704 -0.00664663 -0.00519574 -0.00632775 -0.0061841
-0.00584185 -0.00519943 -0.00735223 -0.00774968 -0.00555968 -0.00447905
-0.00656748 -0.00706148 -0.00742018 -0.00607967 -0.00614679 -0.00614905
-0.00625455 -0.005476 -0.00698209 -0.00843179 -0.00682569 -0.00564492
-0.00670958 -0.00679755 -0.00608587 -0.00549197 -0.0070895 -0.00738907
-0.00599778 -0.00484967 -0.00639939 -0.00738728 -0.00714707 -0.00583458
-0.00624251 -0.00645304 -0.0061208 -0.0056529 -0.00744379 -0.00839496
-0.00663912 -0.00535297 -0.00660145 -0.007025 -0.00666308 -0.00631905
-0.00768948 -0.00730741 -0.00563049 -0.00505197 -0.00733697 -0.00814283
-0.00709546 -0.00543046 -0.00676012 -0.00731528 -0.00547099 -0.00624073
-0.00855875 -0.00707889 -0.00626981 -0.00562084 -0.00696993 -0.00680983
-0.0066129 -0.00658393 -0.00775385 -0.00713003 -0.00566363 -0.00563991
-0.00758111 -0.00782275 -0.0064981 -0.00521505 -0.00624442 -0.00658107
-0.00543046 -0.00633025 -0.00819433 -0.00705981 -0.00578666 -0.00503397
-0.00632393 -0.00684893 -0.00674212 -0.0063976 -0.00738871 -0.00709796
-0.00501215 -0.00528109 -0.00780356 -0.008039 -0.00611281 -0.00481081
-0.00623441 -0.0066762 -0.00573015 -0.00590694 -0.0075357 -0.00681937
-0.00524712 -0.00466609 -0.00708342 -0.00771034 -0.00576222 -0.00612485
-0.00784934 -0.00607562 -0.00479496 -0.00548983 -0.00814188 -0.0073874
-0.00510871 -0.00474823 -0.00630927 -0.00566852 -0.00573409 -0.00622499
-0.00721312 -0.00580931 -0.00438607 -0.00445914 -0.00647533 -0.0068624
-0.005548 -0.00588882 -0.0067637 -0.00534737 -0.00463128 -0.00540709
-0.00716627 -0.00631642 -0.00418556 -0.00414991 -0.00587583 -0.00582826
-0.0051254 -0.00535023 -0.00624681 -0.00518298 -0.00380075 -0.00414872
-0.0063802 -0.00668752 -0.00493264 -0.00484681 -0.00572681 -0.00476158
-0.00415468 -0.00503135 -0.00727963 -0.00635874 -0.00317252 -0.00328517
-0.00575185 -0.00578928 -0.00469637 -0.00476253 -0.00612569 -0.00461328
-0.0027504 -0.00370038 -0.00635362 -0.00541031 -0.00372994 -0.00393391
-0.00521684 -0.00395191 -0.00389624 -0.00499856 -0.00618303 -0.004282
-0.00266528 -0.00293839 -0.00521886 -0.00559235 -0.00432038 -0.00359821
-0.00426364 -0.00370991 -0.00244868 -0.00371528 -0.00564802 -0.00461996
-0.00291467 -0.00261712 -0.00369751 -0.00338304 -0.00309503 -0.003829
-0.00507796 -0.00375772 -0.00167942 -0.00266862 -0.00490451 -0.00456929
-0.00352275 -0.00275815 -0.0034616 -0.00290382 -0.00210428 -0.0035454
-0.0046773 -0.0030539 -0.00192404 -0.00165725 -0.00292683 -0.00326526
-0.00300932 -0.00297821 -0.00383461 -0.00265026 -0.000267625 -0.00235271
-0.00469792 -0.00334466 -0.00206149 -0.00196421 -0.0026319 -0.00145435
-0.00157487 -0.00296581 -0.00369334 -0.00179291 -0.00101662 -0.00126112
-0.00238276 -0.00199854 -0.00162542 -0.00226283 -0.00205684 -0.00044322
-0.000483513 -0.0019809 -0.00320435 -0.00209522 -0.000665903 -0.000285268
-0.000929952 -0.00122237 -0.00133038 -0.00207806 -0.00233638 -0.00102997
0.000499964 -9.7394e-05 -0.00208724 -0.00203013 -0.000288844 -0.00132608
-0.00132072 0.000696301 0.000123143 -0.00116491 -0.00224471 -0.000832796
0.000642538 0.000461817 -0.000539422 -0.000371575 -0.00017345 -0.000903845
-0.000929236 0.000648141 0.00112712 5.36442e-05 -0.00149083 -0.000806808
0.000565886 0.000115156 0.000101924 0.0013634 0.000826001 -0.000541806
-0.00108147 0.000767946 0.00225723 0.00129318 6.11544e-05 0.000570774
0.000677586 2.5034e-06 0.000209332 0.00199151 0.00205839 0.000484586
-0.000125885 0.000965118 0.00109768 0.00139725 0.00161636 0.00192213
0.00147057 0.000488043 0.000420213 0.00172186 0.00302839 0.00192022
0.000544429 0.000805855 0.00191557 0.00157261 0.00149918 0.00281894
0.00309753 0.0010165 0.000207782 0.0020721 0.00282884 0.00202298 0.00184286
0.0031265 0.00239193 0.00106728 0.00127172 0.00340557 0.00375247 0.00210953
0.00150776 0.00254178 0.00243521 0.00244331 0.00288451 0.00378132 0.00343812
0.0018239 0.00175095 0.00318635 0.00376737 0.0030942 0.00279915 0.00330806
0.00310743 0.00218463 0.00254261 0.00431454 0.00466251 0.00219882 0.00195956
0.00361431 0.00333226 0.00317264 0.00377262 0.0045166 0.00356948 0.00285864
0.00296581 0.00382829 0.00465906 0.00419343 0.00388205 0.00386012;
#X coords 0 2 599 -2 400 200 1 0 0;
#X restore 258 22 graph;
#X obj 133 255 adc~;
#X text 279 79 ------------------------------------------------------
;
#X obj 19 252 r filtered;
#X obj 26 152 s ndot_trigger;
#N canvas 899 258 390 544 set_thresh 0;
#X obj 177 51 bng 15 250 50 0 empty empty empty 17 7 0 10 -262144 -1
-1;
#X obj 177 71 f;
#X obj 178 96 + 1;
#X text 11 102 if f+1 for 3 sec...;
#X obj 223 147 + 1;
#X text 9 126 mod to taste;
#X text 175 12 pulse;
#X msg 180 204 thresh;
#X obj 234 202 pack 10 10;
#X obj 203 232 list;
#X obj 204 252 list trim;
#X obj 223 172 t b b f;
#X obj 204 275 bonk~;
#X msg 30 207 thresh;
#X obj 84 205 pack 10 10;
#X obj 53 235 list;
#X obj 54 255 list trim;
#X floatatom 45 149 5 0 30 0 - - -;
#X floatatom 84 151 5 0 30 0 - - -;
#X obj 73 175 t b b f;
#X obj 54 278 bonk~;
#X obj 54 298 bng 15 250 50 0 empty empty empty 17 7 0 10 -262144 -1
-1;
#X obj 60 386 &&;
#X obj 65 335 del 10;
#X msg 65 356 0;
#X obj 116 333 del 10;
#X msg 116 354 0;
#X obj 116 313 bng 15 250 50 0 empty empty empty 17 7 0 10 -262144
-1 -1;
#X obj 103 376 t b f;
#X obj 60 407 == 1;
#X text 247 227 threshover;
#X obj 6 394 loadbang;
#X msg 9 369 bang;
#X obj 177 29 r pulse;
#X obj 21 489 s pulse;
#X obj 116 28 inlet;
#X obj 1 295 outlet;
#X text 137 153 hi;
#X text 9 161 low;
#X obj 6 422 metro 50;
#X floatatom 216 57 5 0 0 0 - - -;
#X msg 134 435 stop;
#X msg 139 479 0;
#X connect 0 0 1 0;
#X connect 0 0 40 0;
#X connect 1 0 2 0;
#X connect 2 0 1 1;
#X connect 2 0 18 0;
#X connect 2 0 4 0;
#X connect 4 0 8 0;
#X connect 7 0 9 0;
#X connect 8 0 9 1;
#X connect 9 0 10 0;
#X connect 10 0 12 0;
#X connect 11 0 7 0;
#X connect 11 1 8 0;
#X connect 11 2 8 1;
#X connect 12 0 27 0;
#X connect 13 0 15 0;
#X connect 14 0 15 1;
#X connect 15 0 16 0;
#X connect 16 0 20 0;
#X connect 16 0 36 0;
#X connect 17 0 19 0;
#X connect 18 0 14 0;
#X connect 19 0 13 0;
#X connect 19 1 14 0;
#X connect 19 2 14 1;
#X connect 20 0 21 0;
#X connect 21 0 23 0;
#X connect 21 0 22 0;
#X connect 22 0 29 0;
#X connect 23 0 24 0;
#X connect 24 0 22 0;
#X connect 25 0 26 0;
#X connect 26 0 28 0;
#X connect 27 0 25 0;
#X connect 27 0 28 0;
#X connect 28 0 22 0;
#X connect 28 1 22 1;
#X connect 29 0 41 0;
#X connect 31 0 39 0;
#X connect 32 0 39 0;
#X connect 33 0 0 0;
#X connect 39 0 34 0;
#X connect 41 0 39 0;
#X connect 41 0 42 0;
#X connect 42 0 1 0;
#X restore 256 264 pd set_thresh;
#X msg 155 85 thresh 2 50;
#X text 180 111 no idea;
#X connect 0 0 2 0;
#X connect 0 1 2 1;
#X connect 1 0 8 0;
#X connect 2 0 14 0;
#X connect 3 1 1 0;
#X connect 4 0 5 0;
#X connect 4 0 6 0;
#X connect 5 0 6 0;
#X connect 6 0 3 1;
#X connect 8 0 0 0;
#X connect 8 0 25 0;
#X connect 8 0 20 0;
#X connect 9 0 3 0;
#X connect 10 0 1 0;
#X connect 12 0 27 0;
#X connect 15 0 16 0;
#X connect 15 2 17 0;
#X connect 17 0 18 0;
#X connect 17 1 19 0;
#X connect 22 0 15 0;
#X connect 22 0 20 0;
#X connect 24 0 20 0;
#X connect 27 0 1 0;
#X restore -69 65 pd bpm_tracker;
#X obj -69 25 adc~;
#X floatatom -69 89 9 0 0 0 - - -;
#X obj -189 216 dac~;
#X obj -189 165 adc~;
#X obj -72 119 s ndot_duration;
#N canvas 373 91 560 533 envelope_gen 0;
#N canvas 0 22 450 300 (subpatch) 0;
#X array adsr-output 44100 float 0;
#X coords 0 1.02 44100 -1.02 200 130 1;
#X restore 131 342 graph;
#X text 131 474 ------ 1 second ------;
#X obj 28 102 r trigger;
#X obj 44 178 tabwrite~ adsr-output;
#X obj 66 153 r graphit;
#X msg 271 99 bang;
#X text 315 100 <-- attack and delayed release;
#X text 386 206 <-- attack only;
#X text 387 283 <-- release only;
#X msg 282 148 \; trigger 0;
#X text 334 462 -1;
#X text 336 337 1;
#X obj 27 230 *~;
#N canvas 270 106 869 720 adsr 0;
#X obj 115 121 inlet;
#X obj 445 161 inlet;
#X text 111 96 trigger;
#X obj 115 149 sel 0;
#X obj 254 165 t b;
#X obj 176 274 f \$1;
#X obj 176 299 pack 0 \$2;
#X obj 502 161 inlet;
#X obj 448 291 del \$2;
#X obj 468 439 line~;
#X obj 472 314 f \$4;
#X obj 511 389 pack 0 \$3;
#X obj 564 161 inlet;
#X obj 626 161 inlet;
#X obj 699 160 inlet;
#X msg 115 180 stop;
#X obj 622 316 pack 0 \$5;
#X text 445 139 level;
#X obj 511 365 * \$1;
#X obj 468 464 outlet~;
#X text 112 388 and pack with;
#X text 113 408 attack time;
#X text 41 136 if zero;
#X text 42 153 release;
#X text 22 170 and cancel;
#X text 53 187 decay;
#X text 294 282 on attack \, set a;
#X text 288 315 recall sustain value;
#X text 325 388 pack with decay time;
#X text 615 342 on release ramp;
#X text 616 359 back to zero;
#X obj 472 339 * 0.01;
#X text 57 577 Objects such as "f" and "pack" can be given dollar sign
arguments to initialize their contents from adsr's creation arguments.
Inlets are supplied to change them on the fly.;
#X text 23 12 ADSR ENVELOPE;
#X text 498 139 attack;
#X text 565 138 decay;
#X text 619 139 sustain;
#X text 696 139 release;
#X text 212 81 attack;
#X obj 214 102 moses;
#X obj 204 132 t b b;
#X msg 138 300 0;
#X text 30 283 optionally;
#X text 20 301 bash to zero;
#X text 35 256 ATTACK:;
#X text 59 487 When you send this patch a positive trigger it schedules
a line~ to do an attack and decay \, and if zero \, it starts the release
ramp.;
#X text 505 639 Updated for Pd version 0.37;
#X text 265 99 test for negative trigger;
#X text 263 123 if so \, zero;
#X text 264 139 the output;
#X text 288 175 in any case;
#X text 313 365 multiply by peak level;
#X text 290 296 delay for sustain;
#X text 286 338 convert from percent;
#X text 165 350 ... then;
#X text 113 369 recall peak level;
#X text 449 123 peak;
#X text 291 159 ... do this;
#X text 57 539 Negative triggers cause the output to jump to zero and
then attack (instead of attacking from the current location).;
#X text 218 11 Arguments: level \, attack time \, decay time \, sustain
level \, release time. A \, D \, and R are in msec and S is in percent.
This patch is used as an abstraction in various examples.;
#X connect 0 0 3 0;
#X connect 1 0 5 1;
#X connect 1 0 18 1;
#X connect 3 0 15 0;
#X connect 3 0 16 0;
#X connect 3 1 39 0;
#X connect 4 0 5 0;
#X connect 4 0 8 0;
#X connect 5 0 6 0;
#X connect 6 0 9 0;
#X connect 7 0 6 1;
#X connect 7 0 8 1;
#X connect 8 0 10 0;
#X connect 9 0 19 0;
#X connect 10 0 31 0;
#X connect 11 0 9 0;
#X connect 12 0 11 1;
#X connect 13 0 10 1;
#X connect 14 0 16 1;
#X connect 15 0 8 0;
#X connect 16 0 9 0;
#X connect 18 0 11 0;
#X connect 31 0 18 0;
#X connect 39 0 40 0;
#X connect 39 1 4 0;
#X connect 40 0 4 0;
#X connect 40 1 41 0;
#X connect 41 0 9 0;
#X restore 28 128 pd adsr 1 100 200 50 300;
#X obj 97 101 unpack 1 100 200 50 300;
#X msg 271 187 \; trigger 1 \; graphit bang;
#X msg 270 255 \; trigger 0 \; graphit bang;
#X obj 98 51 loadbang;
#X obj 13 25 inlet;
#X obj 201 28 inlet;
#X obj 46 205 inlet~;
#X obj 151 252 spigot~;
#X obj 191 210 r trigger;
#X obj 116 218 osc~ 440;
#X obj 282 123 del 2000;
#X floatatom 352 56 5 0 0 0 - - -;
#X obj 323 27 r for_env;
#X obj 27 258 outlet~;
#X msg 99 77 0.5 10 200 50 300;
#X connect 2 0 13 0;
#X connect 4 0 3 0;
#X connect 5 0 15 0;
#X connect 5 0 24 0;
#X connect 12 0 27 0;
#X connect 13 0 12 0;
#X connect 13 0 3 0;
#X connect 14 0 13 1;
#X connect 14 1 13 2;
#X connect 14 2 13 3;
#X connect 14 3 13 4;
#X connect 14 4 13 5;
#X connect 17 0 28 0;
#X connect 18 0 5 0;
#X connect 19 0 14 0;
#X connect 20 0 12 1;
#X connect 22 0 21 1;
#X connect 23 0 21 0;
#X connect 24 0 9 0;
#X connect 26 0 25 0;
#X connect 28 0 14 0;
#X restore -107 193 pd envelope_gen;
#X text -129 178 trigger;
#X text -80 177 line;
#X text -45 178 peak_a_d_s_r;
#X obj -107 165 r ndot_trigger;
#X connect 0 0 6 0;
#X connect 0 1 6 1;
#X connect 3 0 5 0;
#X connect 4 0 3 0;
#X connect 4 1 3 0;
#X connect 7 0 6 0;
#X connect 7 0 6 1;
#X connect 13 0 9 0;
