#N canvas 878 95 404 346 12;
#N canvas 1362 113 474 486 Strogatz 1;
#X obj 297 127 *;
#X obj 296 107 *;
#X obj 291 314 bp~;
#X obj 286 354 dac~;
#X text 149 248 Glissando;
#X obj 290 91 t b f;
#X obj 236 91 r X val;
#X obj 337 94 * -1;
#X obj 337 111 + 1;
#X obj 51 185 s X val;
#X obj 313 280 r bp;
#X obj 126 363 s bp;
#X text 96 105 Delay;
#X obj 314 143 s gliss;
#X obj 112 265 r gliss;
#N canvas 64 447 630 312 controller 1;
#X obj 47 128 hsl 330 20 0 1 0 1 X Xin empty -2 -8 0 10 -45076 -261234
-1 21911 0;
#X obj 48 60 hsl 330 20 2.9 4 0 1 Rval Rin empty -2 -8 0 10 -45076
-261234 -1 30806 0;
#X obj 49 198 hsl 330 20 110 30000 1 1 Freq Freqin empty -2 -8 0 10
-45076 -261234 -1 10238 0;
#X obj 49 267 hsl 330 20 11 7000 0 1 grain grainin empty -2 -8 0 10
-45076 -261234 -1 23485 0;
#X text 225 39 2 < R < 4;
#X floatatom 321 111 8 0 0 0 - X -;
#X text 226 113 0 < X(0) < 1;
#X text 58 289 Graininess;
#X floatatom 323 250 8 0 0 0 - grain -;
#X floatatom 323 181 8 0 0 0 - Freq -;
#X text 56 220 Freq. Center;
#X text 70 39 |Chaotic ->;
#X text 462 37 Band-Pass Q;
#X obj 399 56 hsl 200 30 20 1200 0 1 qball qst empty -2 -8 0 10 -86853
-260097 -1 0 0;
#X obj 503 139 vsl 30 128 0 127 0 1 Volsaw Volsawin empty 0 -9 0 10
-86853 -260097 -1 10000 0;
#X text 443 103 Tone Generator;
#X text 499 269 Volume;
#X obj 436 163 vsl 15 100 1 200 1 1 sfq sawvol empty 0 -9 0 10 -83269
-260097 -1 6400 0;
#X text 69 77 |3;
#X text 260 148 |2/3;
#X text 107 149 |.2;
#X text 316 77 |3.8282;
#X floatatom 318 39 8 0 0 0 - Rval -;
#X text 202 77 |3.4495;
#X text 206 148 |.5;
#X text 172 148 |.4;
#X text 535 152 ___;
#X text 412 184 __;
#X text 420 267 throat;
#X restore 54 38 pd controller;
#X obj 52 87 r ray;
#X obj 84 318 ==;
#X obj 84 336 s ray;
#X obj 268 143 s disc;
#X obj 100 148 r disc;
#X obj 52 107 sel 1;
#X obj 50 164 f 1;
#X obj 125 343 line 100 10;
#X obj 125 325 pack 100 1000;
#X obj 50 145 spigot;
#X obj 290 73 r Rval;
#X obj 338 73 r X;
#X obj 51 127 del 10;
#X obj 175 308 r grain;
#X obj 167 265 r Freq;
#X text 219 51 X(n+1) = R X(n) (1 - X(n));
#X text 216 36 Discrete Logistic Equation;
#X obj 352 278 r qball;
#X obj 100 129 r Rin;
#X obj 329 231 dbtorms;
#X obj 289 260 *~ 0;
#X obj 276 229 phasor~;
#X obj 323 213 r Volsaw;
#X text 350 180 Saw;
#X floatatom 53 59 8 0 0 0 - bp -;
#X obj 276 179 r bp;
#X obj 276 211 / 10;
#X obj 309 179 r sfq;
#X text 318 316 <- band-pass;
#X obj 125 302 * 1000;
#X connect 0 0 13 0;
#X connect 0 0 19 0;
#X connect 1 0 0 0;
#X connect 2 0 3 1;
#X connect 2 0 3 0;
#X connect 5 0 1 0;
#X connect 5 1 1 1;
#X connect 6 0 1 0;
#X connect 7 0 8 0;
#X connect 8 0 0 1;
#X connect 10 0 2 1;
#X connect 14 0 45 0;
#X connect 16 0 21 0;
#X connect 17 0 18 0;
#X connect 20 0 22 1;
#X connect 21 0 28 0;
#X connect 22 0 9 0;
#X connect 23 0 11 0;
#X connect 23 0 17 0;
#X connect 24 0 23 0;
#X connect 25 0 22 0;
#X connect 26 0 5 0;
#X connect 27 0 7 0;
#X connect 28 0 25 0;
#X connect 29 0 24 1;
#X connect 30 0 45 1;
#X connect 33 0 2 2;
#X connect 34 0 25 1;
#X connect 35 0 36 1;
#X connect 36 0 2 0;
#X connect 37 0 36 0;
#X connect 38 0 35 0;
#X connect 41 0 42 0;
#X connect 42 0 37 0;
#X connect 43 0 42 1;
#X connect 45 0 17 1;
#X connect 45 0 24 0;
#X restore 31 112 pd Strogatz;
#N canvas 742 502 491 239 inits 1;
#X obj 54 26 loadbang;
#X obj 42 107 s qst;
#X obj 90 131 s Volsawin;
#X obj 366 99 s Freqin;
#X obj 216 123 s Rin;
#X obj 256 109 s Xin;
#X obj 297 122 s grainin;
#X obj 54 79 unpack 20 100 0 0 3.93 0.666 5000 630;
#X msg 55 54 20 100 0 0 3.93 0.666 5000 630;
#X msg 32 183 \; pd dsp 1;
#X obj 32 155 loadbang;
#X msg 112 184 \; pd dsp 0;
#X connect 0 0 8 0;
#X connect 7 0 1 0;
#X connect 7 1 2 0;
#X connect 7 4 4 0;
#X connect 7 5 5 0;
#X connect 7 6 6 0;
#X connect 7 7 3 0;
#X connect 8 0 7 0;
#X connect 10 0 9 0;
#X restore 32 151 pd inits;
#X text 27 73 https://www.youtube.com/watch?v=gcu7EuzTv0s;
#X text 28 45 An attempt to emulate ravens;
