#N canvas 85 31 1195 767 10;
#X obj 250 101 f;
#X obj 252 119 + 1;
#X msg 44 65 bang;
#X msg 115 65 stop;
#X msg 115 85 0;
#X msg 156 65 \; pd dsp 0;
#X obj 185 -47 key;
#X floatatom 185 -30 5 0 0 0 - - -;
#X obj 273 3 * 1;
#X obj 449 57 key;
#X text 516 42 Q W E R T Y;
#X text 508 59 1 2 m3 3 m5 5;
#X msg 479 103 2;
#X msg 510 103 3;
#X msg 541 103 4;
#X msg 571 103 6;
#X msg 602 103 7;
#X obj 768 157 mod 19;
#X msg 449 103 1;
#X obj 250 81 metro 250;
#X msg 48 29 \; pd dsp 1;
#X msg 632 103 1;
#X msg 662 103 -1;
#X obj 747 119 t f b;
#X obj 807 115 r range;
#X text 727 60 Big Fuckin Jumps O P;
#X msg 696 103 4013;
#X msg 737 103 13;
#X obj 808 135 int;
#X obj 115 108 s off;
#X obj 44 89 s ivol;
#X obj 820 156 s intrange;
#X obj 768 136 * 1;
#X text 625 35 arpeggio up down J K;
#X obj 450 78 sel 113 119 101 114 116 121 106 107 111 112;
#X obj 229 -30 sel 49 50 51 52 53 54 55 56;
#X msg 471 -13 500;
#X msg 434 -13 250;
#X msg 397 -13 100;
#X msg 363 -13 75;
#X msg 332 -13 50;
#X msg 300 -13 25;
#X msg 267 -13 10;
#X msg 229 -13 stop;
#X text 234 -49 tempo 1-stops 2 3 4 5 6 7 8;
#X obj 273 51 t b f;
#X obj 663 61 s up;
#X obj 230 -68 r mantempo;
#X obj 320 44 s tempo;
#X msg 232 28 0;
#X msg 264 28 1;
#X msg 298 28 2;
#X msg 333 28 3;
#X msg 366 28 4;
#X msg 399 28 5;
#X msg 434 28 6;
#X msg 466 28 7;
#X obj 387 62 r manarp;
#X msg 471 120 0;
#X msg 503 120 1;
#X msg 537 120 2;
#X msg 572 120 3;
#X msg 605 120 4;
#X msg 638 120 5;
#X msg 673 120 6;
#X msg 705 120 7;
#X obj 560 136 s arp;
#X obj 768 179 s interval;
#N canvas 397 380 670 430 controller 1;
#X floatatom 171 249 6 0 0 2 Interval interval -;
#X obj 115 91 vsl 15 128 0 150 0 0 harm1 empty empty 0 -9 0 10 -13330
-204800 -1 0 0;
#X obj 171 143 hsl 128 15 3 200 1 0 temp htemp empty -2 -8 0 10 -13330
-204800 -1 0 0;
#X obj 172 87 hsl 128 15 12 100 1 0 range empty empty -2 -8 0 10 -13330
-204800 -1 0 0;
#X obj 172 203 hsl 128 15 30 120 1 0 volout volin empty -2 -8 0 10
-13330 -204800 -1 8985 0;
#X text 169 188 VOLUME V: DWN N: UP;
#X text 178 71 RANGE 12 - 100;
#X floatatom 170 161 5 0 0 0 - inttemp -;
#X floatatom 169 105 5 0 0 0 - intrange -;
#X obj 574 36 tgl 15 1 jkoggle up empty 17 7 0 10 -13330 -204800 -1
-1 -1;
#X text 133 45 CONTROLLERS;
#X obj 438 94 vradio 15 1 0 8 toroutearp arp empty 0 -8 0 10 -13330
-204800 -1 0;
#X text 331 92 stop;
#X text 339 184 250;
#X text 338 200 500;
#X text 345 140 50;
#X text 345 154 75;
#X text 339 169 100;
#X text 346 124 25;
#X text 344 108 10;
#X obj 368 94 vradio 15 1 0 8 toroute tempo empty 0 -8 0 10 -13330
-204800 -1 0;
#X text 424 74 ARPEGGIA;
#X text 465 123 min 3;
#X text 460 94 min 2;
#X text 466 110 Maj 2;
#X text 464 139 Maj 3;
#X text 462 155 min 5;
#X text 465 169 Per 5;
#X text 462 183 i dont know;
#X text 462 198 something large;
#X text 352 74 TEMPO;
#X text 366 219 ms;
#X text 328 49 ->12345678;
#X text 420 48 QWERTY OP<-;
#X text 165 126 TEMPERAMENT 3-12-200;
#X obj 64 90 vsl 15 128 55 880 0 1 freq empty empty 0 -9 0 10 -13330
-204800 -1 5100 0;
#X text 45 70 CENTER;
#X text 26 209 55Hz;
#X text 21 84 880Hz;
#X text 108 70 TIMBRE;
#X floatatom 55 229 5 0 0 0 - freq -;
#X obj 70 313 tgl 60 0 rbigtoggle sbigtoggle empty 63 20 2 13 -13330
-203904 -34 1 1;
#X text 72 296 On / Off;
#X text 70 374 spacebar;
#X text 550 13 Arp Up/Down;
#X text 572 53 JK;
#X text 435 217 rel to 12 tone temp.;
#X restore 765 459 pd controller;
#X obj 115 48 r stop;
#X obj 43 13 r start;
#X obj 57 -50 r rbigtoggle;
#X obj 43 -15 s start;
#X obj 97 -15 s stop;
#X msg 633 61 0;
#X obj 561 160 r jkoggle;
#X obj 561 182 sel 0;
#X msg 562 202 1;
#X msg 594 204 -1;
#X obj 562 221 s par;
#X obj 785 97 r par;
#X obj 422 515 dac~;
#X obj 353 272 / 1;
#X obj 272 265 log;
#X obj 272 311 exp;
#X obj 272 288 *;
#X floatatom 211 327 8 0 0 0 - - -;
#X msg 272 243 2;
#X floatatom 323 347 5 0 0 0 - - -;
#X obj 157 423 dac~;
#X obj 195 384 dbtorms;
#X obj 157 400 *~ 0;
#X obj 156 360 osc~;
#X obj 460 473 dbtorms;
#X obj 422 489 *~ 0;
#X obj 422 449 osc~;
#X obj 360 413 int;
#X obj 296 408 bng 15 250 50 0 empty empty empty 17 7 0 10 -228992
-257472 -1;
#X obj 325 433 int;
#X obj 363 466 int;
#X obj 291 469 bng 15 250 50 0 empty empty empty 17 7 0 10 -228992
-257472 -1;
#X floatatom 323 470 5 0 0 0 - - -;
#X obj 328 497 int;
#X floatatom 328 528 5 0 0 0 - - -;
#X obj 323 389 int;
#X obj 459 449 r harm1;
#X obj 355 178 r temp;
#X obj 158 445 key;
#X obj 157 470 sel 118 110;
#X obj 156 338 r off;
#X msg 108 518 80;
#X obj 108 547 float;
#X obj 179 563 +;
#X obj 108 496 r ivol;
#X obj 180 585 s volin;
#X obj 195 363 r volout;
#X msg 194 496 4;
#X msg 157 496 -4;
#X obj 165 530 t b f;
#X obj 354 201 int;
#X obj 395 217 s inttemp;
#X obj 323 327 * 440;
#X obj 79 623 route 0 1 2 3 4 5 6 7;
#X msg 50 640 49;
#X msg 82 640 50;
#X msg 116 640 51;
#X msg 151 640 52;
#X msg 184 640 53;
#X msg 217 640 54;
#X msg 252 640 55;
#X msg 284 640 56;
#X obj 80 601 r toroute;
#X obj 109 657 s mantempo;
#X obj 352 602 r toroutearp;
#X obj 351 624 route 0 1 2 3 4 5 6 7;
#X msg 322 641 113;
#X msg 354 641 119;
#X msg 388 641 101;
#X msg 423 641 114;
#X msg 456 641 116;
#X msg 489 641 121;
#X msg 524 641 111;
#X msg 556 641 112;
#X obj 381 658 s manarp;
#X obj 355 307 r freq;
#X text 367 329 base freq;
#X obj 205 262 sel -1 1;
#X msg 205 284 106;
#X msg 236 284 107;
#X obj 206 305 s manarp;
#X obj 206 242 r manup;
#X obj 272 213 r interval;
#X obj 463 306 key;
#X obj 462 344 -1;
#X obj 462 327 sel 32 1 -1;
#X obj 488 344 s start;
#X obj 544 344 s stop;
#X obj 463 383 int;
#X obj 462 364 * -1;
#X obj 463 404 s sbigtoggle;
#X text 698 304 Jon \, until you get a proper adapter disconnect right
DAC in both places!;
#X obj 57 -32 sel 1;
#X floatatom 251 142 5 0 0 0 - - -;
#X obj 354 227 t b f;
#X text 873 460 <-- Click Here;
#X text 461 514 <- DAC here;
#X text 52 423 and DAC here->;
#X connect 0 0 1 0;
#X connect 1 0 0 1;
#X connect 1 0 32 0;
#X connect 1 0 162 0;
#X connect 2 0 19 0;
#X connect 2 0 30 0;
#X connect 3 0 4 0;
#X connect 3 0 19 0;
#X connect 4 0 0 1;
#X connect 4 0 29 0;
#X connect 6 0 7 0;
#X connect 6 0 35 0;
#X connect 8 0 45 0;
#X connect 9 0 34 0;
#X connect 12 0 1 1;
#X connect 13 0 1 1;
#X connect 14 0 1 1;
#X connect 15 0 1 1;
#X connect 16 0 1 1;
#X connect 17 0 67 0;
#X connect 18 0 1 1;
#X connect 19 0 0 0;
#X connect 21 0 23 0;
#X connect 21 0 74 0;
#X connect 22 0 23 0;
#X connect 22 0 46 0;
#X connect 23 0 32 1;
#X connect 23 1 32 0;
#X connect 24 0 28 0;
#X connect 26 0 1 1;
#X connect 27 0 1 1;
#X connect 28 0 31 0;
#X connect 28 0 17 1;
#X connect 32 0 17 0;
#X connect 34 0 18 0;
#X connect 34 0 58 0;
#X connect 34 1 12 0;
#X connect 34 1 59 0;
#X connect 34 2 13 0;
#X connect 34 2 60 0;
#X connect 34 3 14 0;
#X connect 34 3 61 0;
#X connect 34 4 15 0;
#X connect 34 4 62 0;
#X connect 34 5 16 0;
#X connect 34 5 63 0;
#X connect 34 6 21 0;
#X connect 34 7 22 0;
#X connect 34 8 26 0;
#X connect 34 8 64 0;
#X connect 34 9 27 0;
#X connect 34 9 65 0;
#X connect 35 0 43 0;
#X connect 35 1 42 0;
#X connect 35 2 41 0;
#X connect 35 3 40 0;
#X connect 35 4 39 0;
#X connect 35 5 38 0;
#X connect 35 6 37 0;
#X connect 35 7 36 0;
#X connect 36 0 8 0;
#X connect 36 0 56 0;
#X connect 37 0 8 0;
#X connect 37 0 55 0;
#X connect 38 0 8 0;
#X connect 38 0 54 0;
#X connect 39 0 8 0;
#X connect 39 0 53 0;
#X connect 40 0 8 0;
#X connect 40 0 52 0;
#X connect 41 0 8 0;
#X connect 41 0 51 0;
#X connect 42 0 8 0;
#X connect 42 0 50 0;
#X connect 43 0 19 0;
#X connect 43 0 49 0;
#X connect 45 0 19 0;
#X connect 45 1 19 1;
#X connect 47 0 35 0;
#X connect 49 0 48 0;
#X connect 50 0 48 0;
#X connect 51 0 48 0;
#X connect 52 0 48 0;
#X connect 53 0 48 0;
#X connect 54 0 48 0;
#X connect 55 0 48 0;
#X connect 56 0 48 0;
#X connect 57 0 34 0;
#X connect 58 0 66 0;
#X connect 59 0 66 0;
#X connect 60 0 66 0;
#X connect 61 0 66 0;
#X connect 62 0 66 0;
#X connect 63 0 66 0;
#X connect 64 0 66 0;
#X connect 65 0 66 0;
#X connect 69 0 5 0;
#X connect 69 0 3 0;
#X connect 70 0 20 0;
#X connect 70 0 2 0;
#X connect 71 0 161 0;
#X connect 74 0 46 0;
#X connect 75 0 76 0;
#X connect 76 0 77 0;
#X connect 76 1 78 0;
#X connect 77 0 79 0;
#X connect 78 0 79 0;
#X connect 80 0 32 1;
#X connect 82 0 85 1;
#X connect 83 0 85 0;
#X connect 84 0 86 0;
#X connect 84 0 121 0;
#X connect 85 0 84 0;
#X connect 87 0 83 0;
#X connect 88 0 92 0;
#X connect 88 0 104 0;
#X connect 90 0 91 1;
#X connect 91 0 89 0;
#X connect 91 0 89 1;
#X connect 92 0 91 0;
#X connect 93 0 94 1;
#X connect 94 0 81 0;
#X connect 94 0 81 1;
#X connect 95 0 94 0;
#X connect 96 0 98 1;
#X connect 97 0 98 0;
#X connect 98 0 100 0;
#X connect 98 0 101 0;
#X connect 98 0 99 0;
#X connect 98 0 95 0;
#X connect 99 0 102 1;
#X connect 100 0 102 0;
#X connect 102 0 103 0;
#X connect 102 0 95 0;
#X connect 104 0 97 0;
#X connect 104 0 96 0;
#X connect 105 0 93 0;
#X connect 106 0 119 0;
#X connect 107 0 108 0;
#X connect 108 0 117 0;
#X connect 108 1 116 0;
#X connect 109 0 92 0;
#X connect 110 0 111 0;
#X connect 111 0 112 0;
#X connect 112 0 111 1;
#X connect 112 0 114 0;
#X connect 113 0 110 0;
#X connect 115 0 90 0;
#X connect 116 0 118 0;
#X connect 117 0 118 0;
#X connect 118 0 111 0;
#X connect 118 1 112 1;
#X connect 119 0 120 0;
#X connect 119 0 163 0;
#X connect 121 0 88 0;
#X connect 122 0 123 0;
#X connect 122 1 124 0;
#X connect 122 2 125 0;
#X connect 122 3 126 0;
#X connect 122 4 127 0;
#X connect 122 5 128 0;
#X connect 122 6 129 0;
#X connect 122 7 130 0;
#X connect 123 0 132 0;
#X connect 124 0 132 0;
#X connect 125 0 132 0;
#X connect 126 0 132 0;
#X connect 127 0 132 0;
#X connect 128 0 132 0;
#X connect 129 0 132 0;
#X connect 130 0 132 0;
#X connect 131 0 122 0;
#X connect 133 0 134 0;
#X connect 134 0 135 0;
#X connect 134 1 136 0;
#X connect 134 2 137 0;
#X connect 134 3 138 0;
#X connect 134 4 139 0;
#X connect 134 5 140 0;
#X connect 134 6 141 0;
#X connect 134 7 142 0;
#X connect 135 0 143 0;
#X connect 136 0 143 0;
#X connect 137 0 143 0;
#X connect 138 0 143 0;
#X connect 139 0 143 0;
#X connect 140 0 143 0;
#X connect 141 0 143 0;
#X connect 142 0 143 0;
#X connect 144 0 121 1;
#X connect 146 0 147 0;
#X connect 146 1 148 0;
#X connect 147 0 149 0;
#X connect 148 0 149 0;
#X connect 150 0 146 0;
#X connect 151 0 82 0;
#X connect 151 0 87 0;
#X connect 152 0 154 0;
#X connect 153 0 158 0;
#X connect 154 0 153 0;
#X connect 154 0 159 0;
#X connect 154 1 155 0;
#X connect 154 2 156 0;
#X connect 157 0 158 1;
#X connect 158 0 154 0;
#X connect 158 0 157 0;
#X connect 161 0 72 0;
#X connect 161 1 73 0;
#X connect 163 0 82 0;
#X connect 163 0 87 0;
#X connect 163 1 82 1;