#N struct sierpinski float a float b;
#N canvas 63 717 116 119 10;
#N canvas 957 59 424 514 sierpinski 0;
#X obj 11 123 r symmetry;
#X obj 11 194 random 3;
#X obj 11 167 t b b f f;
#X obj -15 194 pi;
#X obj -4 217 *;
#X obj -1 239 * 2;
#X obj 11 261 / 3;
#X obj 10 296 r S;
#X obj 8 323 t b b f f;
#X obj -32 321 sin;
#X obj 72 321 cos;
#X obj -12 357 * 5;
#X obj 39 358 * 5;
#X obj 131 276 / 2;
#X obj 174 231 r H;
#X obj 174 255 t b f;
#X obj 118 229 r Y;
#X obj 122 205 r B;
#X obj -12 382 s X;
#X obj 40 382 s Y;
#X msg 116 349 bang;
#X obj 160 348 r grain;
#X obj 116 398 f 0;
#X obj 143 398 f 0;
#X obj 131 300 s del_B;
#X obj 131 326 r del_A;
#X obj 173 379 r del_B;
#X obj 116 470 s A;
#X obj 184 468 s B;
#N canvas 860 473 398 246 Sierpinski_grapher 0;
#X obj 165 148 pointer;
#N canvas 220 24 1210 841 sierpinski_datawindow 1;
#X scalar sierpinski 0 0 \;;
#X scalar sierpinski -2.16506 0 \;;
#X scalar sierpinski 1.08253 -1.25 \;;
#X scalar sierpinski 2.70633 -1.875 \;;
#X scalar sierpinski -0.811899 -2.1875 \;;
#X scalar sierpinski -0.40595 1.40625 \;;
#X scalar sierpinski -2.36804 -0.546875 \;;
#X scalar sierpinski -3.34908 -1.52344 \;;
#X scalar sierpinski -1.67454 1.73828 \;;
#X scalar sierpinski -0.837271 3.36914 \;;
#X scalar sierpinski -2.5837 0.434571 \;;
#X scalar sierpinski 0.873214 -1.03271 \;;
#X scalar sierpinski -1.72846 -1.76636 \;;
#X scalar sierpinski 1.30084 -2.13318 \;;
#X scalar sierpinski 2.81548 -2.31659 \;;
#X scalar sierpinski 1.40774 1.34171 \;;
#X scalar sierpinski 2.86893 -0.579147 \;;
#X scalar sierpinski 3.59953 -1.53957 \;;
#X scalar sierpinski 1.79977 1.73021 \;;
#X scalar sierpinski 0.899883 3.36511 \;;
#X scalar sierpinski 0.449941 4.18255 \;;
#X scalar sierpinski -1.94009 0.841277 \;;
#X scalar sierpinski -0.970047 2.92064 \;;
#X scalar sierpinski -0.485023 3.96032 \;;
#X scalar sierpinski 1.92255 0.73016 \;;
#X scalar sierpinski 3.12634 -0.88492 \;;
#X scalar sierpinski 3.72823 -1.69246 \;;
#X scalar sierpinski 4.02918 -2.09623 \;;
#X scalar sierpinski 4.17965 -2.29812 \;;
#X scalar sierpinski 2.08983 1.35094 \;;
#X scalar sierpinski 3.20998 -0.574529 \;;
#X scalar sierpinski -0.560075 -1.53726 \;;
#X scalar sierpinski 1.88503 -2.01863 \;;
#X scalar sierpinski -1.22255 -2.25932 \;;
#X scalar sierpinski -2.77634 -2.37966 \;;
#X scalar sierpinski -1.38817 1.31017 \;;
#X scalar sierpinski -2.85915 -0.594914 \;;
#X scalar sierpinski 0.735489 -1.54746 \;;
#X scalar sierpinski 0.367745 1.72627 \;;
#X scalar sierpinski 2.34894 -0.386864 \;;
#X scalar sierpinski -0.990596 -1.44343 \;;
#X scalar sierpinski -0.495298 1.77828 \;;
#X scalar sierpinski -0.247649 3.38914 \;;
#X scalar sierpinski -2.28889 0.444571 \;;
#X scalar sierpinski 1.02062 -1.02771 \;;
#X scalar sierpinski 2.67537 -1.76386 \;;
#X scalar sierpinski 3.50275 -2.13193 \;;
#X scalar sierpinski 3.91644 -2.31596 \;;
#X scalar sierpinski 4.12328 -2.40798 \;;
#X scalar sierpinski 4.2267 -2.45399 \;;
#X scalar sierpinski -0.0517113 -2.477 \;;
#X scalar sierpinski -2.19092 -2.4885 \;;
#X scalar sierpinski 1.0696 -2.49425 \;;
#X scalar sierpinski 0.534802 1.25288 \;;
#X scalar sierpinski -1.89766 -0.623562 \;;
#X scalar sierpinski -0.948831 2.18822 \;;
#X scalar sierpinski -0.474416 3.59411 \;;
#X scalar sierpinski -0.237208 4.29705 \;;
#X scalar sierpinski -0.118604 4.64853 \;;
#X scalar sierpinski 2.10576 1.07426 \;;
#X scalar sierpinski -1.11218 -0.712868 \;;
#X scalar sierpinski -0.556091 2.14357 \;;
#X scalar sierpinski -2.44311 -0.178217 \;;
#X scalar sierpinski -1.22155 2.41089 \;;
#X scalar sierpinski -0.610777 3.70545 \;;
#X scalar sierpinski 1.85967 0.602723 \;;
#X scalar sierpinski 3.0949 -0.948639 \;;
#X scalar sierpinski -0.617613 -1.72432 \;;
#X scalar sierpinski -0.308807 1.63784 \;;
#X scalar sierpinski -0.154403 3.31892 \;;
#X scalar sierpinski 2.08786 0.40946 \;;
#X scalar sierpinski 3.20899 -1.04527 \;;
#X scalar sierpinski 3.76956 -1.77264 \;;
#X scalar sierpinski 4.04984 -2.13632 \;;
#X scalar sierpinski 4.18999 -2.31816 \;;
#X scalar sierpinski 2.09499 1.34092 \;;
#X scalar sierpinski -1.11757 -0.57954 \;;
#X scalar sierpinski 1.60628 -1.53977 \;;
#X scalar sierpinski -1.36192 -2.01988 \;;
#X scalar sierpinski -0.680962 1.49006 \;;
#X scalar sierpinski -2.50554 -0.504971 \;;
#X scalar sierpinski -3.41784 -1.50249 \;;
#X scalar sierpinski 0.456145 -2.00124 \;;
#X scalar sierpinski -1.93699 -2.25062 \;;
#X scalar sierpinski -0.968495 1.37469 \;;
#X scalar sierpinski -0.484248 3.18734 \;;
#X scalar sierpinski -0.242124 4.09367 \;;
#X scalar sierpinski -0.121062 4.54684 \;;
#X scalar sierpinski -0.060531 4.77342 \;;
#X scalar sierpinski -2.19533 1.13671 \;;
#X scalar sierpinski -1.09766 3.06835 \;;
#X scalar sierpinski 1.61623 0.284177 \;;
#X scalar sierpinski -1.35695 -1.10791 \;;
#X scalar sierpinski -0.678474 1.94604 \;;
#X scalar sierpinski 1.82583 -0.276978 \;;
#X scalar sierpinski -1.25215 -1.38849 \;;
#X scalar sierpinski 1.53899 -1.94424 \;;
#X scalar sierpinski 2.93456 -2.22212 \;;
#X scalar sierpinski 3.63234 -2.36106 \;;
#X scalar sierpinski 1.81617 1.31947 \;;
#X scalar sierpinski 3.07315 -0.590265 \;;
#X scalar sierpinski 1.53657 2.20487 \;;
#X scalar sierpinski 0.768287 3.60243 \;;
#X scalar sierpinski 2.54921 0.551217 \;;
#X scalar sierpinski -0.89046 -0.974391 \;;
#X scalar sierpinski -0.44523 2.0128 \;;
#X scalar sierpinski -2.38768 -0.243598 \;;
#X scalar sierpinski -3.3589 -1.3718 \;;
#X scalar sierpinski -1.67945 1.8141 \;;
#X scalar sierpinski -0.839726 3.40705 \;;
#X scalar sierpinski 1.7452 0.453525 \;;
#X scalar sierpinski -1.29246 -1.02324 \;;
#X scalar sierpinski 1.51883 -1.76162 \;;
#X scalar sierpinski 2.92448 -2.13081 \;;
#X scalar sierpinski 1.46224 1.4346 \;;
#X scalar sierpinski 0.73112 3.2173 \;;
#X scalar sierpinski 2.53062 0.358649 \;;
#X scalar sierpinski -0.899752 -1.07068 \;;
#X scalar sierpinski -0.449876 1.96466 \;;
#X scalar sierpinski -2.39 -0.267669 \;;
#X scalar sierpinski -1.195 2.36617 \;;
#X scalar sierpinski 1.56756 -0.0669173 \;;
#X scalar sierpinski 0.783782 2.46654 \;;
#X scalar sierpinski -1.77317 -0.0167291 \;;
#X scalar sierpinski -3.05165 -1.25836 \;;
#X scalar sierpinski -3.69089 -1.87918 \;;
#X scalar sierpinski -1.84544 1.56041 \;;
#X scalar sierpinski -3.08779 -0.469795 \;;
#X scalar sierpinski -1.54389 2.2651 \;;
#X scalar sierpinski -0.771946 3.63255 \;;
#X scalar sierpinski 1.77909 0.566275 \;;
#X scalar sierpinski -1.27552 -0.966862 \;;
#X scalar sierpinski -2.80282 -1.73343 \;;
#X scalar sierpinski -3.56647 -2.11672 \;;
#X scalar sierpinski -3.9483 -2.30836 \;;
#X scalar sierpinski -4.13921 -2.40418 \;;
#X scalar sierpinski -2.06961 1.29791 \;;
#X scalar sierpinski -3.19987 -0.601044 \;;
#X scalar sierpinski -1.59993 2.19948 \;;
#X scalar sierpinski -2.96503 -0.150261 \;;
#X scalar sierpinski -3.64758 -1.32513 \;;
#X scalar sierpinski -3.98885 -1.91256 \;;
#X scalar sierpinski -1.99443 1.54372 \;;
#X scalar sierpinski 1.16785 -0.478141 \;;
#X scalar sierpinski 2.74899 -1.48907 \;;
#X scalar sierpinski 1.37449 1.75546 \;;
#X scalar sierpinski -1.47782 -0.372267 \;;
#X scalar sierpinski 1.42616 -1.43613 \;;
#X scalar sierpinski -1.45199 -1.96807 \;;
#X scalar sierpinski -0.725993 1.51597 \;;
#X scalar sierpinski -2.52806 -0.492016 \;;
#X scalar sierpinski -3.42909 -1.49601 \;;
#X scalar sierpinski -3.87961 -1.998 \;;
#X scalar sierpinski 0.225258 -2.249 \;;
#X scalar sierpinski 2.27769 -2.3745 \;;
#X scalar sierpinski 3.30391 -2.43725 \;;
#X scalar sierpinski 1.65195 1.28137 \;;
#X scalar sierpinski -1.33909 -0.609312 \;;
#X scalar sierpinski 1.49552 -1.55466 \;;
#X scalar sierpinski 0.74776 1.72267 \;;
#X scalar sierpinski 2.53894 -0.388664 \;;
#X scalar sierpinski 3.43454 -1.44433 \;;
#X scalar sierpinski 1.71727 1.77783 \;;
#X scalar sierpinski 3.0237 -0.361083 \;;
#X scalar sierpinski 1.51185 2.31946 \;;
#X scalar sierpinski 2.92099 -0.0902709 \;;
#X scalar sierpinski 3.62556 -1.29514 \;;
#X scalar sierpinski 3.97784 -1.89757 \;;
#X scalar sierpinski -0.176143 -2.19878 \;;
#X scalar sierpinski -2.25313 -2.34939 \;;
#X scalar sierpinski 1.0385 -2.4247 \;;
#X scalar sierpinski -1.64582 -2.46235 \;;
#X scalar sierpinski -0.822908 1.26883 \;;
#X scalar sierpinski -2.57652 -0.615587 \;;
#X scalar sierpinski 0.876805 -1.55779 \;;
#X scalar sierpinski -1.72666 -2.0289 \;;
#X scalar sierpinski -0.863331 1.48555 \;;
#X scalar sierpinski -2.59673 -0.507224 \;;
#X scalar sierpinski 0.866699 -1.50361 \;;
#X scalar sierpinski 0.433349 1.74819 \;;
#X scalar sierpinski 2.38174 -0.375903 \;;
#X scalar sierpinski 3.35593 -1.43795 \;;
#X scalar sierpinski 1.67797 1.78102 \;;
#X scalar sierpinski -1.32608 -0.359488 \;;
#X scalar sierpinski -2.8281 -1.42974 \;;
#X scalar sierpinski -3.57912 -1.96487 \;;
#X scalar sierpinski -1.78956 1.51756 \;;
#X scalar sierpinski -0.894779 3.25878 \;;
#X scalar sierpinski -2.61245 0.379391 \;;
#X scalar sierpinski 0.858837 -1.0603 \;;
#X scalar sierpinski 0.429418 1.96985 \;;
#X scalar sierpinski 2.37977 -0.265076 \;;
#X scalar sierpinski 1.18989 2.36746 \;;
#X scalar sierpinski 0.594943 3.68373 \;;
#X scalar sierpinski -1.86759 0.591866 \;;
#X scalar sierpinski -0.933796 2.79593 \;;
#X scalar sierpinski 1.69817 0.147966 \;;
#X scalar sierpinski 3.01415 -1.17602 \;;
#X scalar sierpinski 1.50707 1.91199 \;;
#X scalar sierpinski 2.9186 -0.294004 \;;
#X scalar sierpinski -0.705764 -1.397 \;;
#X scalar sierpinski -2.51795 -1.9485 \;;
#X scalar sierpinski -1.25897 1.52575 \;;
#X scalar sierpinski -2.79455 -0.487125 \;;
#X scalar sierpinski -3.56234 -1.49356 \;;
#X scalar sierpinski -3.94623 -1.99678 \;;
#X scalar sierpinski -1.97312 1.50161 \;;
#X scalar sierpinski 1.17851 -0.499195 \;;
#X scalar sierpinski 2.75432 -1.4996 \;;
#X scalar sierpinski 3.54222 -1.9998 \;;
#X scalar sierpinski 1.77111 1.5001 \;;
#X scalar sierpinski -1.27951 -0.49995 \;;
#X scalar sierpinski 1.52531 -1.49997 \;;
#X scalar sierpinski 0.762655 1.75001 \;;
#X scalar sierpinski 2.54639 -0.374994 \;;
#X scalar sierpinski -0.891868 -1.4375 \;;
#X scalar sierpinski -0.445934 1.78125 \;;
#X scalar sierpinski 1.9421 -0.359374 \;;
#X scalar sierpinski 3.13611 -1.42969 \;;
#X scalar sierpinski 1.56806 1.78516 \;;
#X scalar sierpinski -1.38104 -0.357422 \;;
#X scalar sierpinski 1.47455 -1.42871 \;;
#X scalar sierpinski 0.737273 1.78564 \;;
#X scalar sierpinski 2.5337 -0.357178 \;;
#X scalar sierpinski 3.43191 -1.42859 \;;
#X scalar sierpinski 1.71596 1.78571 \;;
#X scalar sierpinski 0.857978 3.39285 \;;
#X scalar sierpinski 2.59405 0.446426 \;;
#X scalar sierpinski 1.29703 2.72321 \;;
#X scalar sierpinski 2.81358 0.111606 \;;
#X scalar sierpinski -0.758275 -1.1942 \;;
#X scalar sierpinski -2.5442 -1.8471 \;;
#X scalar sierpinski 0.892963 -2.17355 \;;
#X scalar sierpinski -1.71858 -2.33677 \;;
#X scalar sierpinski 1.30577 -2.41839 \;;
#X scalar sierpinski 0.652886 1.29081 \;;
#X scalar sierpinski 2.49151 -0.604597 \;;
#X scalar sierpinski -0.91931 -1.5523 \;;
#X scalar sierpinski -0.459655 1.72385 \;;
#X scalar sierpinski -2.39489 -0.388074 \;;
#X scalar sierpinski 0.967618 -1.44404 \;;
#X scalar sierpinski 2.64887 -1.97202 \;;
#X scalar sierpinski 1.32444 1.51399 \;;
#X scalar sierpinski 0.662218 3.257 \;;
#X scalar sierpinski 2.49617 0.378497 \;;
#X scalar sierpinski 3.41315 -1.06075 \;;
#X scalar sierpinski -0.458489 -1.78038 \;;
#X scalar sierpinski -0.229244 1.60981 \;;
#X scalar sierpinski -0.114622 3.30491 \;;
#X scalar sierpinski 2.10775 0.402453 \;;
#X scalar sierpinski 1.05388 2.70123 \;;
#X scalar sierpinski 2.692 0.100613 \;;
#X scalar sierpinski -0.819063 -1.19969 \;;
#X scalar sierpinski 1.75553 -1.84985 \;;
#X scalar sierpinski 0.877766 1.57508 \;;
#X scalar sierpinski -1.72618 -0.462461 \;;
#X scalar sierpinski 1.30197 -1.48123 \;;
#X scalar sierpinski 2.81605 -1.99062 \;;
#X scalar sierpinski 3.57309 -2.24531 \;;
#X scalar sierpinski -0.378519 -2.37265 \;;
#X scalar sierpinski -2.35432 -2.43633 \;;
#X scalar sierpinski -1.17716 1.28184 \;;
#X scalar sierpinski 1.57648 -0.609082 \;;
#X scalar sierpinski 2.9533 -1.55454 \;;
#X scalar sierpinski 3.64172 -2.02727 \;;
#X scalar sierpinski 3.98592 -2.26364 \;;
#X scalar sierpinski 1.99296 1.36818 \;;
#X scalar sierpinski -1.16858 -0.565909 \;;
#X scalar sierpinski -2.74936 -1.53295 \;;
#X scalar sierpinski 0.790386 -2.01648 \;;
#X scalar sierpinski -1.76987 -2.25824 \;;
#X scalar sierpinski -3.05 -2.37912 \;;
#X scalar sierpinski -3.69006 -2.43956 \;;
#X scalar sierpinski -4.0101 -2.46978 \;;
#X scalar sierpinski -2.00505 1.26511 \;;
#X scalar sierpinski -3.16759 -0.617445 \;;
#X scalar sierpinski 0.58127 -1.55872 \;;
#X scalar sierpinski 0.290635 1.72064 \;;
#X scalar sierpinski 2.31038 -0.389681 \;;
#X scalar sierpinski -1.00987 -1.44484 \;;
#X scalar sierpinski -0.504937 1.77758 \;;
#X scalar sierpinski -0.252468 3.38879 \;;
#X scalar sierpinski 2.03883 0.444395 \;;
#X scalar sierpinski -1.14565 -1.0278 \;;
#X scalar sierpinski -2.73789 -1.7639 \;;
#X scalar sierpinski -1.36894 1.61805 \;;
#X scalar sierpinski -2.84954 -0.440975 \;;
#X scalar sierpinski -3.58983 -1.47049 \;;
#X scalar sierpinski 0.370148 -1.98524 \;;
#X scalar sierpinski -1.97999 -2.24262 \;;
#X scalar sierpinski -0.989995 1.37869 \;;
#X scalar sierpinski 1.67007 -0.560656 \;;
#X scalar sierpinski 0.835033 2.21967 \;;
#X scalar sierpinski 2.58258 -0.140164 \;;
#X scalar sierpinski 3.45635 -1.32008 \;;
#X scalar sierpinski 3.89324 -1.91004 \;;
#X scalar sierpinski 4.11168 -2.20502 \;;
#X scalar sierpinski 2.05584 1.39749 \;;
#X scalar sierpinski 3.19298 -0.551255 \;;
#X scalar sierpinski 1.59649 2.22437 \;;
#X scalar sierpinski 2.96331 -0.137814 \;;
#X scalar sierpinski -0.683409 -1.31891 \;;
#X scalar sierpinski 1.82336 -1.90945 \;;
#X scalar sierpinski -1.25338 -2.20473 \;;
#X scalar sierpinski 1.53837 -2.35236 \;;
#X scalar sierpinski 2.93425 -2.42618 \;;
#X scalar sierpinski 3.63219 -2.46309 \;;
#X scalar sierpinski -0.34897 -2.48155 \;;
#X scalar sierpinski 1.99058 -2.49077 \;;
#X scalar sierpinski -1.16977 -2.49539 \;;
#X scalar sierpinski 1.58018 -2.49769 \;;
#X scalar sierpinski 0.790088 1.25115 \;;
#X scalar sierpinski -1.77002 -0.624423 \;;
#X scalar sierpinski 1.28005 -1.56221 \;;
#X scalar sierpinski -1.52504 -2.03111 \;;
#X scalar sierpinski -0.762518 1.48445 \;;
#X scalar sierpinski -0.381259 3.24222 \;;
#X scalar sierpinski 1.97443 0.371112 \;;
#X scalar sierpinski -1.17785 -1.06444 \;;
#X scalar sierpinski 1.57614 -1.78222 \;;
#X scalar sierpinski -1.37699 -2.14111 \;;
#X scalar sierpinski 1.47657 -2.32056 \;;
#X scalar sierpinski 2.90335 -2.41028 \;;
#X scalar sierpinski 1.45167 1.29486 \;;
#X scalar sierpinski 0.725837 3.14743 \;;
#X scalar sierpinski 2.52798 0.323715 \;;
#X scalar sierpinski 3.42905 -1.08814 \;;
#X scalar sierpinski -0.450536 -1.79407 \;;
#X scalar sierpinski -2.39033 -2.14704 \;;
#X scalar sierpinski 0.969898 -2.32352 \;;
#X scalar sierpinski -1.68011 -2.41176 \;;
#X scalar sierpinski -3.00512 -2.45588 \;;
#X scalar sierpinski 0.662503 -2.47794 \;;
#X scalar sierpinski 0.331251 1.26103 \;;
#X scalar sierpinski 2.33069 -0.619485 \;;
#X scalar sierpinski 1.16534 2.19026 \;;
#X scalar sierpinski -1.58239 -0.154871 \;;
#X scalar sierpinski 1.37387 -1.32744 \;;
#X scalar sierpinski -1.47813 -1.91372 \;;
#X scalar sierpinski 1.426 -2.20686 \;;
#X scalar sierpinski 2.87806 -2.35343 \;;
#X scalar sierpinski 3.60409 -2.42671 \;;
#X scalar sierpinski 1.80205 1.28664 \;;
#X scalar sierpinski 0.901024 3.14332 \;;
#X scalar sierpinski -1.71455 0.321661 \;;
#X scalar sierpinski 1.30779 -1.08917 \;;
#X scalar sierpinski 2.81896 -1.79458 \;;
#X scalar sierpinski 1.40948 1.60271 \;;
#X scalar sierpinski 2.8698 -0.448646 \;;
#X scalar sierpinski 3.59996 -1.47432 \;;
#X scalar sierpinski 1.79998 1.76284 \;;
#X scalar sierpinski 0.899991 3.38142 \;;
#X scalar sierpinski 0.449996 4.19071 \;;
#X scalar sierpinski 2.39006 0.845355 \;;
#X scalar sierpinski -0.970033 -0.827322 \;;
#X scalar sierpinski -2.65008 -1.66366 \;;
#X scalar sierpinski -1.32504 1.66817 \;;
#X scalar sierpinski -0.66252 3.33408 \;;
#X scalar sierpinski -0.33126 4.16704 \;;
#X scalar sierpinski -2.33069 0.833521 \;;
#X scalar sierpinski -1.16535 2.91676 \;;
#X scalar sierpinski 1.58239 0.20838 \;;
#X scalar sierpinski -1.37387 -1.14581 \;;
#X scalar sierpinski -2.852 -1.8229 \;;
#X scalar sierpinski -1.426 1.58855 \;;
#X scalar sierpinski 1.45206 -0.455726 \;;
#X scalar sierpinski -1.43903 -1.47786 \;;
#X scalar sierpinski -0.719516 1.76107 \;;
#X scalar sierpinski -2.52482 -0.369465 \;;
#X scalar sierpinski 0.902653 -1.43473 \;;
#X scalar sierpinski -1.71374 -1.96737 \;;
#X scalar sierpinski -3.02193 -2.23368 \;;
#X scalar sierpinski 0.654097 -2.36684 \;;
#X scalar sierpinski -1.83801 -2.43342 \;;
#X scalar sierpinski 1.24606 -2.46671 \;;
#X scalar sierpinski 2.78809 -2.48336 \;;
#X scalar sierpinski 1.39405 1.25832 \;;
#X scalar sierpinski 2.86209 -0.620839 \;;
#X scalar sierpinski -0.73402 -1.56042 \;;
#X scalar sierpinski 1.79805 -2.03021 \;;
#X scalar sierpinski 3.06409 -2.26511 \;;
#X scalar sierpinski -0.633019 -2.38255 \;;
#X scalar sierpinski 1.84855 -2.44128 \;;
#X scalar sierpinski -1.24079 -2.47064 \;;
#X scalar sierpinski 1.54467 -2.48532 \;;
#X scalar sierpinski 2.9374 -2.49266 \;;
#X scalar sierpinski 3.63376 -2.49633 \;;
#X scalar sierpinski 3.98194 -2.49817 \;;
#X scalar sierpinski 1.99097 1.25092 \;;
#X scalar sierpinski 0.995486 3.12546 \;;
#X scalar sierpinski 0.497743 4.06273 \;;
#X scalar sierpinski 0.248872 4.53136 \;;
#X scalar sierpinski -2.04063 1.01568 \;;
#X scalar sierpinski -1.02031 3.00784 \;;
#X scalar sierpinski -0.510157 4.00392 \;;
#X scalar sierpinski -0.255078 4.50196 \;;
#X scalar sierpinski 2.03752 1.00098 \;;
#X scalar sierpinski 1.01876 3.00049 \;;
#X scalar sierpinski -1.65568 0.250245 \;;
#X scalar sierpinski -0.827841 2.62512 \;;
#X scalar sierpinski 1.75114 0.0625612 \;;
#X scalar sierpinski 0.875571 2.53128 \;;
#X scalar sierpinski -1.72728 0.0156405 \;;
#X scalar sierpinski 1.30142 -1.24218 \;;
#X scalar sierpinski 0.650712 1.87891 \;;
#X scalar sierpinski -1.83971 -0.310545 \;;
#X scalar sierpinski -3.08492 -1.40527 \;;
#X scalar sierpinski -3.70752 -1.95264 \;;
#X scalar sierpinski 0.311302 -2.22632 \;;
#X scalar sierpinski 0.155651 1.38684 \;;
#X scalar sierpinski 2.24289 -0.55658 \;;
#X scalar sierpinski 3.28651 -1.52829 \;;
#X scalar sierpinski 1.64325 1.73586 \;;
#X scalar sierpinski 2.98669 -0.382073 \;;
#X scalar sierpinski 3.65841 -1.44104 \;;
#X scalar sierpinski 3.99427 -1.97052 \;;
#X scalar sierpinski 1.99713 1.51474 \;;
#X scalar sierpinski 0.998567 3.25737 \;;
#X scalar sierpinski -1.66578 0.378685 \;;
#X scalar sierpinski -2.99795 -1.06066 \;;
#X scalar sierpinski 0.666087 -1.78033 \;;
#X scalar sierpinski -1.83202 -2.14016 \;;
#X scalar sierpinski -0.91601 1.42992 \;;
#X scalar sierpinski -0.458005 3.21496 \;;
#X scalar sierpinski 1.93606 0.357479 \;;
#X scalar sierpinski 0.96803 2.67874 \;;
#X scalar sierpinski 2.64908 0.0893697 \;;
#X scalar sierpinski 3.4896 -1.20532 \;;
#X scalar sierpinski -0.420262 -1.85266 \;;
#X scalar sierpinski 1.95493 -2.17633 \;;
#X scalar sierpinski -1.1876 -2.33816 \;;
#X scalar sierpinski 1.57126 -2.41908 \;;
#X scalar sierpinski -1.37943 -2.45954 \;;
#X scalar sierpinski 1.47535 -2.47977 \;;
#X scalar sierpinski 0.737674 1.26011 \;;
#X scalar sierpinski 2.5339 -0.619943 \;;
#X scalar sierpinski 3.43201 -1.55997 \;;
#X scalar sierpinski -0.449057 -2.02999 \;;
#X scalar sierpinski -0.224528 1.48501 \;;
#X scalar sierpinski 2.0528 -0.507496 \;;
#X scalar sierpinski -1.13866 -1.50375 \;;
#X scalar sierpinski -0.569332 1.74813 \;;
#X scalar sierpinski 1.8804 -0.375937 \;;
#X scalar sierpinski 3.10526 -1.43797 \;;
#X scalar sierpinski 3.71769 -1.96898 \;;
#X scalar sierpinski 4.02391 -2.23449 \;;
#X scalar sierpinski -0.153108 -2.36725 \;;
#X scalar sierpinski 2.08851 -2.43362 \;;
#X scalar sierpinski 3.20932 -2.46681 \;;
#X scalar sierpinski -0.560405 -2.48341 \;;
#X scalar sierpinski -2.44527 -2.4917 \;;
#X scalar sierpinski -3.3877 -2.49585 \;;
#X scalar sierpinski -1.69385 1.25207 \;;
#X scalar sierpinski -3.01199 -0.623963 \;;
#X scalar sierpinski -1.50599 2.18802 \;;
#X scalar sierpinski -2.91806 -0.15599 \;;
#X scalar sierpinski -1.45903 2.422 \;;
#X scalar sierpinski -2.89458 -0.0389974 \;;
#X scalar sierpinski -1.44729 2.4805 \;;
#X scalar sierpinski 1.44142 -0.00974953 \;;
#X scalar sierpinski -1.44435 -1.25487 \;;
#X scalar sierpinski 1.44289 -1.87744 \;;
#X scalar sierpinski 0.721443 1.56128 \;;
#X scalar sierpinski -1.80434 -0.469359 \;;
#X scalar sierpinski -0.902171 2.26532 \;;
#X scalar sierpinski -0.451086 3.63266 \;;
#X scalar sierpinski -0.225543 4.31633 \;;
#X scalar sierpinski -0.112771 4.65816 \;;
#X scalar sierpinski -2.22145 1.07908 \;;
#X scalar sierpinski 1.05434 -0.710459 \;;
#X scalar sierpinski -1.63789 -1.60523 \;;
#X scalar sierpinski -0.818947 1.69739 \;;
#X scalar sierpinski -2.57454 -0.401307 \;;
#X scalar sierpinski -1.28727 2.29935 \;;
#X scalar sierpinski -0.643634 3.64967 \;;
#X scalar sierpinski 1.84325 0.574836 \;;
#X scalar sierpinski 0.921623 2.78742 \;;
#X scalar sierpinski 2.62587 0.143709 \;;
#X scalar sierpinski 3.478 -1.17815 \;;
#X scalar sierpinski 3.90406 -1.83907 \;;
#X scalar sierpinski 4.11709 -2.16954 \;;
#X scalar sierpinski -0.106516 -2.33477 \;;
#X scalar sierpinski -2.21832 -2.41738 \;;
#X scalar sierpinski -1.10916 1.29131 \;;
#X scalar sierpinski -2.71964 -0.604346 \;;
#X scalar sierpinski -3.52489 -1.55217 \;;
#X scalar sierpinski 0.402621 -2.02609 \;;
#X scalar sierpinski -1.96375 -2.26304 \;;
#X scalar sierpinski -3.14694 -2.38152 \;;
#X scalar sierpinski -3.73853 -2.44076 \;;
#X scalar sierpinski -1.86927 1.27962 \;;
#X scalar sierpinski -0.934633 3.13981 \;;
#X scalar sierpinski -2.63238 0.319905 \;;
#X scalar sierpinski 0.848873 -1.09005 \;;
#X scalar sierpinski -1.74063 -1.79502 \;;
#X scalar sierpinski -0.870314 1.60249 \;;
#X scalar sierpinski 1.72991 -0.448756 \;;
#X scalar sierpinski 3.03002 -1.47438 \;;
#X scalar sierpinski 1.51501 1.76281 \;;
#X scalar sierpinski 2.92257 -0.368595 \;;
#X scalar sierpinski 3.62635 -1.4343 \;;
#X scalar sierpinski 3.97824 -1.96715 \;;
#X scalar sierpinski 4.15418 -2.23357 \;;
#X scalar sierpinski 2.07709 1.38321 \;;
#X scalar sierpinski -1.12652 -0.558393 \;;
#X scalar sierpinski -0.563259 2.2208 \;;
#X scalar sierpinski -0.28163 3.6104 \;;
#X scalar sierpinski -2.30588 0.555201 \;;
#X scalar sierpinski -3.318 -0.972399 \;;
#X scalar sierpinski -1.659 2.0138 \;;
#X scalar sierpinski -2.99456 -0.2431 \;;
#X scalar sierpinski -1.49728 2.37845 \;;
#X scalar sierpinski -0.748641 3.68923 \;;
#X scalar sierpinski 1.79074 0.594612 \;;
#X scalar sierpinski 0.895371 2.79731 \;;
#X scalar sierpinski 0.447686 3.89865 \;;
#X scalar sierpinski 0.223843 4.44933 \;;
#X scalar sierpinski 2.27698 0.974663 \;;
#X scalar sierpinski 3.30356 -0.762669 \;;
#X scalar sierpinski 3.81684 -1.63133 \;;
#X scalar sierpinski 1.90842 1.68433 \;;
#X scalar sierpinski 0.95421 3.34217 \;;
#X scalar sierpinski -1.68796 0.421083 \;;
#X scalar sierpinski 1.32108 -1.03946 \;;
#X scalar sierpinski 2.82561 -1.76973 \;;
#X scalar sierpinski 3.57787 -2.13486 \;;
#X scalar sierpinski 1.78893 1.43257 \;;
#X scalar sierpinski 3.05953 -0.533716 \;;
#X scalar sierpinski 3.69483 -1.51686 \;;
#X scalar sierpinski -0.317649 -2.00843 \;;
#X scalar sierpinski -2.32389 -2.25421 \;;
#X scalar sierpinski -1.16194 1.37289 \;;
#X scalar sierpinski -2.74604 -0.563553 \;;
#X scalar sierpinski 0.792046 -1.53178 \;;
#X scalar sierpinski 2.56109 -2.01589 \;;
#X scalar sierpinski 1.28054 1.49206 \;;
#X scalar sierpinski 2.80534 -0.503972 \;;
#X scalar sierpinski 3.56773 -1.50199 \;;
#X scalar sierpinski 1.78387 1.74901 \;;
#X scalar sierpinski 0.891933 3.3745 \;;
#X scalar sierpinski 0.445966 4.18725 \;;
#X scalar sierpinski 0.222983 4.59363 \;;
#X scalar sierpinski 0.111492 4.79681 \;;
#X scalar sierpinski 2.22081 1.14841 \;;
#X scalar sierpinski 1.1104 3.0742 \;;
#X scalar sierpinski 0.555202 4.0371 \;;
#X scalar sierpinski 2.44266 0.768551 \;;
#X scalar sierpinski -0.943731 -0.865724 \;;
#X scalar sierpinski -0.471866 2.06714 \;;
#X scalar sierpinski -0.235933 3.53357 \;;
#X scalar sierpinski 2.0471 0.516784 \;;
#X scalar sierpinski -1.14152 -0.991608 \;;
#X scalar sierpinski -0.570758 2.0042 \;;
#X scalar sierpinski 1.87968 -0.247902 \;;
#X scalar sierpinski 0.939842 2.37605 \;;
#X scalar sierpinski 2.63498 -0.0619756 \;;
#X scalar sierpinski 3.48256 -1.28099 \;;
#X scalar sierpinski 1.74128 1.85951 \;;
#X scalar sierpinski 3.0357 -0.320247 \;;
#X scalar sierpinski 1.51785 2.33988 \;;
#X scalar sierpinski 0.758926 3.66994 \;;
#X scalar sierpinski 0.379463 4.33497 \;;
#X scalar sierpinski 2.35479 0.917484 \;;
#X scalar sierpinski 3.34246 -0.791258 \;;
#X scalar sierpinski 3.83629 -1.64563 \;;
#X scalar sierpinski -0.246917 -2.07281 \;;
#X scalar sierpinski 2.0416 -2.28641 \;;
#X scalar sierpinski -1.14426 -2.3932 \;;
#X scalar sierpinski -2.73719 -2.4466 \;;
#X scalar sierpinski 0.796466 -2.4733 \;;
#X scalar sierpinski -1.76683 -2.48665 \;;
#X scalar sierpinski -0.883415 1.25667 \;;
#X scalar sierpinski -0.441708 3.12834 \;;
#X scalar sierpinski 1.94421 0.314169 \;;
#X scalar sierpinski -1.19296 -1.09292 \;;
#X scalar sierpinski -0.596479 1.95354 \;;
#X scalar sierpinski -0.29824 3.47677 \;;
#X scalar sierpinski -2.31418 0.488386 \;;
#X scalar sierpinski -3.32216 -1.00581 \;;
#X scalar sierpinski 0.503986 -1.7529 \;;
#X scalar sierpinski 2.41706 -2.12645 \;;
#X scalar sierpinski -0.956536 -2.31323 \;;
#X scalar sierpinski -2.64333 -2.40661 \;;
#X scalar sierpinski -3.48673 -2.45331 \;;
#X scalar sierpinski -3.90843 -2.47665 \;;
#X scalar sierpinski -4.11928 -2.48833 \;;
#X scalar sierpinski -2.05964 1.25584 \;;
#X scalar sierpinski 1.13524 -0.622082 \;;
#X scalar sierpinski -1.59744 -1.56104 \;;
#X scalar sierpinski 1.36634 -2.03052 \;;
#X scalar sierpinski -1.48189 -2.26526 \;;
#X scalar sierpinski 1.42412 -2.38263 \;;
#X scalar sierpinski 2.87712 -2.44132 \;;
#X scalar sierpinski 1.43856 1.27934 \;;
#X scalar sierpinski 0.71928 3.13967 \;;
#X scalar sierpinski 0.35964 4.06984 \;;
#X scalar sierpinski 2.34488 0.784918 \;;
#X scalar sierpinski 3.33751 -0.857541 \;;
#X scalar sierpinski -0.496311 -1.67877 \;;
#X scalar sierpinski 1.91691 -2.08939 \;;
#X scalar sierpinski 3.12352 -2.29469 \;;
#X scalar sierpinski -0.603305 -2.39735 \;;
#X scalar sierpinski 1.86341 -2.44867 \;;
#X scalar sierpinski 3.09677 -2.47434 \;;
#X scalar sierpinski -0.616679 -2.48717 \;;
#X scalar sierpinski -2.4734 -2.49358 \;;
#X scalar sierpinski 0.928362 -2.49679 \;;
#X scalar sierpinski -1.70088 -2.4984 \;;
#X scalar sierpinski 1.31462 -2.4992 \;;
#X scalar sierpinski 2.82237 -2.4996 \;;
#X scalar sierpinski -0.753876 -2.4998 \;;
#X scalar sierpinski 1.78813 -2.4999 \;;
#X scalar sierpinski -1.271 -2.49995 \;;
#X scalar sierpinski -0.635501 1.25003 \;;
#X scalar sierpinski -2.48281 -0.624987 \;;
#X scalar sierpinski 0.923656 -1.56249 \;;
#X scalar sierpinski -1.70324 -2.03125 \;;
#X scalar sierpinski -3.01668 -2.26562 \;;
#X scalar sierpinski -1.50834 1.36719 \;;
#X coords -6 -6 6 6 85 60 1 100 100;
#X restore 219 146 pd sierpinski_datawindow;
#X msg 170 84 \; pd-sierpinski_datawindow clear;
#X msg 168 120 traverse pd-sierpinski_datawindow;
#X obj 42 176 append sierpinski a b;
#X obj 103 155 r B;
#X obj 42 156 r A;
#N canvas 58 735 256 76 template_sierpinski 0;
#X obj -34 13 struct sierpinski float a float b;
#X obj -33 38 filledpolygon 0 255 1 a b a b;
#X restore 40 197 pd template_sierpinski;
#X obj 61 38 r plus_minus;
#X obj 141 38 r go;
#X msg 122 67 bang;
#X obj 174 38 r symmetry;
#X connect 0 0 4 2;
#X connect 3 0 0 0;
#X connect 5 0 4 1;
#X connect 6 0 4 0;
#X connect 8 0 10 0;
#X connect 9 0 10 0;
#X connect 10 0 2 0;
#X connect 10 0 3 0;
#X connect 10 0 0 0;
#X connect 11 0 10 0;
#X restore 14 34 pd Sierpinski_grapher;
#N canvas 128 38 319 372 inits 0;
#X obj 137 188 s A;
#X obj 164 188 s B;
#X obj 27 55 == 3;
#X obj 27 13 r symmetry;
#X obj 27 76 sel 1 0;
#X msg 11 97 s go;
#X obj 55 99 r symmetry;
#X obj 59 211 / 3;
#X obj 55 139 t b f f;
#X obj 46 166 pi;
#X obj 46 189 * 2;
#X obj 59 232 cos;
#X obj 59 253 + 1.5;
#X obj 59 295 s H;
#X obj 94 167 - 2;
#X obj 94 187 log;
#X obj 94 208 + 5;
#X obj 94 228 s S;
#X text 96 275 <-- rescaling window stuff;
#X obj 55 119 + 3;
#X text 130 289 2 was a classic ti-85 value;
#X obj 57 274 * 1.3;
#X obj 27 33 + 3;
#X obj 106 57 s radio;
#X obj 106 15 loadbang;
#X msg 106 36 0;
#X msg 137 145 0 0 0 0 5 2;
#X obj 137 166 unpack 0 0 0 0 5 2;
#X obj 241 191 s S;
#X obj 268 190 s H;
#X obj 188 189 s X;
#X obj 215 188 s Y;
#X obj 137 101 r go;
#X obj 137 122 delay 10;
#X connect 2 0 4 0;
#X connect 3 0 22 0;
#X connect 4 0 5 0;
#X connect 4 1 9 0;
#X connect 6 0 19 0;
#X connect 7 0 11 0;
#X connect 8 0 9 0;
#X connect 8 1 7 1;
#X connect 8 2 14 0;
#X connect 9 0 10 0;
#X connect 10 0 7 0;
#X connect 11 0 12 0;
#X connect 12 0 21 0;
#X connect 14 0 15 0;
#X connect 15 0 16 0;
#X connect 16 0 17 0;
#X connect 19 0 8 0;
#X connect 21 0 13 0;
#X connect 22 0 2 0;
#X connect 24 0 25 0;
#X connect 25 0 23 0;
#X connect 26 0 27 0;
#X connect 27 0 0 0;
#X connect 27 1 1 0;
#X connect 27 2 30 0;
#X connect 27 3 31 0;
#X connect 27 4 28 0;
#X connect 27 5 29 0;
#X connect 32 0 33 0;
#X connect 33 0 26 0;
#X restore 14 13 pd inits;
#N canvas 1042 128 179 293 on/off 0;
#X obj 56 144 int;
#X obj 31 185 sel -1 1;
#X obj 29 49 key;
#X obj 31 164 * -1;
#X msg 29 125 bang;
#X obj 29 144 -1;
#X msg 31 202 \; pd dsp 0;
#X msg 98 202 \; pd dsp 1;
#X obj 56 30 loadbang;
#X obj 29 68 sel 122;
#X text 96 50 <-- z start;
#X obj 56 49 s go;
#X obj 29 106 r go;
#X obj 29 86 s go;
#X connect 0 0 3 1;
#X connect 1 0 6 0;
#X connect 1 1 7 0;
#X connect 2 0 9 0;
#X connect 3 0 0 0;
#X connect 3 0 1 0;
#X connect 4 0 5 0;
#X connect 5 0 3 0;
#X connect 8 0 11 0;
#X connect 9 0 13 0;
#X connect 12 0 4 0;
#X restore 16 80 pd on/off;
#X text 78 78 <- z start;
#X floatatom 24 215 5 0 0 0 - - -;
#N canvas 24 445 462 248 controller 1;
#X obj 83 32 hradio 40 1 1 8 symmetry radio empty 0 -8 0 10 -260097
-86277 -1 0;
#X obj 101 115 hsl 200 50 11 1000 0 1 grain grain_in empty -2 -8 0
10 -1 -260097 -1 300 0;
#X text 99 168 grain;
#X text 84 75 symmetry;
#X obj 335 107 tgl 60 1 plus_minus empty empty 17 7 0 10 -33289 -260097
-1 0 1;
#X text 328 172 plus or minus;
#X text 337 189 go go go;
#X text 12 212 z starts and stops;
#X restore 15 56 pd controller;
#X obj -26 145 r A;
#X msg -28 167 bang;
#X obj 115 369 delay 11;
#X obj 131 253 +;
#N canvas 756 299 120 208 spigot_window 0;
#X obj 43 60 int;
#X obj 18 101 sel -1 1;
#X obj 18 80 * -1;
#X msg 16 41 bang;
#X obj 16 60 -1;
#X obj 16 22 r go;
#X msg 17 125 0;
#X msg 45 126 1;
#X obj 17 159 outlet;
#X obj 60 159 outlet;
#X connect 0 0 2 1;
#X connect 1 0 6 0;
#X connect 1 1 7 0;
#X connect 2 0 0 0;
#X connect 2 0 1 0;
#X connect 3 0 4 0;
#X connect 4 0 2 0;
#X connect 5 0 3 0;
#X connect 6 0 8 0;
#X connect 6 0 9 0;
#X connect 7 0 8 0;
#X connect 7 0 9 0;
#X restore 124 424 pd spigot_window;
#X obj 116 450 spigot;
#X obj 184 448 spigot;
#X obj 174 163 int;
#X obj 149 182 * -1;
#X msg 148 138 bang;
#X obj 147 162 -1;
#X obj 205 121 r plus_minus;
#X obj 149 204 t b f;
#X obj 149 228 *;
#X obj 237 277 / 2;
#X obj 280 232 r H;
#X obj 280 256 t b f;
#X obj 237 254 +;
#X obj 280 164 int;
#X obj 255 183 * -1;
#X obj 253 163 -1;
#X obj 255 205 t b f;
#X obj 255 229 *;
#X obj 228 206 r A;
#X obj 224 230 r X;
#X obj 237 301 s del_A;
#X floatatom 315 211 5 0 0 0 - - -;
#X floatatom 189 200 5 0 0 0 - - -;
#X obj 11 144 + 3;
#X obj 148 114 delay 10;
#X obj 148 94 loadbang;
#X connect 0 0 63 0;
#X connect 1 0 4 1;
#X connect 1 0 33 0;
#X connect 2 0 3 0;
#X connect 2 1 1 0;
#X connect 2 2 1 1;
#X connect 2 3 6 1;
#X connect 3 0 4 0;
#X connect 4 0 5 0;
#X connect 5 0 6 0;
#X connect 6 0 9 0;
#X connect 6 0 10 0;
#X connect 7 0 8 0;
#X connect 8 0 11 0;
#X connect 8 1 12 0;
#X connect 8 2 11 1;
#X connect 8 3 12 1;
#X connect 9 0 11 0;
#X connect 10 0 12 0;
#X connect 11 0 18 0;
#X connect 12 0 19 0;
#X connect 13 0 24 0;
#X connect 14 0 15 0;
#X connect 15 0 13 0;
#X connect 15 1 13 1;
#X connect 16 0 38 0;
#X connect 17 0 48 0;
#X connect 20 0 37 0;
#X connect 21 0 37 1;
#X connect 22 0 40 0;
#X connect 23 0 41 0;
#X connect 25 0 20 0;
#X connect 25 0 22 1;
#X connect 26 0 23 1;
#X connect 35 0 36 0;
#X connect 36 0 1 0;
#X connect 36 0 3 0;
#X connect 37 0 22 0;
#X connect 37 0 23 0;
#X connect 38 0 13 0;
#X connect 39 0 40 1;
#X connect 39 1 41 1;
#X connect 40 0 27 0;
#X connect 41 0 28 0;
#X connect 42 0 43 1;
#X connect 43 0 42 0;
#X connect 43 0 47 0;
#X connect 43 0 62 0;
#X connect 44 0 45 0;
#X connect 44 0 55 0;
#X connect 45 0 43 0;
#X connect 46 0 44 0;
#X connect 47 0 48 0;
#X connect 47 1 48 1;
#X connect 48 0 38 1;
#X connect 49 0 60 0;
#X connect 50 0 51 0;
#X connect 51 0 49 0;
#X connect 51 1 49 1;
#X connect 52 0 49 0;
#X connect 53 0 54 1;
#X connect 54 0 53 0;
#X connect 54 0 56 0;
#X connect 54 0 61 0;
#X connect 55 0 54 0;
#X connect 56 0 57 0;
#X connect 56 1 57 1;
#X connect 57 0 52 1;
#X connect 58 0 57 0;
#X connect 59 0 52 0;
#X connect 63 0 2 0;
#X connect 64 0 44 0;
#X connect 65 0 44 0;
#X connect 65 0 64 0;
#X restore 14 34 pd sierpinski;
