#N canvas 586 76 654 646 10;
#X obj 49 156 dac~;
#X obj 49 130 *~ 0;
#X obj 49 90 osc~;
#X text 88 155 <- DAC here;
#X msg 35 24 15000;
#X msg 58 49 17000;
#X msg 150 24 12000;
#X msg 138 64 0.7;
#X msg 249 71 0;
#X connect 1 0 0 0;
#X connect 1 0 0 1;
#X connect 2 0 1 0;
#X connect 4 0 2 0;
#X connect 5 0 2 0;
#X connect 6 0 2 0;
#X connect 7 0 1 1;
#X connect 8 0 1 1;
