#N canvas 900 22 382 757 10;
#X obj 228 707 dac~;
#X obj 159 248 unpack;
#X floatatom 117 265 0 0 0 0 - - -;
#X obj 159 227 route 1;
#X obj 41 32 adc~;
#X floatatom 110 407 5 0 0 0 - - -;
#X floatatom 16 135 5 0 0 0 - - -;
#X obj 103 118 unpack;
#X text 13 118 amplitude info;
#X text 51 138 amp cutoff ->;
#X obj 159 204 spigot;
#X obj 136 161 sel 0;
#X msg 136 183 0;
#X text 34 265 raw freq ->;
#X text 25 409 cooked freq->;
#X obj 160 432 line 0 100;
#X obj 160 411 pack 0 100;
#N canvas 397 33 492 780 vocoder_logic 1;
#X obj 42 31 inlet;
#X obj 42 686 outlet;
#X obj 41 446 div 10;
#X obj 41 466 * 10;
#X text 230 29 temperament;
#N canvas 99 75 332 397 temperament 1;
#X obj -121 56 int;
#X floatatom -83 73 5 0 0 0 - - -;
#X obj -144 -25 hradio 20 1 0 4 empty empty empty 0 -8 0 10 -83269
-262130 -1 0;
#X msg -155 23 6;
#X msg -126 24 12;
#X msg -96 23 19;
#X msg -67 24 36;
#X obj -144 1 sel 0 1 2 3;
#X msg -177 -38 bang;
#X obj -215 32 +;
#X obj -215 53 f;
#X msg -215 12 1;
#X obj -216 73 mod 684;
#X floatatom -253 90 5 0 0 0 - - -;
#X text -267 71 interval;
#X obj -109 106 / 1;
#X msg -215 -26 stop;
#X obj -121 82 t b f;
#X obj -109 127 *;
#X text -214 107 interval/temp ->;
#X obj -46 69 loadbang;
#X msg -46 89 2;
#X obj -46 110 log;
#X obj -109 148 exp;
#X floatatom -170 164 8 0 0 0 - - -;
#X floatatom -109 189 8 0 0 0 - - -;
#X obj -77 149 r freq;
#X text -65 171 base freq;
#X text -171 178 1< t < 2;
#X text -86 56 temp;
#X obj -170 220 outlet;
#X obj -72 221 outlet;
#X obj -109 169 * 220;
#X obj -214 -9 metro 10;
#X obj -213 -60 loadbang;
#X connect 0 0 1 0;
#X connect 0 0 12 1;
#X connect 0 0 17 0;
#X connect 1 0 31 0;
#X connect 2 0 7 0;
#X connect 3 0 0 0;
#X connect 4 0 0 0;
#X connect 5 0 0 0;
#X connect 6 0 0 0;
#X connect 7 0 3 0;
#X connect 7 1 4 0;
#X connect 7 2 5 0;
#X connect 7 3 6 0;
#X connect 8 0 33 0;
#X connect 9 0 10 0;
#X connect 10 0 12 0;
#X connect 11 0 9 0;
#X connect 12 0 9 1;
#X connect 12 0 13 0;
#X connect 12 0 15 0;
#X connect 15 0 18 0;
#X connect 16 0 33 0;
#X connect 17 0 15 0;
#X connect 17 1 15 1;
#X connect 18 0 23 0;
#X connect 20 0 21 0;
#X connect 21 0 22 0;
#X connect 22 0 18 1;
#X connect 23 0 24 0;
#X connect 23 0 32 0;
#X connect 24 0 30 0;
#X connect 26 0 32 1;
#X connect 32 0 25 0;
#X connect 33 0 11 0;
#X connect 34 0 33 0;
#X restore 228 50 pd temperament;
#X floatatom 228 72 5 0 0 0 - - -;
#X text 321 46 one possible distr;
#X text 322 63 function \, passed;
#X text 323 82 to array for lookup;
#N canvas 676 40 746 724 array_box 0;
#N canvas 0 22 450 278 (subpatch) 0;
#X array temperament 36 float 5;
#A 0 0.387245 0.414214 0.441707 0.469735 0.498307 0.527435 0.55713
0.587401 0.618261 0.649721 0.681793 0.714488 0.747819 0.781797 0.816437
0.851749 0.887749 0.924448 0.96186 0 0.0194407 0.0392592 0.0594631
0.0800598 0.101057 0.122462 0.144283 0.166529 0.189207 0.212326 0.235894
0.259921 0.284415 0.309385 0.33484 0.284415;
#X coords 0 10 35 -10 600 200 1 0 0;
#X restore 100 20 graph;
#X obj 73 458 + 1;
#X obj 73 502 int;
#X obj 73 524 mtof;
#X obj 71 600 dac~;
#X floatatom 92 389 5 0 0 0 - - -;
#X floatatom 98 438 5 0 0 0 - - -;
#X floatatom 87 546 5 0 0 0 - - -;
#X text 61 272 reading;
#X obj 74 303 bng 15 250 50 0 empty empty empty 17 7 0 10 -262144 -1
-1;
#X obj 74 345 f;
#X obj 106 344 + 1;
#X msg 99 301 stop;
#X obj 73 571 osc~;
#X obj 73 480 * 40;
#X obj 498 317 bng 15 250 50 0 empty empty empty 17 7 0 10 -262144
-1 -1;
#X obj 543 369 f;
#X obj 575 368 + 1;
#X msg 523 315 stop;
#X floatatom 477 435 5 0 0 0 - - -;
#X floatatom 543 413 5 0 0 0 - - -;
#X text 551 431 index;
#X text 441 434 value;
#X text 593 392 length of loop;
#X text 458 282 writing;
#X floatatom 146 295 5 0 0 0 - - -;
#X obj 73 415 tabread temperament;
#X obj 477 485 tabwrite temperament;
#X obj 477 466 pack 0 0;
#X obj 499 337 metro 10;
#X obj 296 270 inlet;
#X obj 477 391 * 1;
#X obj 478 413 - 1;
#X obj 513 266 loadbang;
#X obj 543 391 mod 684;
#X obj 74 367 mod 684;
#X obj 114 598 list;
#X obj 115 626 print;
#X obj 73 321 metro 500;
#X connect 1 0 14 0;
#X connect 2 0 3 0;
#X connect 3 0 7 0;
#X connect 3 0 13 0;
#X connect 9 0 38 0;
#X connect 10 0 11 0;
#X connect 10 0 35 0;
#X connect 11 0 10 1;
#X connect 12 0 38 0;
#X connect 13 0 4 0;
#X connect 14 0 2 0;
#X connect 15 0 29 0;
#X connect 16 0 17 0;
#X connect 16 0 34 0;
#X connect 17 0 16 1;
#X connect 18 0 29 0;
#X connect 19 0 28 0;
#X connect 20 0 28 1;
#X connect 25 0 38 1;
#X connect 26 0 1 0;
#X connect 26 0 6 0;
#X connect 28 0 27 0;
#X connect 29 0 16 0;
#X connect 30 0 31 0;
#X connect 31 0 32 0;
#X connect 32 0 19 0;
#X connect 33 0 15 0;
#X connect 34 0 20 0;
#X connect 35 0 5 0;
#X connect 35 0 26 0;
#X connect 36 0 37 0;
#X connect 38 0 10 0;
#X restore 228 102 pd array_box;
#N canvas 917 138 582 512 epsilon_ball 0;
#X obj 133 58 inlet;
#X obj 147 294 outlet;
#X restore 125 535 pd epsilon_ball;
#N canvas 129 460 450 300 19_tone_selector 0;
#X restore 125 571 pd 19_tone_selector;
#X text 96 249 place mic next to speaker;
#X text 97 267 and get everyone started;
#N canvas 514 89 234 436 Freq2Interval 0;
#X text 10 27 f is fixed frequency;
#X obj 14 183 inlet;
#X obj 80 170 inlet;
#X text 74 151 packed f \, t;
#X text 9 13 t is temperament;
#X text 4 77 F = f * e^( (k/t) ln 2);
#X text 4 94 f = F * 2^-(k/t);
#X text -4 117 k = (ln 2)^-1 $ t $ ln F - ln f;
#X text 11 42 k is interval;
#X text 14 164 Freq in;
#X text 10 58 F is freq in;
#X obj 80 193 unpack 0 0;
#X obj 14 208 log;
#X obj 80 216 log;
#X obj 41 239 -;
#X obj 60 260 t b f;
#X obj 41 283 * 12;
#X obj 133 219 loadbang;
#X obj 104 285 inv;
#X obj 63 311 *;
#X obj 63 359 outlet;
#X text 65 376 k out;
#X obj 63 335 int;
#X floatatom 144 353 5 0 0 0 - - -;
#X msg 107 243 2;
#X obj 104 263 log;
#X connect 1 0 12 0;
#X connect 2 0 11 0;
#X connect 11 0 13 0;
#X connect 11 1 15 0;
#X connect 12 0 14 0;
#X connect 13 0 14 1;
#X connect 14 0 16 0;
#X connect 15 0 16 0;
#X connect 15 1 16 1;
#X connect 16 0 19 0;
#X connect 17 0 24 0;
#X connect 18 0 19 1;
#X connect 19 0 22 0;
#X connect 19 0 23 0;
#X connect 22 0 20 0;
#X connect 24 0 25 0;
#X connect 25 0 18 0;
#X restore 94 445 pd Freq2Interval;
#N canvas 81 107 262 461 Interval2Freq 0;
#X text 20 37 f is fixed frequency;
#X obj 14 175 inlet;
#X obj 66 175 inlet;
#X text 60 156 packed f \, t;
#X text 19 23 t is temperament;
#X text 14 87 F = f * e^( (k/t) ln 2);
#X text 14 104 f = F * 2^-(k/t);
#X text 6 127 k = (ln 2)^-1 $ t $ ln F - ln f;
#X text 21 52 k is interval;
#X text 20 68 F is freq in;
#X text 14 156 k in;
#X text 161 87 <------;
#X obj 66 198 unpack;
#X obj 80 257 / 12;
#X obj 99 230 t b f;
#X obj 80 282 *;
#X obj 138 220 loadbang;
#X obj 80 304 exp;
#X obj 66 332 t b f;
#X obj 79 365 *;
#X obj 79 392 outlet;
#X text 78 409 F out;
#X msg 138 242 2;
#X obj 138 265 log;
#X connect 1 0 13 0;
#X connect 2 0 12 0;
#X connect 12 0 18 0;
#X connect 12 1 14 0;
#X connect 13 0 15 0;
#X connect 14 0 13 0;
#X connect 14 1 13 1;
#X connect 15 0 17 0;
#X connect 16 0 22 0;
#X connect 17 0 19 0;
#X connect 18 0 19 0;
#X connect 18 1 19 1;
#X connect 19 0 20 0;
#X connect 22 0 23 0;
#X connect 23 0 15 1;
#X restore 94 489 pd Interval2Freq;
#X obj 109 340 loadbang;
#X msg 171 340 bang;
#X msg 109 367 110 12;
#X obj 109 391 pack 110 12;
#X obj 109 415 s freq&temp;
#X obj 187 420 r freq&temp;
#X obj 187 465 r freq&temp;
#X text 108 321 center Freq and Temp;
#X floatatom 302 542 5 0 0 0 - - -;
#X msg 223 373 400 7;
#X connect 0 0 2 0;
#X connect 0 0 15 0;
#X connect 2 0 3 0;
#X connect 5 0 6 0;
#X connect 5 0 10 0;
#X connect 15 0 16 0;
#X connect 15 0 25 0;
#X connect 16 0 1 0;
#X connect 17 0 19 0;
#X connect 18 0 19 0;
#X connect 19 0 20 0;
#X connect 20 0 21 0;
#X connect 22 0 15 1;
#X connect 23 0 16 1;
#X connect 26 0 21 0;
#X restore 160 388 pd vocoder_logic;
#X text 29 495 open sets?;
#X obj 166 314 sel 0;
#X msg 166 334 0;
#X obj 206 335 spigot;
#X obj 184 360 * 1;
#X obj 136 139 > 55;
#X text 201 294 <-freq cutoff;
#X floatatom 186 123 5 0 0 0 - - -;
#X obj 47 571 vsl 140 40 0 127 0 0 voc_vol empty empty 0 -9 0 10 -260097
-191407 -1 3600 1;
#X obj 250 544 dbtorms;
#X obj 249 521 r voc_vol;
#X floatatom 303 588 5 0 0 0 - - -;
#X obj 48 95 fiddle~ 1024 1 20 3;
#X obj 160 485 osc~ 110;
#X text 189 457 <--- octave;
#N canvas 64 493 450 300 recorder 1;
#X msg 87 189 print;
#X msg 22 110 bang;
#X msg 86 145 start;
#X msg 88 167 stop;
#X obj 77 233 writesf~ 2;
#X obj 194 208 osc~ 440;
#X obj 19 198 inlet~;
#X msg 80 101 open -bytes 3 /Users/Jon/Desktop/foo.wav;
#X msg 77 76 open -wave /Users/Jon/Desktop/foo.wav;
#X connect 0 0 4 0;
#X connect 1 0 2 0;
#X connect 2 0 4 0;
#X connect 3 0 4 0;
#X connect 6 0 4 0;
#X connect 6 0 4 1;
#X connect 7 0 4 0;
#X connect 8 0 4 0;
#X restore 150 705 pd recorder;
#X obj 166 294 > 120;
#X obj 224 659 spigot~;
#X text 273 657 hard on/off;
#X obj 216 576 *~ 0;
#X obj 262 634 tgl 15 1 empty empty empty 17 7 0 10 -262144 -1 -1 0
1;
#X obj 161 458 * 0.75;
#X connect 1 0 2 0;
#X connect 1 0 21 0;
#X connect 1 0 34 0;
#X connect 3 0 1 0;
#X connect 4 0 30 0;
#X connect 4 1 30 0;
#X connect 7 1 6 0;
#X connect 7 1 23 0;
#X connect 10 0 3 0;
#X connect 11 0 12 0;
#X connect 12 0 1 0;
#X connect 15 0 39 0;
#X connect 16 0 15 0;
#X connect 17 0 16 0;
#X connect 17 0 5 0;
#X connect 19 0 20 0;
#X connect 20 0 22 0;
#X connect 21 0 22 0;
#X connect 22 0 17 0;
#X connect 23 0 10 1;
#X connect 23 0 11 0;
#X connect 25 0 23 1;
#X connect 27 0 29 0;
#X connect 27 0 37 1;
#X connect 28 0 27 0;
#X connect 30 2 7 0;
#X connect 30 4 10 0;
#X connect 31 0 37 0;
#X connect 34 0 19 0;
#X connect 34 0 21 1;
#X connect 35 0 0 0;
#X connect 37 0 33 0;
#X connect 37 0 35 0;
#X connect 38 0 35 1;
#X connect 39 0 31 0;
