#N canvas 629 53 382 757 10;
#X obj 151 631 dac~;
#X obj 48 95 fiddle~ 4096 1 20 3;
#X obj 159 248 unpack;
#X floatatom 117 265 0 0 0 0 - - -;
#X obj 159 227 route 1;
#X obj 41 32 adc~;
#X floatatom 110 407 5 0 0 0 - - -;
#X floatatom 16 135 5 0 0 0 - - -;
#X obj 103 118 unpack;
#X text 13 118 amplitude info;
#X text 51 138 amp cutoff ->;
#X obj 159 204 spigot;
#X obj 136 161 sel 0;
#X msg 136 183 0;
#X text 34 265 raw freq ->;
#X text 25 409 cooked freq->;
#X obj 160 485 osc~ 0;
#X obj 160 432 line 0 100;
#X obj 160 408 pack 0 100;
#N canvas 1032 113 492 780 vocoder_logic 1;
#X obj 42 31 inlet;
#X obj 42 686 outlet;
#X obj 41 446 div 10;
#X obj 41 466 * 10;
#X text 230 29 temperament;
#N canvas 99 75 322 308 temperament 0;
#X obj -110 -16 int;
#X floatatom -72 1 5 0 0 0 - - -;
#X obj -133 -97 hradio 20 1 0 4 empty empty empty 0 -8 0 10 -83269
-262130 -1 1;
#X msg -144 -49 6;
#X msg -115 -48 12;
#X msg -85 -49 19;
#X msg -56 -48 36;
#X obj -133 -71 sel 0 1 2 3;
#X msg -169 -98 bang;
#X obj -204 -40 +;
#X obj -204 -19 f;
#X msg -204 -60 1;
#X obj -205 1 mod 684;
#X floatatom -242 18 5 0 0 0 - - -;
#X text -256 -1 interval;
#X obj -98 34 / 1;
#X msg -204 -98 stop;
#X obj -110 10 t b f;
#X obj -98 55 *;
#X text -203 35 interval/temp ->;
#X obj -35 -3 loadbang;
#X msg -35 17 2;
#X obj -35 38 log;
#X obj -98 76 exp;
#X floatatom -159 92 8 0 0 0 - - -;
#X floatatom -98 117 8 0 0 0 - - -;
#X obj -66 77 r freq;
#X text -54 99 base freq;
#X text -160 106 1< t < 2;
#X text -75 -16 temp;
#X obj -159 148 outlet;
#X obj -61 149 outlet;
#X obj -98 97 * 220;
#X obj -203 -81 metro 10;
#X connect 0 0 1 0;
#X connect 0 0 12 1;
#X connect 0 0 17 0;
#X connect 1 0 31 0;
#X connect 2 0 7 0;
#X connect 3 0 0 0;
#X connect 4 0 0 0;
#X connect 5 0 0 0;
#X connect 6 0 0 0;
#X connect 7 0 3 0;
#X connect 7 1 4 0;
#X connect 7 2 5 0;
#X connect 7 3 6 0;
#X connect 8 0 33 0;
#X connect 9 0 10 0;
#X connect 10 0 12 0;
#X connect 11 0 9 0;
#X connect 12 0 9 1;
#X connect 12 0 13 0;
#X connect 12 0 15 0;
#X connect 15 0 18 0;
#X connect 16 0 33 0;
#X connect 17 0 15 0;
#X connect 17 1 15 1;
#X connect 18 0 23 0;
#X connect 20 0 21 0;
#X connect 21 0 22 0;
#X connect 22 0 18 1;
#X connect 23 0 24 0;
#X connect 23 0 32 0;
#X connect 24 0 30 0;
#X connect 26 0 32 1;
#X connect 32 0 25 0;
#X connect 33 0 11 0;
#X restore 228 50 pd temperament;
#X floatatom 228 72 5 0 0 0 - - -;
#X text 321 46 one possible distr;
#X text 322 63 function \, passed;
#X text 323 82 to array for lookup;
#N canvas 676 40 746 724 array_box 0;
#N canvas 0 22 450 278 (subpatch) 0;
#X array temperament 36 float 5;
#A 0 0.498307 0.587401 0.681793 0.781797 0.887749 0 0.0594631 0.122462
0.189207 0.259921 0.33484 0.414214 0.498307 0.587401 0.681793 0.781797
0.887749 0 0.0594631 0.122462 0.189207 0.259921 0.33484 0.414214 0.498307
0.587401 0.681793 0.781797 0.887749 0 0.0594631 0.122462 0.189207 0.259921
0.33484 0.781797;
#X coords 0 10 35 -10 600 200 1 0 0;
#X restore 100 20 graph;
#X obj 73 458 + 1;
#X obj 73 502 int;
#X obj 73 524 mtof;
#X obj 71 600 dac~;
#X floatatom 92 389 5 0 0 0 - - -;
#X floatatom 98 438 5 0 0 0 - - -;
#X floatatom 87 546 5 0 0 0 - - -;
#X text 61 272 reading;
#X obj 74 303 bng 15 250 50 0 empty empty empty 17 7 0 10 -262144 -1
-1;
#X obj 74 345 f;
#X obj 106 344 + 1;
#X msg 99 301 stop;
#X obj 73 571 osc~;
#X obj 73 480 * 40;
#X obj 498 317 bng 15 250 50 0 empty empty empty 17 7 0 10 -262144
-1 -1;
#X obj 543 369 f;
#X obj 575 368 + 1;
#X msg 523 315 stop;
#X floatatom 477 435 5 0 0 0 - - -;
#X floatatom 543 413 5 0 0 0 - - -;
#X text 551 431 index;
#X text 441 434 value;
#X text 593 392 length of loop;
#X text 458 282 writing;
#X floatatom 146 295 5 0 0 0 - - -;
#X obj 73 415 tabread temperament;
#X obj 477 485 tabwrite temperament;
#X obj 477 466 pack 0 0;
#X obj 499 337 metro 10;
#X obj 296 270 inlet;
#X obj 477 391 * 1;
#X obj 478 413 - 1;
#X obj 513 266 loadbang;
#X obj 543 391 mod 684;
#X obj 74 367 mod 684;
#X obj 114 598 list;
#X obj 115 626 print;
#X obj 73 321 metro 500;
#X connect 1 0 14 0;
#X connect 2 0 3 0;
#X connect 3 0 7 0;
#X connect 3 0 13 0;
#X connect 9 0 38 0;
#X connect 10 0 11 0;
#X connect 10 0 35 0;
#X connect 11 0 10 1;
#X connect 12 0 38 0;
#X connect 13 0 4 0;
#X connect 14 0 2 0;
#X connect 15 0 29 0;
#X connect 16 0 17 0;
#X connect 16 0 34 0;
#X connect 17 0 16 1;
#X connect 18 0 29 0;
#X connect 19 0 28 0;
#X connect 20 0 28 1;
#X connect 25 0 38 1;
#X connect 26 0 1 0;
#X connect 26 0 6 0;
#X connect 28 0 27 0;
#X connect 29 0 16 0;
#X connect 30 0 31 0;
#X connect 31 0 32 0;
#X connect 32 0 19 0;
#X connect 33 0 15 0;
#X connect 34 0 20 0;
#X connect 35 0 5 0;
#X connect 35 0 26 0;
#X connect 36 0 37 0;
#X connect 38 0 10 0;
#X restore 228 102 pd array_box;
#N canvas 917 138 582 512 epsilon_ball 0;
#X obj 133 58 inlet;
#X obj 147 294 outlet;
#X restore 125 535 pd epsilon_ball;
#N canvas 129 460 450 300 19_tone_selector 0;
#X restore 125 571 pd 19_tone_selector;
#X text 96 249 place mic next to speaker;
#X text 97 267 and get everyone started;
#N canvas 97 253 234 436 Freq2Interval 1;
#X text 10 27 f is fixed frequency;
#X obj 14 183 inlet;
#X obj 80 170 inlet;
#X text 74 151 packed f \, t;
#X text 9 13 t is temperament;
#X text 4 77 F = f * e^( (k/t) ln 2);
#X text 4 94 f = F * 2^-(k/t);
#X text -4 117 k = (ln 2)^-1 $ t $ ln F - ln f;
#X text 11 41 k is interval;
#X text 14 164 Freq in;
#X text 10 58 F is freq in;
#X obj 80 193 unpack 0 0;
#X obj 14 208 log;
#X obj 80 216 log;
#X obj 41 239 -;
#X obj 60 260 t b f;
#X obj 41 283 * 12;
#X obj 132 234 loadbang;
#X obj 101 294 inv;
#X obj 61 337 *;
#X obj 61 385 outlet;
#X text 63 402 k out;
#X obj 61 361 int;
#X msg 101 251 2;
#X obj 101 272 log;
#X text 142 259 is it here?;
#X obj 61 315 t b f;
#X connect 1 0 12 0;
#X connect 2 0 11 0;
#X connect 11 0 13 0;
#X connect 11 1 15 0;
#X connect 12 0 14 0;
#X connect 13 0 14 1;
#X connect 14 0 16 0;
#X connect 15 0 16 0;
#X connect 15 1 16 1;
#X connect 16 0 19 0;
#X connect 17 0 23 0;
#X connect 18 0 26 0;
#X connect 19 0 22 0;
#X connect 22 0 20 0;
#X connect 23 0 24 0;
#X connect 24 0 18 0;
#X connect 26 0 19 0;
#X connect 26 1 19 1;
#X restore 94 445 pd Freq2Interval;
#N canvas 346 242 262 461 Interval2Freq 1;
#X text 20 37 f is fixed frequency;
#X obj 14 175 inlet;
#X obj 66 175 inlet;
#X text 60 156 packed f \, t;
#X text 19 23 t is temperament;
#X text 14 87 F = f * e^( (k/t) ln 2);
#X text 14 104 f = F * 2^-(k/t);
#X text 6 127 k = (ln 2)^-1 $ t $ ln F - ln f;
#X text 21 52 k is interval;
#X text 20 68 F is freq in;
#X text 14 156 k in;
#X text 161 87 <------;
#X obj 66 198 unpack;
#X obj 80 257 / 12;
#X obj 99 230 t b f;
#X obj 80 306 *;
#X obj 138 220 loadbang;
#X obj 80 328 exp;
#X obj 66 356 t b f;
#X obj 79 389 *;
#X obj 79 416 outlet;
#X text 78 433 F out;
#X msg 138 242 2;
#X obj 138 265 log;
#X obj 85 282 t b f;
#X connect 1 0 13 0;
#X connect 2 0 12 0;
#X connect 12 0 18 0;
#X connect 12 1 14 0;
#X connect 13 0 15 0;
#X connect 14 0 13 0;
#X connect 14 1 13 1;
#X connect 15 0 17 0;
#X connect 16 0 22 0;
#X connect 17 0 19 0;
#X connect 18 0 19 0;
#X connect 18 1 19 1;
#X connect 19 0 20 0;
#X connect 22 0 23 0;
#X connect 23 0 24 0;
#X connect 24 0 15 0;
#X connect 24 1 15 1;
#X restore 94 489 pd Interval2Freq;
#X obj 109 340 loadbang;
#X msg 171 340 bang;
#X msg 109 367 110 12;
#X obj 109 391 pack 110 12;
#X obj 109 415 s freq&temp;
#X obj 187 420 r freq&temp;
#X obj 187 465 r freq&temp;
#X text 108 321 center Freq and Temp;
#X connect 0 0 2 0;
#X connect 0 0 15 0;
#X connect 2 0 3 0;
#X connect 5 0 6 0;
#X connect 5 0 10 0;
#X connect 15 0 16 0;
#X connect 16 0 1 0;
#X connect 17 0 19 0;
#X connect 18 0 19 0;
#X connect 19 0 20 0;
#X connect 20 0 21 0;
#X connect 22 0 15 1;
#X connect 23 0 16 1;
#X restore 160 388 pd vocoder_logic;
#X text 29 495 open sets?;
#X obj 166 314 sel 0;
#X msg 166 334 0;
#X obj 206 335 spigot;
#X obj 184 360 * 1;
#X obj 136 139 > 55;
#X text 201 294 <-freq cutoff;
#X obj 166 294 > 70;
#X floatatom 186 123 5 0 0 0 - - -;
#X floatatom 256 364 5 0 0 0 - - -;
#N canvas 1046 258 450 300 rando 0;
#X msg 102 23 stop;
#X floatatom 113 128 5 0 0 0 - - -;
#X msg 64 22 bang;
#X obj 84 155 outlet;
#X obj 78 49 metro 1000;
#X obj 78 72 random 20;
#X obj 78 95 * 40;
#X connect 0 0 4 0;
#X connect 2 0 4 0;
#X connect 4 0 5 0;
#X connect 5 0 6 0;
#X connect 6 0 1 0;
#X connect 6 0 3 0;
#X restore 91 352 pd rando;
#X obj 151 599 *~;
#X obj 169 532 hsl 128 15 0 127 0 0 empty empty empty -2 -8 0 10 -262144
-1 -1 4300 1;
#X obj 167 574 / 127;
#X obj 180 599 *~;
#X obj 201 553 hsl 128 15 0 127 0 0 empty empty empty -2 -8 0 10 -262144
-1 -1 5300 1;
#X obj 196 574 / 127;
#X obj 228 466 * 1;
#X connect 1 2 8 0;
#X connect 1 4 11 0;
#X connect 2 0 3 0;
#X connect 2 0 23 0;
#X connect 2 0 27 0;
#X connect 4 0 2 0;
#X connect 5 0 1 0;
#X connect 5 1 1 0;
#X connect 8 1 7 0;
#X connect 8 1 25 0;
#X connect 11 0 4 0;
#X connect 12 0 13 0;
#X connect 13 0 2 0;
#X connect 16 0 31 0;
#X connect 16 0 34 0;
#X connect 17 0 37 0;
#X connect 18 0 17 0;
#X connect 19 0 18 0;
#X connect 19 0 6 0;
#X connect 21 0 22 0;
#X connect 22 0 24 0;
#X connect 23 0 24 0;
#X connect 24 0 29 0;
#X connect 24 0 19 0;
#X connect 25 0 11 1;
#X connect 25 0 12 0;
#X connect 27 0 21 0;
#X connect 27 0 23 1;
#X connect 28 0 25 1;
#X connect 30 0 19 0;
#X connect 31 0 0 0;
#X connect 32 0 33 0;
#X connect 33 0 31 1;
#X connect 34 0 0 1;
#X connect 35 0 36 0;
#X connect 36 0 34 1;
#X connect 37 0 16 0;
